<svg width="18" height="17" viewBox="0 0 18 17" fill="none" xmlns="http://www.w3.org/2000/svg">
<path d="M8.88746 16.0352C8.76471 16.0348 8.64554 15.9938 8.54857 15.9185C5.45968 13.5185 3.3319 11.4518 1.84301 9.41294C-0.0569856 6.80739 -0.490319 4.40183 0.554125 2.26294C1.29857 0.735166 3.43746 -0.514834 5.93746 0.212943C7.12943 0.557243 8.1694 1.2956 8.88746 2.30739C9.60552 1.2956 10.6455 0.557243 11.8375 0.212943C14.3319 -0.503723 16.4763 0.735166 17.2208 2.26294C18.2652 4.40183 17.8319 6.80739 15.9319 9.41294C14.443 11.4518 12.3152 13.5185 9.22635 15.9185C9.12938 15.9938 9.01021 16.0348 8.88746 16.0352ZM4.51524 1.1185C3.92038 1.09535 3.33044 1.23464 2.80876 1.52141C2.28708 1.80819 1.85335 2.23163 1.55413 2.74628C0.693015 4.51294 1.0819 6.47961 2.74301 8.75183C4.50833 11.0288 6.57547 13.0548 8.88746 14.7741C11.1991 13.0565 13.2662 11.0324 15.0319 8.75739C16.6986 6.47961 17.0819 4.51294 16.2208 2.75183C15.6652 1.64072 13.9986 0.757388 12.143 1.27961C11.548 1.45544 10.9965 1.7539 10.5238 2.15576C10.0511 2.55763 9.66783 3.054 9.39857 3.61294C9.35671 3.71484 9.28551 3.80199 9.19401 3.86332C9.10251 3.92466 8.99484 3.95741 8.88468 3.95741C8.77453 3.95741 8.66686 3.92466 8.57535 3.86332C8.48385 3.80199 8.41265 3.71484 8.37079 3.61294C8.10356 3.0526 7.72092 2.55507 7.24795 2.15295C6.77499 1.75084 6.22238 1.45322 5.62635 1.27961C5.26522 1.17472 4.89128 1.1205 4.51524 1.1185Z" fill="white"/>
</svg>
