<svg width="22" height="26" viewBox="0 0 22 26" fill="none" xmlns="http://www.w3.org/2000/svg">
<path d="M10.6289 12.9776C9.78823 12.8416 9.0338 12.3911 8.53155 11.7254C8.0293 11.0596 7.82037 10.233 7.95072 9.42747C8.08107 8.62195 8.54002 7.90346 9.22662 7.43005C9.91321 6.95665 10.7712 6.76712 11.6118 6.90315C12.4525 7.03919 13.2069 7.48964 13.7092 8.15542C14.2114 8.8212 14.4203 9.64777 14.29 10.4533C14.2254 10.8522 14.0796 11.2338 13.8606 11.5766C13.6417 11.9193 13.3541 12.2163 13.0141 12.4507C12.6741 12.6851 12.2885 12.8523 11.8792 12.9427C11.47 13.0331 11.0451 13.045 10.6289 12.9776ZM12.4965 1.43613C10.1427 1.05524 7.74035 1.58593 5.81789 2.91146C3.89542 4.23698 3.91666 6.51446 3.55168 8.76993C2.90298 12.7787 4.25965 18.2888 6.32772 22.0269C7.44361 24.0439 10.1614 24.4837 11.8565 22.9216C14.998 20.0265 19.3466 15.3853 19.9953 11.3765C20.3603 9.12107 19.7753 6.80667 18.369 4.94248C16.9627 3.0783 14.8503 1.81702 12.4965 1.43613Z" fill="#353AA4"/>
<path d="M10.0264 12.5318C9.24807 12.4058 8.55184 11.9745 8.09091 11.3326C7.62998 10.6907 7.44211 9.89082 7.56862 9.10898C7.69514 8.32715 8.12568 7.62738 8.76553 7.1636C9.40539 6.69983 10.2021 6.51004 10.9805 6.636C11.7589 6.76195 12.4551 7.19333 12.916 7.83524C13.377 8.47714 13.5648 9.27699 13.4383 10.0588C13.3757 10.4459 13.2377 10.817 13.0324 11.1508C12.827 11.4846 12.5582 11.7746 12.2414 12.0042C11.9246 12.2338 11.5659 12.3986 11.1859 12.4892C10.8058 12.5797 10.4119 12.5942 10.0264 12.5318ZM11.8392 1.32977C9.65972 0.977094 7.42883 1.50849 5.63724 2.80706C3.84566 4.10563 2.64014 6.065 2.2859 8.25413C1.65628 12.145 4.08435 17.7256 5.97526 21.3349C6.99556 23.2825 9.51208 23.6897 11.0945 22.1633C14.0273 19.3345 18.0914 14.8045 18.7211 10.9137C19.0753 8.72454 18.5493 6.48497 17.2587 4.68764C15.968 2.89031 14.0186 1.68245 11.8392 1.32977Z" fill="url(#paint0_linear_1364_15447)"/>
<defs>
<linearGradient id="paint0_linear_1364_15447" x1="11.8392" y1="1.32977" x2="8.32409" y2="23.0518" gradientUnits="userSpaceOnUse">
<stop stop-color="#8A8DE6"/>
<stop offset="1" stop-color="#4B51E7"/>
</linearGradient>
</defs>
</svg>
