<svg width="24" height="22" viewBox="0 0 24 22" fill="none" xmlns="http://www.w3.org/2000/svg">
<g id="icon_my_heart_none">
<path id="Vector" d="M12 21.651C11.8343 21.6504 11.6734 21.595 11.5424 21.4934C7.37176 18.2529 4.49879 15.4625 2.48847 12.7095C-0.076943 9.19145 -0.662037 5.94343 0.74819 3.05546C1.75335 0.992633 4.64132 -0.695138 8.01686 0.28752C9.62627 0.752399 11.0305 1.74934 12 3.11547C12.9695 1.74934 14.3737 0.752399 15.9831 0.28752C19.3512 -0.680136 22.2466 0.992633 23.2518 3.05546C24.662 5.94343 24.0769 9.19145 21.5115 12.7095C19.5012 15.4625 16.6282 18.2529 12.4576 21.4934C12.3266 21.595 12.1657 21.6504 12 21.651ZM6.09655 1.51022C5.29336 1.47896 4.49682 1.66703 3.79244 2.05424C3.08805 2.44145 2.50242 3.01319 2.09841 3.70807C0.93572 6.09345 1.4608 8.74888 3.70367 11.8169C6.08723 14.8913 8.87831 17.6269 12 19.9482C15.1212 17.6292 17.9123 14.8962 20.2963 11.8244C22.5467 8.74888 23.0643 6.09345 21.9016 3.71557C21.1515 2.21533 18.9011 1.02264 16.3957 1.72775C15.5924 1.96517 14.8476 2.36814 14.2094 2.91075C13.5712 3.45335 13.0537 4.12357 12.6901 4.87826C12.6336 5.01584 12.5375 5.13351 12.4139 5.21633C12.2904 5.29914 12.145 5.34336 11.9963 5.34336C11.8475 5.34336 11.7021 5.29914 11.5786 5.21633C11.455 5.13351 11.3589 5.01584 11.3024 4.87826C10.9416 4.12168 10.4249 3.4499 9.78631 2.90696C9.14771 2.36401 8.40156 1.96216 7.59679 1.72775C7.1092 1.58613 6.60429 1.51292 6.09655 1.51022Z" fill="white"/>
</g>
</svg>
