<svg width="107" height="108" viewBox="0 0 107 108" fill="none" xmlns="http://www.w3.org/2000/svg">
<g id="Frame 147">
<path id="Vector" d="M72.2697 9.22522C79.9486 12.5849 86.6305 17.9101 91.6539 24.6736C96.6773 31.4371 99.8679 39.4044 100.91 47.7867C101.952 56.1691 100.81 64.6758 97.5953 72.4648C94.3811 80.2538 89.2068 87.055 82.5846 92.195C75.9624 97.3351 68.1219 100.636 59.8393 101.77C51.5567 102.905 43.1192 101.834 35.3621 98.6638C27.6051 95.4935 20.7973 90.3337 15.6129 83.6952C10.4285 77.0567 7.04723 69.1697 5.80372 60.8149L5.59849 59.2568L5.44094 57.6931C4.74108 49.3421 6.19495 40.9555 9.66079 33.351C13.1266 25.7465 18.4862 19.1836 25.2169 14.3021C31.9477 9.42059 39.8199 6.38709 48.0661 5.49735C56.3124 4.6076 64.6512 5.89196 72.2697 9.22522ZM53.95 59.497C51.096 59.8284 48.3374 60.7319 45.8359 62.1544C43.3343 63.577 41.1401 65.49 39.3816 67.7816C38.9851 68.2832 38.6914 68.8596 38.5176 69.4774C38.3439 70.0952 38.2935 70.7421 38.3694 71.3803C38.4454 72.0185 38.6461 72.6355 38.96 73.1952C39.2738 73.755 39.6946 74.2464 40.1977 74.6409C40.7008 75.0354 41.2764 75.3252 41.8908 75.4933C42.5052 75.6615 43.1464 75.7047 43.7769 75.6203C44.4074 75.5361 45.0147 75.326 45.5636 75.0023C46.1124 74.6786 46.5919 74.2478 46.974 73.7349C47.9509 72.461 49.17 71.3974 50.5601 70.6065C51.9502 69.8156 53.4832 69.3133 55.0694 69.129C56.6555 68.9446 58.2629 69.082 59.7973 69.5331C61.3317 69.9841 62.7623 70.7398 64.0052 71.7557C64.9985 72.5434 66.2578 72.9054 67.511 72.7633C68.7641 72.6212 69.9104 71.9865 70.702 70.9964C71.4935 70.0063 71.8668 68.7404 71.7411 67.4723C71.6154 66.2042 71.0007 65.0359 70.0301 64.2199C67.793 62.3927 65.2185 61.0338 62.4574 60.2228C59.6963 59.4118 56.804 59.1651 53.95 59.497ZM37.3424 40.9199L36.7408 41.024C35.5981 41.2979 34.5956 41.9859 33.9231 42.9576C33.2506 43.9294 32.9549 45.1173 33.0919 46.2965C33.2289 47.4756 33.7892 48.5641 34.6666 49.3557C35.544 50.1473 36.6776 50.5871 37.8527 50.5917L38.4144 50.5606L39.016 50.4565C40.1587 50.1825 41.1612 49.4946 41.8337 48.5228C42.5062 47.5511 42.8019 46.3632 42.6649 45.184C42.5279 44.0048 41.9676 42.9164 41.0902 42.1248C40.2128 41.3332 39.0792 40.8934 37.9042 40.8888L37.3424 40.9199ZM65.9502 37.5954L65.3486 37.6994C64.206 37.9734 63.2034 38.6614 62.5309 39.6331C61.8585 40.6048 61.5627 41.7928 61.6997 42.9719C61.8368 44.1511 62.3971 45.2396 63.2745 46.0312C64.1519 46.8228 65.2855 47.2625 66.4605 47.2671L67.0223 47.236L67.6239 47.132C68.7665 46.858 69.7691 46.17 70.4416 45.1983C71.114 44.2266 71.4098 43.0386 71.2728 41.8595C71.1357 40.6803 70.5754 39.5918 69.698 38.8002C68.8206 38.0086 67.687 37.5688 66.512 37.5642L65.9502 37.5954Z" fill="#F4A187"/>
<path id="Vector_2" d="M70.0038 9.21877C77.4379 12.4316 83.904 17.5302 88.7619 24.01C93.6199 30.4897 96.7013 38.1258 97.7011 46.1624C98.7009 54.199 97.5844 62.3574 94.4622 69.8299C91.3399 77.3025 86.3202 83.83 79.8999 88.7663C73.4796 93.7027 65.8814 96.8767 57.8575 97.9742C49.8335 99.0716 41.6621 98.0544 34.1521 95.0233C26.6421 91.9922 20.0539 87.0523 15.0398 80.6926C10.0257 74.3329 6.75954 66.7739 5.56463 58.764L5.36762 57.2702L5.21681 55.771C4.54848 47.764 5.96632 39.7205 9.3321 32.4246C12.6979 25.1287 17.8967 18.8294 24.4218 14.1408C30.9469 9.45228 38.5756 6.53446 46.5641 5.67184C54.5525 4.80922 62.6282 6.03124 70.0038 9.21877ZM52.2015 57.4451C49.4366 57.7662 46.7636 58.6357 44.3389 60.0026C41.9142 61.3696 39.7867 63.2065 38.0807 65.4059C37.6961 65.8873 37.411 66.4404 37.2419 67.033C37.0729 67.6256 37.0234 68.2459 37.0962 68.8578C37.169 69.4698 37.3628 70.0611 37.6662 70.5975C37.9695 71.1339 38.3765 71.6046 38.8634 71.9824C39.3503 72.3601 39.9074 72.6373 40.5024 72.7978C41.0973 72.9583 41.7183 72.999 42.3291 72.9174C42.9399 72.8359 43.5284 72.6337 44.0605 72.3227C44.5925 72.0117 45.0574 71.5981 45.4281 71.1058C46.3757 69.8832 47.5579 68.8619 48.9052 68.1019C50.2526 67.3419 51.7381 66.8585 53.2747 66.6799C54.8112 66.5014 56.368 66.6313 57.8537 67.062C59.3395 67.4928 60.7243 68.2157 61.9271 69.1885C62.8883 69.9427 64.1076 70.2883 65.3216 70.1506C66.5356 70.0129 67.6466 69.403 68.4145 68.4527C69.1824 67.5024 69.5454 66.2881 69.4251 65.0722C69.3047 63.8564 68.7107 62.7368 67.7715 61.9555C65.6066 60.2059 63.1145 58.9059 60.441 58.1314C57.7675 57.3569 54.9663 57.1236 52.2015 57.4451ZM36.1363 39.6507L35.5535 39.7512C34.4463 40.0152 33.4745 40.676 32.822 41.6086C32.1695 42.5411 31.8817 43.6806 32.0131 44.8111C32.1444 45.9416 32.6859 46.9847 33.5349 47.7428C34.3838 48.5009 35.4813 48.9212 36.6195 48.9243L37.1637 48.8938L37.7465 48.7933C38.8536 48.5294 39.8255 47.8685 40.478 46.9359C41.1305 46.0034 41.4183 44.8639 41.2869 43.7334C41.1555 42.6029 40.6141 41.5598 39.7651 40.8017C38.9162 40.0436 37.8186 39.6233 36.6805 39.6202L36.1363 39.6507ZM63.8502 36.43L63.2673 36.5305C62.1602 36.7945 61.1883 37.4554 60.5358 38.3879C59.8833 39.3205 59.5955 40.4599 59.7269 41.5905C59.8583 42.721 60.3997 43.7641 61.2487 44.5222C62.0977 45.2802 63.1952 45.7006 64.3333 45.7037L64.8775 45.6732L65.4603 45.5727C66.5675 45.3087 67.5393 44.6478 68.1918 43.7153C68.8443 42.7827 69.1321 41.6433 69.0007 40.5127C68.8694 39.3822 68.3279 38.3391 67.479 37.5811C66.63 36.823 65.5325 36.4026 64.3943 36.3995L63.8502 36.43Z" fill="url(#paint0_linear_1837_3073)"/>
</g>
<defs>
<linearGradient id="paint0_linear_1837_3073" x1="46.1892" y1="5.71386" x2="56.9245" y2="98.0922" gradientUnits="userSpaceOnUse">
<stop stop-color="#FBE5DE"/>
<stop offset="1" stop-color="#F9C9BA"/>
</linearGradient>
</defs>
</svg>
