<svg width="112" height="113" viewBox="0 0 112 113" fill="none" xmlns="http://www.w3.org/2000/svg">
<rect x="24" y="38" width="56" height="43" fill="#B1EECF"/>
<path d="M79.2509 14.6995C86.4152 19.0537 92.375 25.3021 96.5402 32.826C100.705 40.3498 102.932 48.8883 102.998 57.5962C103.065 66.304 100.97 74.8792 96.9212 82.4729C92.872 90.0667 87.0089 96.4155 79.9123 100.891C72.8157 105.367 64.7317 107.814 56.4606 107.99C48.1894 108.166 40.018 106.065 32.7552 101.896C25.4924 97.726 19.39 91.6321 15.0523 84.217C10.7145 76.802 8.2917 68.323 8.02375 59.6195L8 57.9995L8.02375 56.3795C8.28977 47.7444 10.6769 39.3293 14.9524 31.9544C19.2279 24.5796 25.2458 18.4967 32.4195 14.2989C39.5933 10.101 47.6779 7.93145 55.8854 8.00165C64.0928 8.07186 72.1429 10.3795 79.2509 14.6995ZM69.7508 67.9995H41.2504L40.6947 68.0345C39.5402 68.179 38.4761 68.7642 37.7041 69.6793C36.932 70.5943 36.5056 71.7756 36.5056 72.9995C36.5056 74.2233 36.932 75.4046 37.7041 76.3196C38.4761 77.2347 39.5402 77.8199 40.6947 77.9644L41.2504 77.9995H69.7508L70.3065 77.9644C71.461 77.8199 72.5251 77.2347 73.2971 76.3196C74.0691 75.4046 74.4955 74.2233 74.4955 72.9995C74.4955 71.7756 74.0691 70.5943 73.2971 69.6793C72.5251 68.7642 71.461 68.179 70.3065 68.0345L69.7508 67.9995ZM41.2979 42.9995L40.6947 43.0345C39.5402 43.179 38.4761 43.7642 37.7041 44.6793C36.932 45.5943 36.5056 46.7756 36.5056 47.9995C36.5056 49.2233 36.932 50.4046 37.7041 51.3196C38.4761 52.2347 39.5402 52.8199 40.6947 52.9645L41.2504 52.9995L41.8537 52.9645C43.0082 52.8199 44.0722 52.2347 44.8442 51.3196C45.6163 50.4046 46.0427 49.2233 46.0427 47.9995C46.0427 46.7756 45.6163 45.5943 44.8442 44.6793C44.0722 43.7642 43.0082 43.179 41.8537 43.0345L41.2979 42.9995ZM69.7983 42.9995L69.195 43.0345C68.0405 43.179 66.9765 43.7642 66.2044 44.6793C65.4324 45.5943 65.006 46.7756 65.006 47.9995C65.006 49.2233 65.4324 50.4046 66.2044 51.3196C66.9765 52.2347 68.0405 52.8199 69.195 52.9645L69.7508 52.9995L70.354 52.9645C71.5085 52.8199 72.5726 52.2347 73.3446 51.3196C74.1166 50.4046 74.543 49.2233 74.543 47.9995C74.543 46.7756 74.1166 45.5943 73.3446 44.6793C72.5726 43.7642 71.5085 43.179 70.354 43.0345L69.7983 42.9995Z" fill="#A1EBC5"/>
<path d="M77.7509 14.4985C84.7644 18.7221 90.5987 24.783 94.6762 32.0812C98.7537 39.3793 100.933 47.6617 100.998 56.1083C101.064 64.5549 99.0131 72.8728 95.0492 80.2387C91.0852 87.6046 85.3455 93.763 78.3983 98.1043C71.4511 102.446 63.5373 104.819 55.4403 104.99C47.3433 105.161 39.3439 103.123 32.234 99.0788C25.1241 95.0343 19.1502 89.1231 14.9038 81.9305C10.6573 74.7379 8.28556 66.5133 8.02325 58.0709L8 56.4995L8.02325 54.9281C8.28367 46.5521 10.6205 38.3894 14.806 31.2358C18.9915 24.0822 24.8827 18.1818 31.9054 14.1099C38.9281 10.038 46.8426 7.9335 54.8773 8.0016C62.9119 8.0697 70.7925 10.3081 77.7509 14.4985ZM68.4507 66.1995H40.5504L40.0063 66.2334C38.8762 66.3736 37.8345 66.9413 37.0787 67.8289C36.323 68.7165 35.9055 69.8624 35.9055 71.0495C35.9055 72.2366 36.323 73.3824 37.0787 74.27C37.8345 75.1576 38.8762 75.7253 40.0063 75.8655L40.5504 75.8995H68.4507L68.9948 75.8655C70.125 75.7253 71.1666 75.1576 71.9224 74.27C72.6782 73.3824 73.0956 72.2366 73.0956 71.0495C73.0956 69.8624 72.6782 68.7165 71.9224 67.8289C71.1666 66.9413 70.125 66.3736 68.9948 66.2334L68.4507 66.1995ZM40.5969 41.9495L40.0063 41.9834C38.8762 42.1236 37.8345 42.6913 37.0787 43.5789C36.323 44.4665 35.9055 45.6124 35.9055 46.7995C35.9055 47.9866 36.323 49.1324 37.0787 50.02C37.8345 50.9076 38.8762 51.4753 40.0063 51.6155L40.5504 51.6495L41.141 51.6155C42.2712 51.4753 43.3128 50.9076 44.0686 50.02C44.8244 49.1324 45.2418 47.9866 45.2418 46.7995C45.2418 45.6124 44.8244 44.4665 44.0686 43.5789C43.3128 42.6913 42.2712 42.1236 41.141 41.9834L40.5969 41.9495ZM68.4972 41.9495L67.9067 41.9834C66.7765 42.1236 65.7349 42.6913 64.9791 43.5789C64.2233 44.4665 63.8059 45.6124 63.8059 46.7995C63.8059 47.9866 64.2233 49.1324 64.9791 50.02C65.7349 50.9076 66.7765 51.4753 67.9067 51.6155L68.4507 51.6495L69.0413 51.6155C70.1715 51.4753 71.2131 50.9076 71.9689 50.02C72.7247 49.1324 73.1421 47.9866 73.1421 46.7995C73.1421 45.6124 72.7247 44.4665 71.9689 43.5789C71.2131 42.6913 70.1715 42.1236 69.0413 41.9834L68.4972 41.9495Z" fill="url(#paint0_linear_3854_17116)"/>
<defs>
<linearGradient id="paint0_linear_3854_17116" x1="54.5" y1="8" x2="54.5" y2="105" gradientUnits="userSpaceOnUse">
<stop stop-color="#C9F4DE"/>
<stop offset="0.0001" stop-color="#E6FDF1"/>
</linearGradient>
</defs>
</svg>
