<svg width="20" height="22" viewBox="0 0 20 22" fill="none" xmlns="http://www.w3.org/2000/svg">
<g id="icon_home_crowd_middle">
<path id="Vector" fill-rule="evenodd" clip-rule="evenodd" d="M4.13735 0C3.97009 3.51131e-05 3.80668 0.0452419 3.66816 0.129797C3.52963 0.214351 3.42235 0.33438 3.36013 0.474421L2.57632 2.24192C2.28311 2.90312 2.76717 3.6473 3.49047 3.6473H16.5095C17.2328 3.6473 17.7169 2.90312 17.4237 2.24192L16.6399 0.474421C16.5776 0.33438 16.4704 0.214351 16.3318 0.129797C16.1933 0.0452419 16.0299 3.51131e-05 15.8626 0L4.13735 0ZM3.30988 20.5119L2.24628 14.2798C2.14205 13.6691 2.61251 13.1116 3.23202 13.1116H16.768C17.3875 13.1116 17.8579 13.6691 17.7537 14.2798L16.6901 20.5119C16.6597 20.6902 16.5596 20.8528 16.4078 20.9703C16.256 21.0878 16.0627 21.1525 15.8626 21.1525H4.13735C3.93734 21.1525 3.74397 21.0878 3.5922 20.9703C3.44043 20.8528 3.34028 20.6902 3.30988 20.5119ZM1.8191 5.53441H18.1826C19.1876 5.53441 20 6.17201 20 6.95768V9.80118C20 10.5868 19.1859 11.2214 18.1826 11.2214H1.81742C0.812395 11.2214 0 10.5868 0 9.80118L0 6.95768C0 6.17201 0.815745 5.53441 1.8191 5.53441Z" fill="url(#paint0_linear_1364_20128)"/>
</g>
<defs>
<linearGradient id="paint0_linear_1364_20128" x1="10" y1="0" x2="10" y2="21.1525" gradientUnits="userSpaceOnUse">
<stop stop-color="#FBF8B0"/>
<stop offset="1" stop-color="#FFE350"/>
</linearGradient>
</defs>
</svg>
