<svg width="381" height="70" viewBox="0 0 381 70" fill="none" xmlns="http://www.w3.org/2000/svg">
<g filter="url(#filter0_d_3854_17134)">
<rect x="10" y="6" width="361" height="50" rx="12" fill="#F5F4F3"/>
<path d="M42.244 30.164H44.212V31.316H35.296V30.164H36.904V26.168H35.488V25.016H44.02V26.168H42.592V28.016C42.592 28.796 42.484 29.66 42.244 30.164ZM38.224 26.168V30.164H40.984C41.212 29.66 41.284 28.844 41.284 28.136V26.168H38.224ZM34.924 35.228V34.1H44.584V35.228H34.924ZM48.3155 29.036V30.812H55.6715V31.94H51.9515V34.1H56.1035V35.228H46.4435V34.1H50.6555V31.94H47.0075V27.908H54.2315V26.168H47.0075V25.016H55.5395V29.036H48.3155ZM63.2671 29.768H57.9991V28.7H59.1391V26.036H58.1311V24.956H64.3351V26.036H63.3031V27.344C63.3031 27.812 63.2191 28.364 63.1111 28.7H63.6031C64.5751 28.7 65.2591 28.544 65.7391 28.196V24.824H67.0471V30.08H65.7391V29.204C65.2951 29.6 64.5031 29.768 63.2671 29.768ZM60.4111 28.7H61.8631C61.9711 28.34 62.0311 27.848 62.0311 27.416V26.036H60.4111V28.7ZM60.2191 33.812V34.76H67.1791V35.816H58.9111V32.78H65.7391V31.808H58.9111V30.764H67.0471V33.812H60.2191ZM75.9508 32.264C75.4588 33.512 74.1868 34.52 72.8068 34.976V33.776C74.1148 33.176 75.2908 32.072 75.2908 29.036V24.956H76.5868V29.036C76.5868 32.072 77.7868 33.164 79.0828 33.776V34.976C77.7028 34.508 76.4428 33.5 75.9508 32.264ZM81.7708 24.824V29.264H83.4748V30.404H81.7708V35.708H80.4628V24.824H81.7708ZM84.7823 26.084V24.956H90.3983V26.084H88.2383V27.056C88.2383 28.916 89.2463 29.768 90.6023 30.08V31.232C89.2943 31.004 88.1783 30.32 87.6143 29.396C87.0503 30.332 85.9103 31.16 84.5903 31.364V30.212C85.9703 29.912 86.9423 28.94 86.9423 27.056V26.084H84.7823ZM93.5783 32.444H92.2703V24.824H93.5783V32.444ZM93.7703 35.756H85.4423V32.06H86.7503V34.628H93.7703V35.756ZM100.586 29.972C100.586 28.244 100.466 26.984 100.01 26.408C99.7938 26.108 99.4578 25.952 99.0618 25.952C98.6778 25.952 98.3418 26.108 98.1138 26.408C97.6818 26.984 97.5498 28.244 97.5498 29.972C97.5498 31.7 97.6818 32.96 98.1138 33.548C98.3418 33.824 98.6778 33.98 99.0618 33.98C99.4578 33.98 99.7938 33.824 100.01 33.548C100.466 32.96 100.586 31.7 100.586 29.972ZM96.2538 29.972C96.2538 28.004 96.4458 26.528 97.1418 25.676C97.5858 25.124 98.2578 24.824 99.0618 24.824C99.8778 24.824 100.538 25.124 100.994 25.676C101.69 26.528 101.882 28.004 101.882 29.972C101.882 31.94 101.69 33.416 100.994 34.268C100.538 34.82 99.8778 35.096 99.0618 35.096C98.2578 35.096 97.5858 34.82 97.1418 34.268C96.4458 33.416 96.2538 31.94 96.2538 29.972ZM105.074 24.824V35.708H103.766V24.824H105.074ZM111.314 26.084V24.956H116.93V26.084H114.77V26.492C114.77 28.34 115.778 29.216 117.134 29.516V30.668C115.826 30.44 114.71 29.756 114.146 28.832C113.582 29.768 112.442 30.596 111.122 30.812V29.648C112.502 29.348 113.474 28.376 113.474 26.492V26.084H111.314ZM120.11 31.028H118.802V28.244H116.558V27.128H118.802V24.824H120.11V31.028ZM116.09 35.96C114.842 35.96 113.606 35.792 112.778 35.276C112.202 34.916 111.83 34.376 111.83 33.644C111.83 32.912 112.202 32.372 112.778 32.012C113.606 31.508 114.842 31.328 116.09 31.328C117.338 31.328 118.586 31.508 119.402 32.012C119.978 32.372 120.362 32.912 120.362 33.644C120.362 34.376 119.978 34.916 119.402 35.276C118.586 35.792 117.338 35.96 116.09 35.96ZM116.09 32.444C115.106 32.444 114.146 32.564 113.594 32.9C113.306 33.092 113.126 33.332 113.126 33.644C113.126 33.956 113.306 34.196 113.594 34.376C114.146 34.712 115.106 34.844 116.09 34.844C117.086 34.844 118.046 34.712 118.586 34.376C118.874 34.196 119.054 33.956 119.054 33.644C119.054 33.332 118.874 33.092 118.586 32.9C118.046 32.564 117.086 32.444 116.09 32.444ZM126.037 24.896V26.24C126.037 28.124 127.069 29.096 128.461 29.516V30.668C127.093 30.38 125.953 29.612 125.389 28.7C124.873 29.648 123.721 30.464 122.305 30.8V29.648C123.733 29.192 124.741 28.076 124.741 26.24V24.896H126.037ZM131.341 24.824V27.272H132.925V28.412H131.341V31.028H130.033V24.824H131.341ZM123.169 33.644C123.169 32.984 123.481 32.48 123.973 32.108C124.753 31.556 125.977 31.328 127.393 31.328C128.797 31.328 130.033 31.556 130.801 32.108C131.293 32.48 131.605 32.984 131.605 33.644C131.605 34.316 131.293 34.82 130.801 35.192C130.033 35.744 128.797 35.96 127.393 35.96C125.977 35.96 124.753 35.744 123.973 35.192C123.481 34.82 123.169 34.316 123.169 33.644ZM124.477 33.644C124.477 33.944 124.633 34.196 124.921 34.388C125.401 34.712 126.277 34.844 127.393 34.844C128.497 34.844 129.373 34.712 129.877 34.388C130.153 34.196 130.297 33.944 130.297 33.644C130.297 33.344 130.153 33.092 129.877 32.9C129.373 32.588 128.497 32.444 127.393 32.444C126.277 32.444 125.401 32.588 124.921 32.9C124.633 33.092 124.477 33.344 124.477 33.644ZM134.353 26.084V24.956H139.969V26.084H137.809V26.624C137.809 28.472 138.817 29.348 140.173 29.648V30.8C138.865 30.572 137.749 29.888 137.185 28.964C136.621 29.9 135.481 30.716 134.161 30.944V29.768C135.541 29.48 136.513 28.496 136.513 26.624V26.084H134.353ZM143.149 31.112H141.841V28.316H139.597V27.188H141.841V24.824H143.149V31.112ZM141.841 35.888V32.96H134.881V31.82H143.149V35.888H141.841ZM145.908 28.232C145.908 27.164 146.364 26.264 147.132 25.712C147.924 25.136 149.064 24.896 150.42 24.896C151.788 24.896 152.916 25.136 153.72 25.712C154.476 26.264 154.944 27.164 154.944 28.232C154.944 29.288 154.476 30.176 153.72 30.728C152.916 31.316 151.788 31.556 150.42 31.556C149.064 31.556 147.924 31.316 147.132 30.728C146.364 30.176 145.908 29.288 145.908 28.232ZM147.216 28.232C147.216 28.868 147.468 29.408 147.912 29.756C148.464 30.176 149.328 30.416 150.42 30.416C151.524 30.416 152.388 30.176 152.94 29.756C153.384 29.408 153.636 28.868 153.636 28.232C153.636 27.572 153.384 27.032 152.94 26.684C152.388 26.264 151.524 26.036 150.42 26.036C149.328 26.036 148.464 26.264 147.912 26.684C147.468 27.032 147.216 27.572 147.216 28.232ZM145.584 35.228V34.1H155.244V35.228H145.584ZM158.976 29.036V30.812H166.332V31.94H162.612V34.1H166.764V35.228H157.104V34.1H161.316V31.94H157.668V27.908H164.892V26.168H157.668V25.016H166.2V29.036H158.976ZM172.259 27.56C172.259 26.576 172.631 25.832 173.231 25.352C173.723 24.968 174.371 24.752 175.115 24.752C175.871 24.752 176.519 24.968 176.999 25.352C177.491 25.736 177.815 26.288 177.923 26.996H179.891V24.824H181.199V30.572H179.891V28.112H177.935C177.827 28.832 177.491 29.396 176.999 29.768C176.519 30.164 175.871 30.38 175.115 30.38C174.371 30.38 173.723 30.164 173.231 29.768C172.631 29.3 172.259 28.556 172.259 27.56ZM173.531 27.56C173.531 28.124 173.723 28.592 174.059 28.868C174.323 29.12 174.695 29.252 175.115 29.252C175.535 29.252 175.907 29.12 176.183 28.868C176.519 28.592 176.699 28.124 176.699 27.56C176.699 26.996 176.519 26.552 176.183 26.252C175.907 26.012 175.535 25.88 175.115 25.88C174.695 25.88 174.323 26.012 174.059 26.252C173.723 26.552 173.531 26.996 173.531 27.56ZM179.891 32.42V31.148H181.199V35.816H173.063V31.148H174.371V32.42H179.891ZM179.891 33.536H174.371V34.712H179.891V33.536ZM186.647 34.976H183.935V25.016H187.835V26.168H185.207V33.836H186.719C187.343 33.836 187.943 33.8 188.423 33.632V34.712C187.955 34.904 187.319 34.976 186.647 34.976ZM190.595 35.576H189.323V30.308H187.199V29.168H189.323V24.896H190.595V35.576ZM192.863 35.708H191.591V24.824H192.863V35.708ZM199.726 29.972C199.726 28.244 199.606 26.984 199.15 26.408C198.934 26.108 198.598 25.952 198.202 25.952C197.818 25.952 197.482 26.108 197.254 26.408C196.822 26.984 196.69 28.244 196.69 29.972C196.69 31.7 196.822 32.96 197.254 33.548C197.482 33.824 197.818 33.98 198.202 33.98C198.598 33.98 198.934 33.824 199.15 33.548C199.606 32.96 199.726 31.7 199.726 29.972ZM195.394 29.972C195.394 28.004 195.586 26.528 196.282 25.676C196.726 25.124 197.398 24.824 198.202 24.824C199.018 24.824 199.678 25.124 200.134 25.676C200.83 26.528 201.022 28.004 201.022 29.972C201.022 31.94 200.83 33.416 200.134 34.268C199.678 34.82 199.018 35.096 198.202 35.096C197.398 35.096 196.726 34.82 196.282 34.268C195.586 33.416 195.394 31.94 195.394 29.972ZM204.214 24.824V35.708H202.906V24.824H204.214ZM215.77 26.168H208.546V27.968H215.65V29.108H208.546V30.956H215.902V32.084H207.238V25.016H215.77V26.168ZM206.674 35.228V34.1H216.334V35.228H206.674ZM224.206 26.168H219.994V30.02H224.338V31.148H222.166V33.968H223.63C224.614 33.968 225.442 33.824 225.946 33.404V24.824H227.254V35.708H225.946V34.472C225.478 34.916 224.494 35.084 223.294 35.084H218.23V33.968H220.87V31.148H218.686V25.016H224.206V26.168ZM229.857 27.632C229.857 26.624 230.181 25.856 230.769 25.364C231.261 24.968 231.933 24.752 232.713 24.752C233.505 24.752 234.165 24.968 234.657 25.364C235.137 25.76 235.437 26.336 235.533 27.08H237.489V24.824H238.797V30.956H237.489V28.208H235.533C235.425 28.928 235.125 29.492 234.657 29.888C234.165 30.296 233.505 30.5 232.713 30.5C231.933 30.5 231.261 30.296 230.769 29.888C230.181 29.396 229.857 28.628 229.857 27.632ZM231.129 27.632C231.129 28.232 231.309 28.7 231.633 29C231.909 29.24 232.269 29.384 232.713 29.384C233.157 29.384 233.529 29.24 233.793 29C234.117 28.7 234.297 28.232 234.297 27.632C234.297 27.032 234.117 26.564 233.793 26.264C233.529 26.012 233.157 25.88 232.713 25.88C232.269 25.88 231.909 26.012 231.633 26.264C231.309 26.564 231.129 27.032 231.129 27.632ZM234.765 35.828C233.997 35.54 233.181 34.868 232.785 34.172C232.329 34.892 231.273 35.576 230.181 35.828V34.688C231.297 34.304 232.113 33.392 232.113 31.928V31.544H233.421V31.928C233.421 33.188 234.009 34.1 234.765 34.604C235.509 34.1 236.133 33.188 236.133 31.928V31.544H237.429V31.928C237.429 33.392 238.221 34.292 239.361 34.688V35.828C238.257 35.576 237.201 34.904 236.745 34.172C236.361 34.868 235.581 35.516 234.765 35.828ZM245.805 29.972C245.805 28.244 245.685 26.984 245.229 26.408C245.013 26.108 244.677 25.952 244.281 25.952C243.897 25.952 243.561 26.108 243.333 26.408C242.901 26.984 242.769 28.244 242.769 29.972C242.769 31.7 242.901 32.96 243.333 33.548C243.561 33.824 243.897 33.98 244.281 33.98C244.677 33.98 245.013 33.824 245.229 33.548C245.685 32.96 245.805 31.7 245.805 29.972ZM241.473 29.972C241.473 28.004 241.665 26.528 242.361 25.676C242.805 25.124 243.477 24.824 244.281 24.824C245.097 24.824 245.757 25.124 246.213 25.676C246.813 26.408 247.041 27.596 247.089 29.156H248.985V24.824H250.293V35.708H248.985V30.284H247.101C247.077 32.096 246.873 33.464 246.213 34.268C245.757 34.82 245.097 35.096 244.281 35.096C243.477 35.096 242.805 34.82 242.361 34.268C241.665 33.416 241.473 31.94 241.473 29.972ZM253.076 28.148C253.076 27.152 253.472 26.384 254.144 25.844C254.948 25.196 256.148 24.896 257.588 24.896C259.04 24.896 260.24 25.196 261.044 25.844C261.704 26.384 262.112 27.152 262.112 28.148C262.112 29.168 261.704 29.924 261.044 30.464C260.816 30.644 260.552 30.8 260.264 30.932V34.1H262.412V35.228H252.752V34.1H254.972V30.956C254.66 30.824 254.384 30.656 254.144 30.464C253.472 29.924 253.076 29.168 253.076 28.148ZM258.956 31.304C258.536 31.376 258.08 31.412 257.588 31.412C257.12 31.412 256.676 31.376 256.268 31.316V34.1H258.956V31.304ZM254.384 28.148C254.384 28.784 254.624 29.252 255.056 29.6C255.62 30.068 256.508 30.272 257.588 30.272C258.668 30.272 259.568 30.068 260.132 29.6C260.564 29.252 260.804 28.784 260.804 28.148C260.804 27.536 260.564 27.056 260.132 26.696C259.568 26.24 258.668 26.036 257.588 26.036C256.508 26.036 255.62 26.24 255.056 26.696C254.624 27.056 254.384 27.536 254.384 28.148ZM265.94 33.392V34.988H264.452V33.392H265.94Z" fill="#3D3D3D"/>
<rect x="327.379" y="22.1055" width="16.0789" height="19.2248" transform="rotate(-10.177 327.379 22.1055)" fill="#ACAFF4"/>
<path d="M346.523 16.2715C349.08 17.7478 351.207 19.8664 352.694 22.4174C354.18 24.9684 354.975 27.8634 354.999 30.8158C355.023 33.7683 354.275 36.6758 352.83 39.2504C351.385 41.8251 349.292 43.9778 346.759 45.4952C344.226 47.0127 341.341 47.8423 338.389 47.9021C335.437 47.9618 332.521 47.2496 329.929 45.8358C327.337 44.4221 325.159 42.3559 323.611 39.8418C322.063 37.3277 321.198 34.4528 321.102 31.5019L321.094 30.9526L321.102 30.4033C321.197 27.4756 322.049 24.6224 323.575 22.1219C325.101 19.6214 327.249 17.559 329.809 16.1357C332.369 14.7124 335.255 13.9768 338.184 14.0006C341.113 14.0244 343.986 14.8068 346.523 16.2715ZM343.472 34.828C343.151 34.5133 342.718 34.339 342.268 34.3435C341.819 34.3479 341.389 34.5307 341.075 34.8517C340.68 35.2546 340.209 35.5747 339.689 35.7932C339.169 36.0117 338.611 36.1243 338.047 36.1243C337.483 36.1243 336.924 36.0117 336.405 35.7932C335.885 35.5747 335.414 35.2546 335.019 34.8517C334.703 34.5381 334.276 34.3617 333.83 34.3604C333.385 34.3592 332.957 34.5333 332.639 34.8451C332.321 35.157 332.138 35.5815 332.13 36.0268C332.123 36.4722 332.291 36.9026 332.598 37.2251C333.308 37.9499 334.156 38.5257 335.092 38.9188C336.027 39.3119 337.032 39.5143 338.047 39.5143C339.062 39.5143 340.066 39.3119 341.002 38.9188C341.937 38.5257 342.785 37.9499 343.495 37.2251C343.81 36.9041 343.984 36.4712 343.98 36.0216C343.975 35.5721 343.793 35.1427 343.472 34.828ZM332.978 25.8668L332.762 25.8786C332.333 25.9297 331.94 26.1426 331.663 26.4739C331.385 26.8053 331.245 27.23 331.27 27.6614C331.296 28.0927 331.485 28.4981 331.799 28.7948C332.113 29.0914 332.529 29.2568 332.961 29.2573L333.176 29.2454C333.605 29.1944 333.999 28.9815 334.276 28.6501C334.553 28.3188 334.694 27.894 334.668 27.4627C334.643 27.0313 334.454 26.6259 334.14 26.3293C333.825 26.0327 333.41 25.8672 332.978 25.8668ZM343.15 25.8668L342.934 25.8786C342.505 25.9297 342.112 26.1426 341.834 26.4739C341.557 26.8053 341.417 27.23 341.442 27.6614C341.467 28.0927 341.657 28.4981 341.971 28.7948C342.285 29.0914 342.701 29.2568 343.133 29.2573L343.348 29.2454C343.777 29.1944 344.17 28.9815 344.448 28.6501C344.725 28.3188 344.865 27.894 344.84 27.4627C344.815 27.0313 344.626 26.6259 344.311 26.3293C343.997 26.0327 343.582 25.8672 343.15 25.8668Z" fill="#6F74EC"/>
<path d="M345.145 16.2893C347.594 17.6813 349.64 19.6924 351.079 22.1235C352.517 24.5546 353.3 27.3213 353.349 30.1498C353.398 32.9783 352.711 35.7705 351.357 38.25C350.002 40.7295 348.028 42.8103 345.628 44.2864C343.228 45.7624 340.486 46.5827 337.674 46.6658C334.862 46.7489 332.077 46.0921 329.595 44.7604C327.113 43.4286 325.02 41.4681 323.523 39.0729C322.025 36.6777 321.176 33.931 321.059 31.1045L321.046 30.5783L321.049 30.052C321.114 27.246 321.9 24.5049 323.332 22.0958C324.764 19.6867 326.792 17.6919 329.219 16.3058C331.646 14.9196 334.389 14.1895 337.18 14.1867C339.971 14.1838 342.715 14.9082 345.145 16.2893ZM342.401 34.095C342.093 33.7963 341.679 33.6331 341.25 33.6413C340.822 33.6495 340.415 33.8284 340.118 34.1387C339.745 34.5282 339.299 34.839 338.806 35.0529C338.312 35.2669 337.781 35.3796 337.244 35.3845C336.707 35.3895 336.174 35.2865 335.677 35.0817C335.179 34.8769 334.728 34.5744 334.348 34.1919C334.044 33.8942 333.635 33.7289 333.211 33.7316C332.787 33.7343 332.38 33.9049 332.08 34.2065C331.78 34.508 331.61 34.9163 331.606 35.3431C331.603 35.7698 331.767 36.1808 332.062 36.487C332.746 37.1752 333.558 37.7195 334.453 38.0879C335.348 38.4563 336.307 38.6414 337.274 38.6325C338.241 38.6236 339.196 38.4208 340.084 38.036C340.972 37.6512 341.775 37.0921 342.445 36.3914C342.742 36.0811 342.904 35.6648 342.896 35.2341C342.888 34.8035 342.71 34.3937 342.401 34.095ZM332.324 25.6013L332.119 25.6146C331.711 25.6672 331.338 25.8747 331.076 26.1946C330.815 26.5145 330.685 26.9227 330.713 27.3357C330.741 27.7488 330.925 28.1355 331.227 28.4169C331.529 28.6984 331.926 28.8533 332.338 28.8499L332.543 28.8367C332.951 28.784 333.324 28.5765 333.585 28.2566C333.847 27.9367 333.977 27.5286 333.949 27.1155C333.921 26.7025 333.737 26.3157 333.435 26.0343C333.133 25.7528 332.736 25.598 332.324 25.6013ZM342.015 25.5121L341.81 25.5253C341.402 25.578 341.029 25.7854 340.768 26.1053C340.507 26.4252 340.377 26.8334 340.404 27.2465C340.432 27.6595 340.616 28.0463 340.918 28.3277C341.22 28.6091 341.618 28.764 342.029 28.7607L342.234 28.7474C342.643 28.6948 343.016 28.4873 343.277 28.1674C343.538 27.8475 343.668 27.4393 343.64 27.0263C343.612 26.6132 343.429 26.2265 343.127 25.945C342.825 25.6636 342.427 25.5087 342.015 25.5121Z" fill="url(#paint0_linear_3854_17134)"/>
</g>
<defs>
<filter id="filter0_d_3854_17134" x="0" y="0" width="381" height="70" filterUnits="userSpaceOnUse" color-interpolation-filters="sRGB">
<feFlood flood-opacity="0" result="BackgroundImageFix"/>
<feColorMatrix in="SourceAlpha" type="matrix" values="0 0 0 0 0 0 0 0 0 0 0 0 0 0 0 0 0 0 127 0" result="hardAlpha"/>
<feOffset dy="4"/>
<feGaussianBlur stdDeviation="5"/>
<feComposite in2="hardAlpha" operator="out"/>
<feColorMatrix type="matrix" values="0 0 0 0 0 0 0 0 0 0 0 0 0 0 0 0 0 0 0.25 0"/>
<feBlend mode="normal" in2="BackgroundImageFix" result="effect1_dropShadow_3854_17134"/>
<feBlend mode="normal" in="SourceGraphic" in2="effect1_dropShadow_3854_17134" result="shape"/>
</filter>
<linearGradient id="paint0_linear_3854_17134" x1="337.049" y1="14.1873" x2="337.348" y2="46.6721" gradientUnits="userSpaceOnUse">
<stop stop-color="#EBECFF"/>
<stop offset="1" stop-color="#C5C8FF"/>
</linearGradient>
</defs>
</svg>
