<svg width="14" height="15" viewBox="0 0 14 15" fill="none" xmlns="http://www.w3.org/2000/svg">
<g id="icon_home_flat_none">
<path id="Vector" d="M0.154894 1.32921C0.106407 1.37222 0.0674817 1.42543 0.0407571 1.48524C0.0140325 1.54506 0.000132717 1.61008 0 1.6759V14.5408C0 14.6626 0.0470743 14.7794 0.130867 14.8655C0.21466 14.9516 0.328308 15 0.446809 15C0.56531 15 0.678957 14.9516 0.76275 14.8655C0.846543 14.7794 0.893617 14.6626 0.893617 14.5408V11.0801C2.98468 9.33592 4.75702 10.2382 6.80191 11.2768C8.00234 11.889 9.29585 12.5456 10.6743 12.5456C11.6848 12.5456 12.7415 12.1936 13.8436 11.2125C13.8922 11.1698 13.9313 11.1169 13.9583 11.0573C13.9852 10.9978 13.9995 10.933 14 10.8673V1.6759C14.0001 1.58783 13.9755 1.50158 13.9292 1.42745C13.883 1.35332 13.8169 1.29444 13.739 1.25781C13.661 1.22119 13.5745 1.20838 13.4897 1.2209C13.4048 1.23343 13.3253 1.27076 13.2605 1.32845C11.101 3.25092 9.29287 2.33024 7.19809 1.26416C5.12117 0.207266 2.75532 -0.982796 0.154894 1.32921ZM13.1064 10.6507C11.0153 12.3956 9.24298 11.4926 7.19809 10.4533C5.31702 9.49587 3.20883 8.42367 0.893617 9.94893V1.89172C2.98468 0.146806 4.75702 1.04988 6.80191 2.08764C8.68298 3.04505 10.7912 4.11725 13.1064 2.59504V10.6507Z" fill="white"/>
</g>
</svg>
