<svg width="349" height="116" viewBox="0 0 349 116" fill="none" xmlns="http://www.w3.org/2000/svg">
<g filter="url(#filter0_d_1364_20009)">
<rect x="10" y="6" width="329" height="96" rx="16" fill="#4B51E7"/>
</g>
<g clip-path="url(#clip0_1364_20009)">
<rect x="10" y="6" width="329" height="96" rx="16" fill="#DBDDFF"/>
<g filter="url(#filter1_i_1364_20009)">
<path d="M298.375 100.014C298.055 101.182 296.983 101.982 295.772 101.957L278.842 101.603C278.516 101.596 278.193 101.55 277.878 101.465L251.469 94.3027C251.154 94.2174 250.851 94.0939 250.567 93.935L235.807 85.6982C234.746 85.1059 234.225 83.8659 234.546 82.6936C234.931 81.2884 236.38 80.4596 237.786 80.8409L296.519 96.7685C297.929 97.1509 298.76 98.6051 298.375 100.014ZM313.443 57.4781L307.963 55.992C306.71 55.6521 305.971 54.3593 306.313 53.1068C306.656 51.8543 305.917 50.5615 304.664 50.2216L256.074 37.0445C253.945 36.4673 251.751 37.722 251.169 39.8493L246.012 58.6937C244.255 65.1139 245.962 71.6065 250.126 75.8536C250.589 76.3258 250.797 77.0017 250.623 77.6395C250.368 78.5678 250.916 79.5261 251.845 79.778L284.923 88.7483C285.87 89.0052 286.847 88.4468 287.106 87.5001C287.277 86.8766 287.774 86.4016 288.391 86.2099C292.567 84.9133 296.335 82.0237 298.77 78.3434C298.925 78.1094 299.211 77.9964 299.482 78.0699C309.969 80.9137 315.188 72.5781 317.507 65.8936C318.957 62.3863 317.091 58.4673 313.443 57.4781ZM304.686 73.7848C302.514 74.2074 301.198 71.7983 301.782 69.6641L303.397 63.7642C303.979 61.6368 306.173 60.3822 308.302 60.9594L312.201 62.0169C312.657 62.1405 312.989 62.7176 312.989 62.718C312.989 62.718 312.989 62.718 312.989 62.718C312.989 62.7185 313.32 63.2959 313.072 64.2033C310.594 71.1173 307.313 73.2738 304.686 73.7848Z" fill="#4B51E7"/>
</g>
<path d="M233.688 32C233.453 30.6562 232.5 28.9688 230.687 27.6094C229.797 26.9375 228.891 26.5 228 26.3125V25.6562C229.766 25.2344 231.5 24.0469 232.609 22.4375C233.172 21.625 233.531 20.8281 233.688 20H234.344C234.609 21.5781 235.828 23.3281 237.484 24.5C238.297 25.0781 239.141 25.4687 240 25.6562V26.3125C238.266 26.6719 236.25 28.2187 235.25 29.7969C234.75 30.5937 234.453 31.3281 234.344 32H233.688Z" fill="#ACAFF4"/>
<path d="M215.792 48C215.635 47.1042 215 45.9792 213.792 45.0729C213.198 44.625 212.594 44.3333 212 44.2083V43.7708C213.177 43.4896 214.333 42.6979 215.073 41.625C215.448 41.0833 215.688 40.5521 215.792 40H216.229C216.406 41.0521 217.219 42.2188 218.323 43C218.865 43.3854 219.427 43.6458 220 43.7708V44.2083C218.844 44.4479 217.5 45.4792 216.833 46.5312C216.5 47.0625 216.302 47.5521 216.229 48H215.792Z" fill="#ACAFF4"/>
</g>
<defs>
<filter id="filter0_d_1364_20009" x="0" y="0" width="349" height="116" filterUnits="userSpaceOnUse" color-interpolation-filters="sRGB">
<feFlood flood-opacity="0" result="BackgroundImageFix"/>
<feColorMatrix in="SourceAlpha" type="matrix" values="0 0 0 0 0 0 0 0 0 0 0 0 0 0 0 0 0 0 127 0" result="hardAlpha"/>
<feOffset dy="4"/>
<feGaussianBlur stdDeviation="5"/>
<feComposite in2="hardAlpha" operator="out"/>
<feColorMatrix type="matrix" values="0 0 0 0 0 0 0 0 0 0 0 0 0 0 0 0 0 0 0.25 0"/>
<feBlend mode="normal" in2="BackgroundImageFix" result="effect1_dropShadow_1364_20009"/>
<feBlend mode="normal" in="SourceGraphic" in2="effect1_dropShadow_1364_20009" result="shape"/>
</filter>
<filter id="filter1_i_1364_20009" x="234.452" y="36.9041" width="83.5477" height="69.0535" filterUnits="userSpaceOnUse" color-interpolation-filters="sRGB">
<feFlood flood-opacity="0" result="BackgroundImageFix"/>
<feBlend mode="normal" in="SourceGraphic" in2="BackgroundImageFix" result="shape"/>
<feColorMatrix in="SourceAlpha" type="matrix" values="0 0 0 0 0 0 0 0 0 0 0 0 0 0 0 0 0 0 127 0" result="hardAlpha"/>
<feOffset dy="4"/>
<feGaussianBlur stdDeviation="2"/>
<feComposite in2="hardAlpha" operator="arithmetic" k2="-1" k3="1"/>
<feColorMatrix type="matrix" values="0 0 0 0 0.0526743 0 0 0 0 0.165191 0 0 0 0 0.564111 0 0 0 1 0"/>
<feBlend mode="normal" in2="shape" result="effect1_innerShadow_1364_20009"/>
</filter>
<clipPath id="clip0_1364_20009">
<rect width="329" height="96" fill="white" transform="translate(10 6)"/>
</clipPath>
</defs>
</svg>
