<svg width="381" height="70" viewBox="0 0 381 70" fill="none" xmlns="http://www.w3.org/2000/svg">
<g filter="url(#filter0_d_3854_17127)">
<rect x="10" y="6" width="361" height="50" rx="12" fill="#F5F4F3"/>
<path d="M43.948 24.956V29.096H35.572V24.956H43.948ZM36.868 28.004H42.64V26.06H36.868V28.004ZM34.852 31.448V30.32H44.656V31.448H40.528V33.464H39.232V31.448H34.852ZM36.868 32.588V34.628H44.14V35.756H35.572V32.588H36.868ZM46.7435 26.168V25.016H51.1355V26.168H49.5875V29.876C49.5875 32.348 50.2235 33.248 51.2675 33.776V34.976C50.1395 34.58 49.3595 33.824 48.9395 32.96C48.5435 33.824 47.7635 34.58 46.6355 34.964V33.776C47.6555 33.248 48.3155 32.36 48.3155 29.876V26.168H46.7435ZM50.5235 30.2V29.048H52.1315V24.896H53.4035V35.576H52.1315V30.2H50.5235ZM55.6715 35.708H54.3995V24.824H55.6715V35.708ZM62.2351 27.368V26.168H58.2511V25.016H63.5311V27.212C63.5311 31.364 61.9471 34.112 58.1911 35.072V33.836C60.9871 33.032 62.2351 30.776 62.2351 27.368ZM66.7591 24.824V29.264H68.4631V30.404H66.7591V35.708H65.4511V24.824H66.7591ZM75.2668 28.868C74.8468 29.72 73.8388 30.536 72.7828 30.956V29.744C73.7908 29.216 74.6068 28.256 74.6068 26.456V24.896H75.8908V26.42C75.8908 28.22 76.7068 29 77.7028 29.492V30.692C76.6828 30.356 75.7348 29.672 75.2668 28.868ZM78.3868 30.812V24.896H79.6228V27.104H80.9548V24.824H82.2148V31.004H80.9548V28.244H79.6228V30.812H78.3868ZM73.7788 33.704C73.7788 33.02 74.1028 32.528 74.6068 32.18C75.4108 31.628 76.7068 31.424 78.1108 31.424C79.5148 31.424 80.7988 31.628 81.6148 32.18C82.1308 32.528 82.4308 33.02 82.4308 33.704C82.4308 34.376 82.1308 34.868 81.6148 35.228C80.7988 35.768 79.5148 35.96 78.1108 35.96C76.7068 35.96 75.4108 35.768 74.6068 35.228C74.1028 34.868 73.7788 34.376 73.7788 33.704ZM75.0748 33.704C75.0748 33.992 75.2308 34.208 75.4948 34.376C76.0108 34.724 76.9708 34.856 78.1108 34.856C79.2508 34.856 80.1988 34.724 80.7148 34.376C80.9788 34.208 81.1348 33.992 81.1348 33.704C81.1348 33.416 80.9788 33.188 80.7148 33.02C80.1988 32.684 79.2508 32.54 78.1108 32.54C76.9708 32.54 76.0108 32.684 75.4948 33.02C75.2308 33.188 75.0748 33.416 75.0748 33.704ZM88.6463 26.084H84.7823V24.956H89.9423V25.736C89.9423 25.856 89.9423 25.964 89.9303 26.072H92.2703V24.824H93.5783V30.944H92.2703V29.528H89.6303V28.4H92.2703V27.188H89.7983C89.2823 29.552 87.4223 30.644 84.5183 30.932V29.792C87.1463 29.516 88.6463 28.316 88.6463 26.084ZM89.5463 35.828C88.7783 35.54 87.9623 34.868 87.5663 34.172C87.1103 34.892 86.0543 35.576 84.9623 35.828V34.688C86.0783 34.304 86.8943 33.392 86.8943 31.928V31.544H88.2023V31.928C88.2023 33.188 88.7903 34.1 89.5463 34.604C90.2903 34.1 90.9143 33.188 90.9143 31.928V31.544H92.2103V31.928C92.2103 33.392 93.0023 34.292 94.1423 34.688V35.828C93.0383 35.576 91.9823 34.904 91.5263 34.172C91.1423 34.868 90.3623 35.516 89.5463 35.828ZM100.586 29.972C100.586 28.244 100.466 26.984 100.01 26.408C99.7938 26.108 99.4578 25.952 99.0618 25.952C98.6778 25.952 98.3418 26.108 98.1138 26.408C97.6818 26.984 97.5498 28.244 97.5498 29.972C97.5498 31.7 97.6818 32.96 98.1138 33.548C98.3418 33.824 98.6778 33.98 99.0618 33.98C99.4578 33.98 99.7938 33.824 100.01 33.548C100.466 32.96 100.586 31.7 100.586 29.972ZM96.2538 29.972C96.2538 28.004 96.4458 26.528 97.1418 25.676C97.5858 25.124 98.2578 24.824 99.0618 24.824C99.8778 24.824 100.538 25.124 100.994 25.676C101.594 26.408 101.822 27.596 101.87 29.156H103.766V24.824H105.074V35.708H103.766V30.284H101.882C101.858 32.096 101.654 33.464 100.994 34.268C100.538 34.82 99.8778 35.096 99.0618 35.096C98.2578 35.096 97.5858 34.82 97.1418 34.268C96.4458 33.416 96.2538 31.94 96.2538 29.972ZM107.857 28.148C107.857 27.152 108.253 26.384 108.925 25.844C109.729 25.196 110.929 24.896 112.369 24.896C113.821 24.896 115.021 25.196 115.825 25.844C116.485 26.384 116.893 27.152 116.893 28.148C116.893 29.168 116.485 29.924 115.825 30.464C115.597 30.644 115.333 30.8 115.045 30.932V34.1H117.193V35.228H107.533V34.1H109.753V30.956C109.441 30.824 109.165 30.656 108.925 30.464C108.253 29.924 107.857 29.168 107.857 28.148ZM113.737 31.304C113.317 31.376 112.861 31.412 112.369 31.412C111.901 31.412 111.457 31.376 111.049 31.316V34.1H113.737V31.304ZM109.165 28.148C109.165 28.784 109.405 29.252 109.837 29.6C110.401 30.068 111.289 30.272 112.369 30.272C113.449 30.272 114.349 30.068 114.913 29.6C115.345 29.252 115.585 28.784 115.585 28.148C115.585 27.536 115.345 27.056 114.913 26.696C114.349 26.24 113.449 26.036 112.369 26.036C111.289 26.036 110.401 26.24 109.837 26.696C109.405 27.056 109.165 27.536 109.165 28.148ZM120.721 33.392V34.988H119.233V33.392H120.721ZM131.241 34.976H126.525V25.016H131.769V26.168H127.821V33.836H131.48C132.477 33.836 133.269 33.62 133.725 33.212V24.824H135.033V29.264H136.737V30.404H135.033V35.708H133.725V34.292C133.281 34.724 132.345 34.976 131.241 34.976ZM140.792 32.264C140.312 33.512 139.04 34.52 137.648 34.976V33.776C138.956 33.176 140.144 32.072 140.144 29.036V24.956H141.44V29.036C141.44 32.072 142.628 33.164 143.924 33.776V34.976C142.556 34.508 141.284 33.5 140.792 32.264ZM146.816 24.824V35.708H145.508V24.824H146.816ZM155.804 32.264C155.324 33.512 154.052 34.52 152.66 34.976V33.776C153.968 33.176 155.156 32.072 155.156 29.036V24.956H156.452V29.036C156.452 32.072 157.64 33.164 158.936 33.776V34.976C157.568 34.508 156.296 33.5 155.804 32.264ZM161.828 24.824V35.708H160.52V24.824H161.828ZM173.383 26.168H166.159V29.864H173.467V31.004H169.795V34.1H173.947V35.228H164.287V34.1H168.499V31.004H164.851V25.016H173.383V26.168ZM178.087 26.072V24.512H179.395V26.072H181.855V27.2H175.651V26.072H178.087ZM177.391 31.616C177.391 32.648 177.559 33.38 177.967 33.764C178.183 33.956 178.459 34.064 178.795 34.064C179.119 34.064 179.371 33.956 179.575 33.776C180.007 33.392 180.199 32.648 180.199 31.616C180.199 30.5 179.971 29.756 179.527 29.396C179.335 29.24 179.095 29.168 178.795 29.168C178.459 29.168 178.195 29.252 177.991 29.444C177.571 29.828 177.391 30.548 177.391 31.616ZM176.095 31.616C176.095 30.164 176.467 29.096 177.223 28.508C177.643 28.208 178.159 28.04 178.795 28.04C179.347 28.04 179.827 28.16 180.211 28.424C181.051 28.976 181.495 30.092 181.495 31.616C181.495 33.14 181.063 34.232 180.247 34.784C179.851 35.048 179.371 35.18 178.795 35.18C178.183 35.18 177.667 35.024 177.259 34.724C176.479 34.16 176.095 33.092 176.095 31.616ZM184.603 24.824V29.264H186.307V30.404H184.603V35.708H183.295V24.824H184.603ZM189.534 32.636C189.102 33.596 188.19 34.472 187.086 34.976V33.764C188.178 33.104 188.886 32 188.886 29.588V24.956H190.17V29.588C190.17 32.012 190.878 33.092 191.982 33.776V34.976C190.878 34.484 189.978 33.584 189.534 32.636ZM194.154 35.576H192.882V29.912H191.238V28.784H192.882V24.896H194.154V35.576ZM196.554 35.708H195.282V24.824H196.554V35.708ZM199.17 28.148C199.17 27.152 199.566 26.384 200.238 25.844C201.042 25.196 202.242 24.896 203.682 24.896C205.134 24.896 206.334 25.196 207.138 25.844C207.798 26.384 208.206 27.152 208.206 28.148C208.206 29.168 207.798 29.924 207.138 30.464C206.91 30.644 206.646 30.8 206.358 30.932V34.1H208.506V35.228H198.846V34.1H201.066V30.956C200.754 30.824 200.478 30.656 200.238 30.464C199.566 29.924 199.17 29.168 199.17 28.148ZM205.05 31.304C204.63 31.376 204.174 31.412 203.682 31.412C203.214 31.412 202.77 31.376 202.362 31.316V34.1H205.05V31.304ZM200.478 28.148C200.478 28.784 200.718 29.252 201.15 29.6C201.714 30.068 202.602 30.272 203.682 30.272C204.762 30.272 205.662 30.068 206.226 29.6C206.658 29.252 206.898 28.784 206.898 28.148C206.898 27.536 206.658 27.056 206.226 26.696C205.662 26.24 204.762 26.036 203.682 26.036C202.602 26.036 201.714 26.24 201.15 26.696C200.718 27.056 200.478 27.536 200.478 28.148ZM212.033 33.392V34.988H210.545V33.392H212.033Z" fill="#3D3D3D"/>
<rect x="328" y="23" width="16" height="18" fill="#F6B19B"/>
<path d="M346.25 15.3448C348.89 16.8688 351.086 19.0557 352.62 21.6891C354.155 24.3224 354.975 27.3109 354.999 30.3587C355.024 33.4064 354.252 36.4077 352.76 39.0655C351.269 41.7233 349.109 43.9454 346.494 45.5119C343.879 47.0783 340.901 47.9347 337.854 47.9964C334.807 48.0581 331.796 47.3228 329.12 45.8635C326.445 44.4041 324.196 42.2712 322.598 39.676C321 37.0807 320.107 34.1131 320.009 31.0668L320 30.4998L320.009 29.9328C320.107 26.9105 320.986 23.9652 322.561 21.384C324.137 18.8029 326.354 16.6739 328.997 15.2046C331.64 13.7354 334.618 12.976 337.642 13.0006C340.666 13.0251 343.632 13.8328 346.25 15.3448ZM337.5 32.5998C336.453 32.5997 335.416 32.8086 334.45 33.2143C333.484 33.62 332.609 34.2142 331.876 34.9623C331.711 35.1256 331.58 35.32 331.491 35.5341C331.402 35.7483 331.357 35.9781 331.358 36.21C331.358 36.4419 331.405 36.6714 331.495 36.8851C331.585 37.0988 331.717 37.2924 331.883 37.4548C332.048 37.6171 332.244 37.745 332.46 37.8308C332.675 37.9167 332.906 37.9589 333.137 37.9549C333.369 37.9509 333.598 37.9009 333.811 37.8078C334.023 37.7146 334.215 37.5802 334.375 37.4123C334.782 36.9964 335.268 36.666 335.805 36.4404C336.342 36.2148 336.918 36.0987 337.5 36.0987C338.082 36.0987 338.659 36.2148 339.195 36.4404C339.732 36.666 340.218 36.9964 340.626 37.4123C340.952 37.736 341.393 37.9182 341.853 37.9195C342.313 37.9207 342.755 37.741 343.083 37.4191C343.411 37.0972 343.6 36.659 343.608 36.1993C343.615 35.7395 343.442 35.2952 343.125 34.9623C342.392 34.2142 341.516 33.62 340.551 33.2143C339.585 32.8086 338.548 32.5997 337.5 32.5998ZM332.268 25.2498L332.045 25.2621C331.62 25.3127 331.228 25.5175 330.944 25.8377C330.659 26.158 330.502 26.5715 330.502 26.9998C330.502 27.4281 330.659 27.8416 330.944 28.1619C331.228 28.4821 331.62 28.687 332.045 28.7376L332.25 28.7498L332.472 28.7376C332.898 28.687 333.29 28.4821 333.574 28.1619C333.859 27.8416 334.016 27.4281 334.016 26.9998C334.016 26.5715 333.859 26.158 333.574 25.8377C333.29 25.5175 332.898 25.3127 332.472 25.2621L332.268 25.2498ZM342.768 25.2498L342.546 25.2621C342.12 25.3127 341.728 25.5175 341.444 25.8377C341.159 26.158 341.002 26.5715 341.002 26.9998C341.002 27.4281 341.159 27.8416 341.444 28.1619C341.728 28.4821 342.12 28.687 342.546 28.7376L342.75 28.7498L342.973 28.7376C343.398 28.687 343.79 28.4821 344.074 28.1619C344.359 27.8416 344.516 27.4281 344.516 26.9998C344.516 26.5715 344.359 26.158 344.074 25.8377C343.79 25.5175 343.398 25.3127 342.973 25.2621L342.768 25.2498Z" fill="#F4A187"/>
<path d="M345.5 15.2778C348.064 16.7583 350.197 18.8827 351.688 21.4408C353.179 23.9989 353.976 26.902 353.999 29.8627C354.023 32.8234 353.274 35.7389 351.824 38.3208C350.375 40.9027 348.277 43.0613 345.737 44.583C343.197 46.1046 340.304 46.9366 337.344 46.9965C334.384 47.0564 331.459 46.3422 328.86 44.9245C326.26 43.5069 324.076 41.4349 322.524 38.9138C320.971 36.3927 320.104 33.5098 320.009 30.5506L320 29.9998L320.009 29.449C320.104 26.5131 320.958 23.6519 322.488 21.1445C324.018 18.6371 326.172 16.5689 328.74 15.1416C331.307 13.7143 334.201 12.9767 337.138 13.0006C340.075 13.0244 342.956 13.809 345.5 15.2778ZM337 32.0398C335.983 32.0397 334.975 32.2427 334.037 32.6367C333.099 33.0308 332.249 33.6081 331.536 34.3348C331.376 34.4934 331.249 34.6822 331.163 34.8903C331.077 35.0984 331.033 35.3216 331.033 35.5468C331.034 35.7721 331.079 35.995 331.167 36.2026C331.254 36.4102 331.382 36.5984 331.543 36.7561C331.704 36.9138 331.895 37.038 332.104 37.1214C332.313 37.2048 332.537 37.2457 332.762 37.2419C332.987 37.2381 333.21 37.1895 333.416 37.099C333.622 37.0085 333.809 36.8779 333.964 36.7148C334.36 36.3108 334.832 35.9898 335.353 35.7707C335.875 35.5516 336.435 35.4387 337 35.4387C337.566 35.4387 338.126 35.5516 338.647 35.7707C339.168 35.9898 339.641 36.3108 340.036 36.7148C340.354 37.0293 340.782 37.2062 341.229 37.2075C341.675 37.2087 342.104 37.0341 342.423 36.7214C342.742 36.4087 342.925 35.983 342.933 35.5364C342.941 35.0898 342.772 34.6582 342.464 34.3348C341.752 33.6081 340.902 33.0308 339.963 32.6367C339.025 32.2427 338.018 32.0397 337 32.0398ZM331.917 24.8998L331.701 24.9117C331.288 24.9609 330.907 25.1598 330.631 25.471C330.355 25.7821 330.202 26.1837 330.202 26.5998C330.202 27.0159 330.355 27.4176 330.631 27.7287C330.907 28.0398 331.288 28.2388 331.701 28.2879L331.9 28.2998L332.116 28.2879C332.529 28.2388 332.91 28.0398 333.186 27.7287C333.463 27.4176 333.615 27.0159 333.615 26.5998C333.615 26.1837 333.463 25.7821 333.186 25.471C332.91 25.1598 332.529 24.9609 332.116 24.9117L331.917 24.8998ZM342.117 24.8998L341.901 24.9117C341.488 24.9609 341.107 25.1598 340.831 25.471C340.555 25.7821 340.402 26.1837 340.402 26.5998C340.402 27.0159 340.555 27.4176 340.831 27.7287C341.107 28.0398 341.488 28.2388 341.901 28.2879L342.1 28.2998L342.316 28.2879C342.729 28.2388 343.11 28.0398 343.386 27.7287C343.663 27.4176 343.815 27.0159 343.815 26.5998C343.815 26.1837 343.663 25.7821 343.386 25.471C343.11 25.1598 342.729 24.9609 342.316 24.9117L342.117 24.8998Z" fill="url(#paint0_linear_3854_17127)"/>
</g>
<defs>
<filter id="filter0_d_3854_17127" x="0" y="0" width="381" height="70" filterUnits="userSpaceOnUse" color-interpolation-filters="sRGB">
<feFlood flood-opacity="0" result="BackgroundImageFix"/>
<feColorMatrix in="SourceAlpha" type="matrix" values="0 0 0 0 0 0 0 0 0 0 0 0 0 0 0 0 0 0 127 0" result="hardAlpha"/>
<feOffset dy="4"/>
<feGaussianBlur stdDeviation="5"/>
<feComposite in2="hardAlpha" operator="out"/>
<feColorMatrix type="matrix" values="0 0 0 0 0 0 0 0 0 0 0 0 0 0 0 0 0 0 0.25 0"/>
<feBlend mode="normal" in2="BackgroundImageFix" result="effect1_dropShadow_3854_17127"/>
<feBlend mode="normal" in="SourceGraphic" in2="effect1_dropShadow_3854_17127" result="shape"/>
</filter>
<linearGradient id="paint0_linear_3854_17127" x1="337" y1="13" x2="337" y2="47" gradientUnits="userSpaceOnUse">
<stop stop-color="#FBE5DE"/>
<stop offset="1" stop-color="#F9C9BA"/>
</linearGradient>
</defs>
</svg>
