<svg width="12" height="12" viewBox="0 0 12 12" fill="none" xmlns="http://www.w3.org/2000/svg">
<g id="icon_home_announce_fill">
<path id="Vector" d="M10.9535 2.81099C10.9845 2.91499 11 3.02299 11 3.13149V8.86999C10.9999 9.0451 10.959 9.21777 10.8805 9.37427C10.8019 9.53076 10.6879 9.66676 10.5476 9.77144C10.4072 9.87613 10.2443 9.9466 10.0719 9.97725C9.89952 10.0079 9.72235 9.99788 9.5545 9.94799L6.7975 9.128C6.60235 9.526 6.28056 9.84794 5.88265 10.0433C5.48474 10.2386 5.03323 10.2963 4.59899 10.2073C4.16475 10.1183 3.77236 9.88757 3.48341 9.55142C3.19446 9.21527 3.0253 8.79268 3.0025 8.35L3 8.24999L2.9995 7.99999L1.8045 7.64449C1.57201 7.5754 1.36807 7.43301 1.2231 7.23857C1.07812 7.04413 0.999867 6.80804 1 6.56549V5.43499C1.00011 5.19256 1.07854 4.95665 1.2236 4.7624C1.36865 4.56815 1.57258 4.42595 1.805 4.35699L9.555 2.05399C9.8409 1.96909 10.1488 2.00119 10.4111 2.14324C10.6733 2.28528 10.8684 2.52515 10.9535 2.81099ZM3.7495 8.22249L3.75 8.2495C3.74974 8.52135 3.8381 8.78587 4.00171 9.00298C4.16531 9.22009 4.39524 9.37795 4.65663 9.45263C4.91803 9.5273 5.19664 9.51473 5.45024 9.41681C5.70385 9.31889 5.91862 9.14096 6.062 8.90999L3.7495 8.22249Z" fill="white"/>
</g>
</svg>
