<svg width="23" height="29" viewBox="0 0 23 29" fill="none" xmlns="http://www.w3.org/2000/svg">
<g id="icon_home_pin_none">
<path id="Vector" d="M10.5397 14.2462C9.56375 14.2626 8.62126 13.889 7.91952 13.2075C7.21777 12.526 6.81425 11.5924 6.79774 10.6122C6.78122 9.63193 7.15305 8.68531 7.83143 7.98055C8.50981 7.27578 9.43918 6.87061 10.4151 6.85417C11.391 6.83772 12.3335 7.21135 13.0352 7.89285C13.737 8.57436 14.1405 9.50791 14.157 10.4882C14.1652 10.9735 14.0781 11.4557 13.9007 11.9073C13.7234 12.3588 13.4592 12.7708 13.1233 13.1198C12.7874 13.4687 12.3863 13.7478 11.943 13.9411C11.4997 14.1344 11.0229 14.238 10.5397 14.2462ZM10.303 0.201371C7.57045 0.24742 4.96822 1.3819 3.06875 3.35524C1.16928 5.32857 0.128147 7.97912 0.174401 10.7238C0.256611 15.602 4.43333 21.8717 7.52521 25.8567C9.19354 28.0069 12.3487 27.9537 13.9436 25.7485C16.8995 21.6616 20.8625 15.2548 20.7803 10.3765C20.7341 7.63186 19.6042 5.0179 17.6393 3.10969C15.6745 1.20147 13.0355 0.155322 10.303 0.201371Z" fill="white"/>
<circle id="Ellipse 9" cx="10.5" cy="10.5" r="4.5" fill="#4B51E7"/>
</g>
</svg>
