<svg width="393" height="852" viewBox="0 0 393 852" fill="none" xmlns="http://www.w3.org/2000/svg">
<g clip-path="url(#clip0_1364_11396)">
<rect width="393" height="852" fill="white"/>
<g opacity="0.5">
<path fill-rule="evenodd" clip-rule="evenodd" d="M300.343 346.915C260.475 340.769 230.336 310.646 230.669 274.705C231.039 234.634 269.148 202.506 315.787 202.946C352.791 203.295 384.047 224.04 395.196 252.611L398.289 250.584C398.289 250.584 433.921 327.352 398.98 354.431C376.688 371.708 330.71 358.64 300.343 346.915ZM355.042 278.92L353.273 280.079C349.039 294.353 333.371 304.989 314.535 305.46L308.864 309.176C289.751 306.458 275.231 292.107 275.389 274.955C275.565 256.009 293.583 240.818 315.634 241.026C337.686 241.234 355.42 256.762 355.245 275.708C355.235 276.791 355.166 277.863 355.042 278.92Z" fill="#91C690"/>
<path fill-rule="evenodd" clip-rule="evenodd" d="M272.261 325.356C245.003 313.668 226.272 290.255 225.924 263.053C225.42 223.66 263.659 191.239 311.333 190.637C349.374 190.157 381.927 210.082 393.786 238.167C393.786 238.167 432.936 315.01 399.057 343.208C365.177 371.406 272.236 325.374 272.236 325.374L272.261 325.356ZM313.884 295.494C333.154 294.865 348.971 283.237 352.519 268.084C353.034 265.882 353.291 263.605 353.261 261.277C353.023 242.652 334.557 227.784 312.016 228.068C289.475 228.353 271.395 243.682 271.633 262.307C271.872 280.932 290.338 295.801 312.879 295.516C313.215 295.512 313.55 295.504 313.884 295.494Z" fill="url(#paint0_linear_1364_11396)"/>
<path fill-rule="evenodd" clip-rule="evenodd" d="M306.387 262.566C310.144 259.201 312.785 259.406 317.823 259.17C322.861 258.934 328.745 256.976 332.801 259.975C336.856 262.975 339.444 268.461 340.695 273.348C341.947 278.235 340.865 285.692 338.75 290.271C342.553 291.093 346.68 289.835 349.548 292.465C352.416 295.096 354.741 300.404 355.889 304.123C357.036 307.841 356.353 312.913 355.466 316.702C354.579 320.491 352.7 323.975 350.022 326.797L346.948 329.978C346.948 329.978 352.355 325.987 357.892 331.239C366.671 339.568 365.586 357.115 357.26 365.895L320.579 404.579C320.429 404.784 320.265 404.979 320.09 405.163C302.907 423.283 282.894 430.692 263.552 430.068C244.359 429.441 226.297 420.926 212.665 407.994C184.978 381.726 184.503 346.031 192.013 312.128C193.289 305.068 194.705 298.035 196.258 291.032C201.667 266.092 232.112 257.283 250.441 274.624L267.535 256.598C270.139 253.852 273.409 251.828 277.027 250.721C280.645 249.615 283.567 244.007 287.261 244.827C290.955 245.646 296.372 247.242 299.897 250.721C302.709 253.254 305.187 258.977 306.387 262.566Z" fill="url(#paint1_linear_1364_11396)"/>
<path fill-rule="evenodd" clip-rule="evenodd" d="M302.82 259.159C306.576 255.794 311.379 253.827 316.416 253.592C321.454 253.356 326.419 254.865 330.475 257.864C334.53 260.864 337.428 265.17 338.679 270.057C339.93 274.944 339.458 280.113 337.343 284.692C341.146 285.514 344.661 287.334 347.529 289.964C350.397 292.594 352.513 295.941 353.661 299.659C354.808 303.378 354.946 307.335 354.059 311.124C353.172 314.912 351.293 318.397 348.615 321.219L345.541 324.4C345.541 324.4 350.416 323.464 355.952 328.716C364.731 337.045 364.179 351.537 355.853 360.317L319.172 399C319.022 399.206 318.858 399.4 318.683 399.584C301.5 417.704 281.487 425.113 262.145 424.49C242.952 423.863 224.89 415.348 211.258 402.415C183.571 376.147 183.096 340.453 190.607 306.549C191.882 299.49 193.298 292.456 194.852 285.453C200.26 260.513 230.705 251.704 249.035 269.046L266.129 251.019C268.732 248.274 272.002 246.249 275.62 245.143C279.238 244.036 283.081 243.885 286.775 244.705C290.469 245.524 293.888 247.286 296.7 249.819C299.511 252.352 301.62 255.57 302.82 259.159Z" fill="url(#paint2_linear_1364_11396)"/>
</g>
<path d="M157.688 285C157.453 283.656 156.5 281.969 154.687 280.609C153.797 279.938 152.891 279.5 152 279.312V278.656C153.766 278.234 155.5 277.047 156.609 275.437C157.172 274.625 157.531 273.828 157.688 273H158.344C158.609 274.578 159.828 276.328 161.484 277.5C162.297 278.078 163.141 278.469 164 278.656V279.312C162.266 279.672 160.25 281.219 159.25 282.797C158.75 283.594 158.453 284.328 158.344 285H157.688Z" fill="#ACAFF4"/>
<path d="M85.5833 160C85.2708 158.208 84 155.958 81.5833 154.146C80.3958 153.25 79.1875 152.667 78 152.417V151.542C80.3542 150.979 82.6667 149.396 84.1458 147.25C84.8958 146.167 85.375 145.104 85.5833 144H86.4583C86.8125 146.104 88.4375 148.438 90.6458 150C91.7292 150.771 92.8542 151.292 94 151.542V152.417C91.6875 152.896 89 154.958 87.6667 157.062C87 158.125 86.6042 159.104 86.4583 160H85.5833Z" fill="#DBDDFF"/>
<path d="M56.6875 184C56.4531 182.656 55.5 180.969 53.6875 179.609C52.7969 178.938 51.8906 178.5 51 178.312V177.656C52.7656 177.234 54.5 176.047 55.6094 174.437C56.1719 173.625 56.5312 172.828 56.6875 172H57.3437C57.6094 173.578 58.8281 175.328 60.4844 176.5C61.2969 177.078 62.1406 177.469 63 177.656V178.312C61.2656 178.672 59.25 180.219 58.25 181.797C57.75 182.594 57.4531 183.328 57.3437 184H56.6875Z" fill="#ACAFF4"/>
</g>
<defs>
<linearGradient id="paint0_linear_1364_11396" x1="297.46" y1="198.41" x2="307.866" y2="390.684" gradientUnits="userSpaceOnUse">
<stop stop-color="#81FFFF"/>
<stop offset="1" stop-color="#8DDD9F"/>
</linearGradient>
<linearGradient id="paint1_linear_1364_11396" x1="128.929" y1="322.115" x2="464.218" y2="354.175" gradientUnits="userSpaceOnUse">
<stop stop-color="#587E9B"/>
<stop offset="1" stop-color="#434595"/>
</linearGradient>
<linearGradient id="paint2_linear_1364_11396" x1="213.687" y1="264.574" x2="342.558" y2="356.425" gradientUnits="userSpaceOnUse">
<stop stop-color="#8DC4EB"/>
<stop offset="1" stop-color="#6363DB"/>
</linearGradient>
<clipPath id="clip0_1364_11396">
<rect width="393" height="852" fill="white"/>
</clipPath>
</defs>
</svg>
