<svg width="329" height="96" viewBox="0 0 329 96" fill="none" xmlns="http://www.w3.org/2000/svg">
<g clip-path="url(#clip0_1364_19971)">
<rect width="329" height="96" rx="16" fill="#8AE6B7"/>
<path d="M294.251 24.6995C301.415 29.0537 307.375 35.3021 311.54 42.826C315.705 50.3498 317.932 58.8883 317.998 67.5962C318.065 76.304 315.97 84.8792 311.921 92.4729C307.872 100.067 302.009 106.416 294.912 110.891C287.816 115.367 279.732 117.814 271.461 117.99C263.189 118.166 255.018 116.065 247.755 111.896C240.492 107.726 234.39 101.632 230.052 94.217C225.714 86.802 223.292 78.323 223.024 69.6195L223 67.9995L223.024 66.3795C223.29 57.7444 225.677 49.3293 229.952 41.9544C234.228 34.5796 240.246 28.4967 247.42 24.2989C254.593 20.101 262.678 17.9314 270.885 18.0017C279.093 18.0719 287.143 20.3795 294.251 24.6995ZM284.751 77.9995H256.25L255.695 78.0345C254.54 78.179 253.476 78.7642 252.704 79.6793C251.932 80.5943 251.506 81.7756 251.506 82.9995C251.506 84.2233 251.932 85.4046 252.704 86.3196C253.476 87.2347 254.54 87.8199 255.695 87.9644L256.25 87.9995H284.751L285.307 87.9644C286.461 87.8199 287.525 87.2347 288.297 86.3196C289.069 85.4046 289.496 84.2233 289.496 82.9995C289.496 81.7756 289.069 80.5943 288.297 79.6793C287.525 78.7642 286.461 78.179 285.307 78.0345L284.751 77.9995ZM256.298 52.9995L255.695 53.0345C254.54 53.179 253.476 53.7642 252.704 54.6793C251.932 55.5943 251.506 56.7756 251.506 57.9995C251.506 59.2233 251.932 60.4046 252.704 61.3196C253.476 62.2347 254.54 62.8199 255.695 62.9645L256.25 62.9995L256.854 62.9645C258.008 62.8199 259.072 62.2347 259.844 61.3196C260.616 60.4046 261.043 59.2233 261.043 57.9995C261.043 56.7756 260.616 55.5943 259.844 54.6793C259.072 53.7642 258.008 53.179 256.854 53.0345L256.298 52.9995ZM284.798 52.9995L284.195 53.0345C283.041 53.179 281.976 53.7642 281.204 54.6793C280.432 55.5943 280.006 56.7756 280.006 57.9995C280.006 59.2233 280.432 60.4046 281.204 61.3196C281.976 62.2347 283.041 62.8199 284.195 62.9645L284.751 62.9995L285.354 62.9645C286.509 62.8199 287.573 62.2347 288.345 61.3196C289.117 60.4046 289.543 59.2233 289.543 57.9995C289.543 56.7756 289.117 55.5943 288.345 54.6793C287.573 53.7642 286.509 53.179 285.354 53.0345L284.798 52.9995Z" fill="#A1EBC5"/>
<path d="M292.751 24.4985C299.764 28.7221 305.599 34.783 309.676 42.0812C313.754 49.3793 315.933 57.6617 315.998 66.1083C316.064 74.5549 314.013 82.8728 310.049 90.2387C306.085 97.6046 300.346 103.763 293.398 108.104C286.451 112.446 278.537 114.819 270.44 114.99C262.343 115.161 254.344 113.123 247.234 109.079C240.124 105.034 234.15 99.1231 229.904 91.9305C225.657 84.7379 223.286 76.5133 223.023 68.0709L223 66.4995L223.023 64.9281C223.284 56.5521 225.621 48.3894 229.806 41.2358C233.991 34.0822 239.883 28.1818 246.905 24.1099C253.928 20.038 261.843 17.9335 269.877 18.0016C277.912 18.0697 285.793 20.3081 292.751 24.4985ZM283.451 76.1995H255.55L255.006 76.2334C253.876 76.3736 252.835 76.9413 252.079 77.8289C251.323 78.7165 250.906 79.8624 250.906 81.0495C250.906 82.2366 251.323 83.3824 252.079 84.27C252.835 85.1576 253.876 85.7253 255.006 85.8655L255.55 85.8995H283.451L283.995 85.8655C285.125 85.7253 286.167 85.1576 286.922 84.27C287.678 83.3824 288.096 82.2366 288.096 81.0495C288.096 79.8624 287.678 78.7165 286.922 77.8289C286.167 76.9413 285.125 76.3736 283.995 76.2334L283.451 76.1995ZM255.597 51.9495L255.006 51.9834C253.876 52.1236 252.835 52.6913 252.079 53.5789C251.323 54.4665 250.906 55.6124 250.906 56.7995C250.906 57.9866 251.323 59.1324 252.079 60.02C252.835 60.9076 253.876 61.4753 255.006 61.6155L255.55 61.6495L256.141 61.6155C257.271 61.4753 258.313 60.9076 259.069 60.02C259.824 59.1324 260.242 57.9866 260.242 56.7995C260.242 55.6124 259.824 54.4665 259.069 53.5789C258.313 52.6913 257.271 52.1236 256.141 51.9834L255.597 51.9495ZM283.497 51.9495L282.907 51.9834C281.776 52.1236 280.735 52.6913 279.979 53.5789C279.223 54.4665 278.806 55.6124 278.806 56.7995C278.806 57.9866 279.223 59.1324 279.979 60.02C280.735 60.9076 281.776 61.4753 282.907 61.6155L283.451 61.6495L284.041 61.6155C285.171 61.4753 286.213 60.9076 286.969 60.02C287.725 59.1324 288.142 57.9866 288.142 56.7995C288.142 55.6124 287.725 54.4665 286.969 53.5789C286.213 52.6913 285.171 52.1236 284.041 51.9834L283.497 51.9495Z" fill="url(#paint0_linear_1364_19971)"/>
</g>
<defs>
<linearGradient id="paint0_linear_1364_19971" x1="269.5" y1="18" x2="269.5" y2="115" gradientUnits="userSpaceOnUse">
<stop stop-color="#C9F4DE"/>
<stop offset="0.0001" stop-color="#E6FDF1"/>
</linearGradient>
<clipPath id="clip0_1364_19971">
<rect width="329" height="96" fill="white"/>
</clipPath>
</defs>
</svg>
