<svg width="22" height="23" viewBox="0 0 22 23" fill="none" xmlns="http://www.w3.org/2000/svg">
<g id="icon_home_review_fill">
<g id="Vector">
<path d="M17.4202 16.0173L4.14627 17.8472L2.3225 4.52849C2.28795 4.27618 2.35471 4.02043 2.50809 3.81751C2.66147 3.61459 2.8889 3.48111 3.14036 3.44645L18.3105 1.3551C18.562 1.32043 18.8169 1.38741 19.0191 1.54131C19.2214 1.69521 19.3544 1.92341 19.389 2.17572L21.4733 17.3971C21.5769 18.154 21.3766 18.9213 20.9165 19.5301C20.4564 20.1388 19.7741 20.5392 19.0197 20.6432L5.74576 22.4732C4.99137 22.5772 4.22671 22.3762 3.61999 21.9145C3.01327 21.4528 2.61419 20.7682 2.51054 20.0113L2.25 18.1086L17.4202 16.0173Z" fill="#353AA4"/>
<path d="M15.6201 15.264L3.72464 16.8789C2.95679 16.9832 2.2488 16.4526 2.1433 15.6939L0.508919 3.93969C0.474339 3.69099 0.541156 3.43891 0.694673 3.23889C0.84819 3.03887 1.07583 2.90731 1.32752 2.87314L16.5112 0.811736C16.7629 0.777566 17.018 0.843591 17.2205 0.995284C17.4229 1.14698 17.556 1.37192 17.5906 1.62061L19.6768 16.624C19.7805 17.3701 19.5801 18.1264 19.1195 18.7264C18.659 19.3265 17.9761 19.7212 17.221 19.8237L3.93524 21.6274C3.18018 21.7299 2.41483 21.5318 1.80757 21.0768C1.20031 20.6217 0.80087 19.9469 0.697129 19.2008L0.62738 18.6992C0.521881 17.9404 1.05882 17.2408 1.82667 17.1366L15.6201 15.264Z" fill="#1C254D"/>
<path d="M15.6201 15.264L3.72464 16.8789C2.95679 16.9832 2.2488 16.4526 2.1433 15.6939L0.508919 3.93969C0.474339 3.69099 0.541156 3.43891 0.694673 3.23889C0.84819 3.03887 1.07583 2.90731 1.32752 2.87314L16.5112 0.811736C16.7629 0.777566 17.018 0.843591 17.2205 0.995284C17.4229 1.14698 17.556 1.37192 17.5906 1.62061L19.6768 16.624C19.7805 17.3701 19.5801 18.1264 19.1195 18.7264C18.659 19.3265 17.9761 19.7212 17.221 19.8237L3.93524 21.6274C3.18018 21.7299 2.41483 21.5318 1.80757 21.0768C1.20031 20.6217 0.80087 19.9469 0.697129 19.2008L0.62738 18.6992C0.521881 17.9404 1.05882 17.2408 1.82667 17.1366L15.6201 15.264Z" fill="#474CBC"/>
<path d="M17.6013 1.69813C17.4954 0.936729 16.7831 0.405637 16.013 0.514042L1.72228 2.52594C0.957466 2.63362 0.424545 3.33183 0.529979 4.08805L2.14809 15.6937C2.25384 16.4522 2.9617 16.9825 3.72935 16.8783L14.4646 15.4208C15.2593 15.3129 15.9857 15.8869 16.1911 16.653C16.5133 17.855 17.1954 19.3495 18.5792 19.1617C20.0027 18.9684 19.7289 16.9992 19.7289 16.9992L17.6013 1.69813Z" fill="url(#paint0_linear_3854_16801)"/>
</g>
</g>
<defs>
<linearGradient id="paint0_linear_3854_16801" x1="8.86851" y1="1.4769" x2="11.4017" y2="20.136" gradientUnits="userSpaceOnUse">
<stop stop-color="#9093EC"/>
<stop offset="1" stop-color="#4B51E7"/>
</linearGradient>
</defs>
</svg>
