<svg width="40" height="40" viewBox="0 0 40 40" fill="none" xmlns="http://www.w3.org/2000/svg">
<g id="icon_home_saveButton_none">
<circle id="Ellipse 8" cx="20" cy="20" r="20" fill="white"/>
<path id="Vector" d="M27 13.798V22.7993C26.9995 22.8848 26.9813 22.9691 26.9466 23.0467C26.9119 23.1244 26.8615 23.1935 26.7987 23.2494C25.6846 24.2418 24.6193 24.5996 23.6035 24.5996C22.2247 24.5996 20.937 23.944 19.739 23.3357C17.803 22.3493 16.1201 21.4949 14.1667 23.0821V26.3999C14.1667 26.5591 14.1052 26.7117 13.9958 26.8242C13.8864 26.9368 13.738 27 13.5833 27C13.4286 27 13.2803 26.9368 13.1709 26.8242C13.0615 26.7117 13 26.5591 13 26.3999V13.798C13.0006 13.7125 13.0189 13.6281 13.0537 13.5505C13.0885 13.4728 13.1391 13.4038 13.202 13.3479C15.827 11.009 18.1829 12.207 20.2596 13.2639C22.2604 14.2825 23.9951 15.1632 26.0346 13.3479C26.1189 13.2727 26.2224 13.224 26.3328 13.2075C26.4432 13.191 26.5558 13.2074 26.6575 13.2547C26.7591 13.3021 26.8453 13.3785 26.9061 13.4747C26.9668 13.571 26.9994 13.6832 27 13.798Z" fill="#3D3D3D"/>
</g>
</svg>
