<svg width="329" height="96" viewBox="0 0 329 96" fill="none" xmlns="http://www.w3.org/2000/svg">
<g clip-path="url(#clip0_1364_19979)">
<rect width="329" height="96" rx="16" fill="#F18A69"/>
<path d="M288.27 25.2255C295.949 28.5852 302.631 33.9103 307.654 40.6738C312.677 47.4373 315.868 55.4046 316.91 63.787C317.952 72.1693 316.81 80.676 313.595 88.465C310.381 96.254 305.207 103.055 298.585 108.195C291.962 113.335 284.122 116.636 275.839 117.771C267.557 118.905 259.119 117.834 251.362 114.664C243.605 111.494 236.797 106.334 231.613 99.6954C226.429 93.0569 223.047 85.1699 221.804 76.8152L221.598 75.257L221.441 73.6934C220.741 65.3423 222.195 56.9558 225.661 49.3513C229.127 41.7468 234.486 35.1838 241.217 30.3023C247.948 25.4208 255.82 22.3873 264.066 21.4976C272.312 20.6078 280.651 21.8922 288.27 25.2255ZM269.95 75.4972C267.096 75.8287 264.337 76.7321 261.836 78.1547C259.334 79.5772 257.14 81.4903 255.382 83.7818C254.985 84.2834 254.691 84.8599 254.518 85.4777C254.344 86.0955 254.293 86.7423 254.369 87.3805C254.445 88.0188 254.646 88.6357 254.96 89.1955C255.274 89.7552 255.695 90.2466 256.198 90.6412C256.701 91.0357 257.276 91.3254 257.891 91.4936C258.505 91.6617 259.146 91.7049 259.777 91.6206C260.407 91.5363 261.015 91.3262 261.564 91.0025C262.112 90.6789 262.592 90.2481 262.974 89.7352C263.951 88.4613 265.17 87.3977 266.56 86.6068C267.95 85.8159 269.483 85.3135 271.069 85.1292C272.656 84.9449 274.263 85.0823 275.797 85.5333C277.332 85.9844 278.762 86.74 280.005 87.756C280.998 88.5437 282.258 88.9056 283.511 88.7635C284.764 88.6214 285.91 87.9867 286.702 86.9966C287.494 86.0065 287.867 84.7406 287.741 83.4725C287.615 82.2044 287.001 81.0361 286.03 80.2201C283.793 78.3929 281.218 77.034 278.457 76.2231C275.696 75.4121 272.804 75.1653 269.95 75.4972ZM253.342 56.9201L252.741 57.0242C251.598 57.2982 250.596 57.9862 249.923 58.9579C249.251 59.9296 248.955 61.1176 249.092 62.2967C249.229 63.4759 249.789 64.5644 250.667 65.356C251.544 66.1476 252.678 66.5873 253.853 66.5919L254.414 66.5608L255.016 66.4567C256.159 66.1828 257.161 65.4948 257.834 64.5231C258.506 63.5514 258.802 62.3634 258.665 61.1842C258.528 60.0051 257.968 58.9166 257.09 58.125C256.213 57.3334 255.079 56.8936 253.904 56.889L253.342 56.9201ZM281.95 53.5956L281.349 53.6997C280.206 53.9736 279.203 54.6616 278.531 55.6334C277.858 56.6051 277.563 57.793 277.7 58.9722C277.837 60.1513 278.397 61.2398 279.274 62.0314C280.152 62.823 281.285 63.2628 282.46 63.2674L283.022 63.2363L283.624 63.1322C284.767 62.8582 285.769 62.1703 286.442 61.1985C287.114 60.2268 287.41 59.0389 287.273 57.8597C287.136 56.6805 286.575 55.5921 285.698 54.8005C284.821 54.0089 283.687 53.5691 282.512 53.5645L281.95 53.5956Z" fill="#F4A187"/>
<path d="M286.004 25.219C293.438 28.4318 299.904 33.5305 304.762 40.0102C309.62 46.4899 312.701 54.1261 313.701 62.1627C314.701 70.1993 313.584 78.3577 310.462 85.8302C307.34 93.3027 302.32 99.8302 295.9 104.767C289.48 109.703 281.881 112.877 273.857 113.974C265.834 115.072 257.662 114.055 250.152 111.024C242.642 107.992 236.054 103.053 231.04 96.6929C226.026 90.3331 222.76 82.7742 221.565 74.7643L221.368 73.2704L221.217 71.7712C220.548 63.7643 221.966 55.7207 225.332 48.4248C228.698 41.1289 233.897 34.8296 240.422 30.1411C246.947 25.4525 254.576 22.5347 262.564 21.6721C270.553 20.8095 278.628 22.0315 286.004 25.219ZM268.201 73.4454C265.437 73.7665 262.764 74.6359 260.339 76.0029C257.914 77.3698 255.787 79.2067 254.081 81.4061C253.696 81.8876 253.411 82.4407 253.242 83.0333C253.073 83.6259 253.023 84.2462 253.096 84.8581C253.169 85.47 253.363 86.0613 253.666 86.5977C253.97 87.1341 254.376 87.6049 254.863 87.9826C255.35 88.3603 255.907 88.6375 256.502 88.798C257.097 88.9586 257.718 88.9992 258.329 88.9177C258.94 88.8361 259.528 88.634 260.06 88.323C260.592 88.012 261.057 87.5983 261.428 87.1061C262.376 85.8834 263.558 84.8622 264.905 84.1022C266.253 83.3422 267.738 82.8587 269.275 82.6802C270.811 82.5016 272.368 82.6315 273.854 83.0623C275.339 83.493 276.724 84.2159 277.927 85.1887C278.888 85.9429 280.108 86.2885 281.322 86.1509C282.536 86.0132 283.647 85.4032 284.415 84.4529C285.182 83.5026 285.545 82.2883 285.425 81.0725C285.305 79.8567 284.711 78.7371 283.771 77.9557C281.607 76.2062 279.115 74.9061 276.441 74.1316C273.767 73.3572 270.966 73.1239 268.201 73.4454ZM252.136 55.6509L251.553 55.7514C250.446 56.0154 249.474 56.6763 248.822 57.6088C248.17 58.5414 247.882 59.6808 248.013 60.8114C248.144 61.9419 248.686 62.985 249.535 63.743C250.384 64.5011 251.481 64.9215 252.619 64.9246L253.164 64.8941L253.747 64.7936C254.854 64.5296 255.825 63.8687 256.478 62.9362C257.13 62.0036 257.418 60.8642 257.287 59.7336C257.156 58.6031 256.614 57.56 255.765 56.8019C254.916 56.0439 253.819 55.6235 252.68 55.6204L252.136 55.6509ZM279.85 52.4302L279.267 52.5308C278.16 52.7947 277.188 53.4556 276.536 54.3882C275.883 55.3207 275.596 56.4602 275.727 57.5907C275.858 58.7212 276.4 59.7643 277.249 60.5224C278.098 61.2805 279.195 61.7008 280.333 61.7039L280.877 61.6734L281.46 61.5729C282.567 61.3089 283.539 60.6481 284.192 59.7155C284.844 58.783 285.132 57.6435 285.001 56.513C284.869 55.3824 284.328 54.3394 283.479 53.5813C282.63 52.8232 281.532 52.4028 280.394 52.3998L279.85 52.4302Z" fill="url(#paint0_linear_1364_19979)"/>
</g>
<defs>
<linearGradient id="paint0_linear_1364_19979" x1="262.189" y1="21.7141" x2="272.925" y2="114.092" gradientUnits="userSpaceOnUse">
<stop stop-color="#FBE5DE"/>
<stop offset="1" stop-color="#F9C9BA"/>
</linearGradient>
<clipPath id="clip0_1364_19979">
<rect width="329" height="96" fill="white"/>
</clipPath>
</defs>
</svg>
