<svg width="393" height="805" viewBox="0 0 393 805" fill="none" xmlns="http://www.w3.org/2000/svg">
<rect width="393" height="805" fill="white"/>
<path d="M283.583 80C283.271 78.2083 282 75.9583 279.583 74.1458C278.396 73.25 277.187 72.6667 276 72.4167V71.5417C278.354 70.9792 280.667 69.3958 282.146 67.25C282.896 66.1667 283.375 65.1042 283.583 64H284.458C284.812 66.1042 286.438 68.4375 288.646 70C289.729 70.7708 290.854 71.2917 292 71.5417V72.4167C289.687 72.8958 287 74.9583 285.667 77.0625C285 78.125 284.604 79.1042 284.458 80H283.583Z" fill="#DBDDFF"/>
<path d="M297.687 64C297.453 62.6562 296.5 60.9687 294.687 59.6094C293.797 58.9375 292.891 58.5 292 58.3125V57.6562C293.766 57.2344 295.5 56.0469 296.609 54.4375C297.172 53.625 297.531 52.8281 297.687 52H298.344C298.609 53.5781 299.828 55.3281 301.484 56.5C302.297 57.0781 303.141 57.4687 304 57.6562V58.3125C302.266 58.6719 300.25 60.2187 299.25 61.7969C298.75 62.5937 298.453 63.3281 298.344 64H297.687Z" fill="#ACAFF4"/>
</svg>
