<svg width="10" height="16" viewBox="0 0 10 16" fill="none" xmlns="http://www.w3.org/2000/svg">
<path id="chevron.left" d="M0.326172 7.74512C0.330729 7.58561 0.36263 7.43978 0.421875 7.30762C0.48112 7.17546 0.572266 7.04785 0.695312 6.9248L7.54492 0.293945C7.74089 0.0979818 7.98242 0 8.26953 0C8.46094 0 8.63411 0.0455729 8.78906 0.136719C8.94857 0.227865 9.07389 0.350911 9.16504 0.505859C9.26074 0.660807 9.30859 0.833984 9.30859 1.02539C9.30859 1.30794 9.2015 1.55632 8.9873 1.77051L2.79395 7.73828L8.9873 13.7129C9.2015 13.9316 9.30859 14.18 9.30859 14.458C9.30859 14.654 9.26074 14.8294 9.16504 14.9844C9.07389 15.1393 8.94857 15.2624 8.78906 15.3535C8.63411 15.4492 8.46094 15.4971 8.26953 15.4971C7.98242 15.4971 7.74089 15.3968 7.54492 15.1963L0.695312 8.56543C0.567708 8.44238 0.474284 8.31478 0.415039 8.18262C0.355794 8.0459 0.326172 7.90006 0.326172 7.74512Z" fill="black"/>
</svg>
