<svg width="119" height="154" viewBox="0 0 119 154" fill="none" xmlns="http://www.w3.org/2000/svg">
<g filter="url(#filter0_d_1364_20054)">
<rect x="10" y="6" width="99" height="134" rx="16" fill="#FBDBD1"/>
</g>
<g filter="url(#filter1_i_1364_20054)">
<path d="M82 41.5734C78.8093 41.4025 75.6439 42.2097 72.9492 43.8813C72.2976 43.159 71.6278 42.4366 70.9218 41.7495L70.3969 41.2739L70.6503 41.0625C71.5355 40.3229 72.1664 39.3368 72.4577 38.2373C72.749 37.1379 72.6868 35.9779 72.2794 34.9139C71.691 33.7126 70.7568 32.7036 69.5903 32.0093C68.4239 31.315 67.0753 30.9653 65.7086 31.0027V34.5263C66.3526 34.5175 66.9874 34.6762 67.5474 34.9859C68.1075 35.2956 68.5725 35.7451 68.8945 36.288C69.2022 36.9928 68.8945 37.7679 68.0437 38.596L67.6273 38.9659C65.7392 37.4347 63.6664 36.1331 61.4547 35.09C56.875 33.0816 54.5218 34.0154 53.3633 35.09C53.0103 35.4344 52.7277 35.841 52.5306 36.288L52.2048 37.2218L49.5982 44.8679C51.6617 49.8713 56.6578 58.7683 67.5187 62.609L76.5695 59.6844C76.8747 59.5738 77.1436 59.3852 77.3479 59.1383L77.728 58.8211C80.3166 56.2842 78.6512 51.4041 75.1757 46.6649C77.2394 45.4927 79.6156 44.9467 82 45.0969V41.5734ZM75.1395 56.3194H75.0309C73.7819 56.9713 68.6048 55.3152 62.7399 49.6071C62.1245 49.0081 61.5452 48.4267 61.0203 47.8453C60.8392 47.6515 60.6763 47.4401 60.4953 47.2287L59.5359 46.1011L59.0291 45.414C58.7757 45.0793 58.5222 44.7446 58.305 44.4274C58.0878 44.1103 58.0154 43.9694 57.8706 43.7404C57.7258 43.5113 57.4723 43.1413 57.3094 42.8418C57.1465 42.5423 57.0741 42.419 56.9655 42.19C56.8569 41.961 56.6578 41.6967 56.5492 41.45C56.4406 41.2034 56.3863 41.0448 56.2957 40.851C56.2052 40.6572 56.0966 40.3754 56.0242 40.1463C55.9518 39.9173 55.9337 39.8116 55.8975 39.6354C55.8613 39.4592 55.7889 39.2126 55.7527 39.0364C55.744 38.8956 55.744 38.7544 55.7527 38.6136C55.7349 38.4614 55.7349 38.3077 55.7527 38.1555L55.9518 37.6094C56.2595 37.2923 57.5991 37.2042 59.9885 38.2612C61.5853 39.0078 63.0962 39.9173 64.4958 40.9744C63.7328 41.3021 62.9192 41.5045 62.0883 41.5734V45.0969C64.0113 44.9907 65.8772 44.4217 67.5187 43.4409L68.4057 44.2513C69.2022 45.0088 69.9081 45.7664 70.5598 46.4887C69.4684 48.3001 69.0348 50.4161 69.3289 52.4964L72.9492 51.8093C72.8269 51.1451 72.8269 50.465 72.9492 49.8009C75.2843 53.2716 75.7187 55.7733 75.1395 56.3194ZM48.331 48.6205L44.2944 60.4244C44.003 61.291 43.9265 62.2124 44.0712 63.1133C44.2158 64.0142 44.5774 64.8691 45.1264 65.6079C45.6755 66.3467 46.3964 66.9486 47.2302 67.3644C48.064 67.7801 48.9871 67.998 49.924 68C50.5399 67.9942 51.1509 67.8931 51.7341 67.7005L63.5364 63.8774C56.8752 60.5665 51.5284 55.2015 48.331 48.6205Z" fill="#F18A69"/>
</g>
<defs>
<filter id="filter0_d_1364_20054" x="0" y="0" width="119" height="154" filterUnits="userSpaceOnUse" color-interpolation-filters="sRGB">
<feFlood flood-opacity="0" result="BackgroundImageFix"/>
<feColorMatrix in="SourceAlpha" type="matrix" values="0 0 0 0 0 0 0 0 0 0 0 0 0 0 0 0 0 0 127 0" result="hardAlpha"/>
<feOffset dy="4"/>
<feGaussianBlur stdDeviation="5"/>
<feComposite in2="hardAlpha" operator="out"/>
<feColorMatrix type="matrix" values="0 0 0 0 0 0 0 0 0 0 0 0 0 0 0 0 0 0 0.25 0"/>
<feBlend mode="normal" in2="BackgroundImageFix" result="effect1_dropShadow_1364_20054"/>
<feBlend mode="normal" in="SourceGraphic" in2="effect1_dropShadow_1364_20054" result="shape"/>
</filter>
<filter id="filter1_i_1364_20054" x="44" y="31" width="38" height="40" filterUnits="userSpaceOnUse" color-interpolation-filters="sRGB">
<feFlood flood-opacity="0" result="BackgroundImageFix"/>
<feBlend mode="normal" in="SourceGraphic" in2="BackgroundImageFix" result="shape"/>
<feColorMatrix in="SourceAlpha" type="matrix" values="0 0 0 0 0 0 0 0 0 0 0 0 0 0 0 0 0 0 127 0" result="hardAlpha"/>
<feOffset dy="4"/>
<feGaussianBlur stdDeviation="1.5"/>
<feComposite in2="hardAlpha" operator="arithmetic" k2="-1" k3="1"/>
<feColorMatrix type="matrix" values="0 0 0 0 0 0 0 0 0 0 0 0 0 0 0 0 0 0 0.25 0"/>
<feBlend mode="normal" in2="shape" result="effect1_innerShadow_1364_20054"/>
</filter>
</defs>
</svg>
