<svg width="329" height="441" viewBox="0 0 329 441" fill="none" xmlns="http://www.w3.org/2000/svg">
<g clip-path="url(#clip0_1364_9811)">
<g filter="url(#filter0_d_1364_9811)">
<path d="M0 16C0 7.16344 7.16344 0 16 0H313C321.837 0 329 7.16344 329 16V425C329 433.837 321.837 441 313 441H16C7.16344 441 0 433.837 0 425V16Z" fill="white"/>
</g>
<g opacity="0.23">
<path fill-rule="evenodd" clip-rule="evenodd" d="M254.47 383.801C221.585 382 194.685 359.937 192.078 330.71C189.171 298.122 217.561 268.968 255.49 265.591C285.584 262.911 312.64 277.264 323.987 299.585L326.337 297.691C326.337 297.691 361.434 357.211 335.213 382.011C318.484 397.833 280.081 390.897 254.47 383.801ZM293.468 324.176L292.124 325.259C289.826 337.196 277.948 347.092 262.682 348.983L258.371 352.456C242.624 351.778 229.678 341.281 228.433 327.332C227.059 311.924 240.482 298.139 258.416 296.543C276.349 294.946 292.001 306.142 293.376 321.55C293.454 322.431 293.484 323.307 293.468 324.176Z" fill="#91C690"/>
<path fill-rule="evenodd" clip-rule="evenodd" d="M229.927 368.533C206.844 361.219 189.751 343.696 187.29 321.622C183.727 289.656 212.2 260.252 250.886 255.947C281.756 252.511 309.801 266.093 321.684 287.963C321.684 287.963 359.646 347.263 334.377 372.886C309.108 398.509 229.908 368.549 229.908 368.549L229.927 368.533ZM261.354 340.937C276.961 338.884 288.881 328.17 290.55 315.574C290.793 313.744 290.819 311.873 290.608 309.984C288.924 294.87 272.73 284.268 254.438 286.304C236.147 288.34 222.684 302.243 224.369 317.356C226.054 332.47 242.248 343.072 260.539 341.036C260.812 341.006 261.084 340.973 261.354 340.937Z" fill="url(#paint0_linear_1364_9811)"/>
<path fill-rule="evenodd" clip-rule="evenodd" d="M252.627 314.784C255.41 311.75 257.572 311.704 261.647 311.109C265.721 310.514 270.345 308.452 273.88 310.565C277.416 312.677 279.958 316.927 281.365 320.798C282.773 324.668 282.491 330.813 281.139 334.703C284.295 335.066 287.548 333.714 290.089 335.622C292.629 337.529 294.944 341.656 296.174 344.585C297.404 347.515 297.254 351.69 296.837 354.84C296.42 357.989 295.172 360.971 293.222 363.478L290.979 366.309C290.979 366.309 295.053 362.633 299.972 366.457C307.772 372.522 308.296 386.865 302.234 394.665L275.527 429.032C275.422 429.211 275.305 429.383 275.177 429.546C262.667 445.644 246.999 453.266 231.234 454.308C215.59 455.335 200.233 449.863 188.122 440.447C163.523 421.321 160.279 392.358 163.667 364.21C164.139 358.372 164.725 352.544 165.427 346.73C167.824 326.033 191.856 316.438 208.137 329.061L220.582 313.045C222.478 310.606 224.973 308.7 227.824 307.511C230.675 306.322 232.6 301.532 235.667 301.902C238.734 302.272 243.262 303.135 246.406 305.68C248.893 307.513 251.364 311.964 252.627 314.784Z" fill="url(#paint1_linear_1364_9811)"/>
<path fill-rule="evenodd" clip-rule="evenodd" d="M249.456 312.301C252.238 309.266 255.983 307.284 260.057 306.69C264.131 306.095 268.286 306.923 271.821 309.036C275.357 311.148 278.056 314.415 279.464 318.285C280.871 322.156 280.902 326.393 279.55 330.283C282.705 330.647 285.708 331.843 288.248 333.751C290.789 335.658 292.776 338.208 294.006 341.137C295.236 344.067 295.665 347.271 295.248 350.42C294.83 353.569 293.583 356.551 291.632 359.058L289.39 361.889C289.39 361.889 293.275 360.738 298.194 364.562C305.994 370.627 306.706 382.445 300.644 390.245L273.938 424.613C273.832 424.791 273.715 424.963 273.587 425.126C261.077 441.224 245.41 448.846 229.645 449.888C214 450.915 198.643 445.443 186.532 436.027C161.933 416.901 158.689 387.938 162.077 359.79C162.549 353.952 163.136 348.124 163.837 342.31C166.235 321.613 190.266 312.019 206.547 324.641L218.993 308.626C220.888 306.187 223.383 304.28 226.234 303.091C229.085 301.903 232.195 301.472 235.262 301.842C238.329 302.212 241.248 303.37 243.735 305.203C246.222 307.036 248.193 309.481 249.456 312.301Z" fill="url(#paint2_linear_1364_9811)"/>
</g>
</g>
<defs>
<filter id="filter0_d_1364_9811" x="-20" y="-16" width="369" height="481" filterUnits="userSpaceOnUse" color-interpolation-filters="sRGB">
<feFlood flood-opacity="0" result="BackgroundImageFix"/>
<feColorMatrix in="SourceAlpha" type="matrix" values="0 0 0 0 0 0 0 0 0 0 0 0 0 0 0 0 0 0 127 0" result="hardAlpha"/>
<feOffset dy="4"/>
<feGaussianBlur stdDeviation="10"/>
<feComposite in2="hardAlpha" operator="out"/>
<feColorMatrix type="matrix" values="0 0 0 0 0 0 0 0 0 0 0 0 0 0 0 0 0 0 0.25 0"/>
<feBlend mode="normal" in2="BackgroundImageFix" result="effect1_dropShadow_1364_9811"/>
<feBlend mode="normal" in="SourceGraphic" in2="effect1_dropShadow_1364_9811" result="shape"/>
</filter>
<linearGradient id="paint0_linear_1364_9811" x1="281.286" y1="262.366" x2="231.741" y2="425.924" gradientUnits="userSpaceOnUse">
<stop stop-color="#81FFFF"/>
<stop offset="1" stop-color="#8DDD9F"/>
</linearGradient>
<linearGradient id="paint1_linear_1364_9811" x1="126.841" y1="321.686" x2="377.398" y2="415.372" gradientUnits="userSpaceOnUse">
<stop stop-color="#587E9B"/>
<stop offset="1" stop-color="#434595"/>
</linearGradient>
<linearGradient id="paint2_linear_1364_9811" x1="177.469" y1="323.838" x2="289.53" y2="388.148" gradientUnits="userSpaceOnUse">
<stop stop-color="#8DC4EB"/>
<stop offset="1" stop-color="#6363DB"/>
</linearGradient>
<clipPath id="clip0_1364_9811">
<rect width="329" height="441" fill="white"/>
</clipPath>
</defs>
</svg>
