<svg width="393" height="391" viewBox="0 0 393 391" fill="none" xmlns="http://www.w3.org/2000/svg">
<rect width="393" height="391" fill="white"/>
<rect x="108.688" y="90.5481" width="159.738" height="190.794" fill="#ACAFF4"/>
<path d="M306.131 67.1293C328.542 86.0343 345.622 110.458 355.68 137.984C365.739 165.51 368.426 195.182 363.477 224.064C358.527 252.946 346.113 280.036 327.462 302.652C308.811 325.268 284.571 342.626 257.141 353.007C229.711 363.389 200.043 366.434 171.073 361.841C142.102 357.248 114.835 345.177 91.9705 326.822C69.1056 308.467 51.436 284.465 40.7108 257.192C29.9856 229.918 26.5767 200.32 30.8216 171.326L31.7029 165.946L32.7499 160.596C38.8175 132.163 52.1566 105.786 71.4668 84.0369C90.7769 62.2874 115.399 45.9075 142.933 36.4939C170.467 27.0803 199.973 24.9544 228.574 30.3234C257.175 35.6925 283.896 48.3732 306.131 67.1293ZM243.719 243.042C241.132 239.405 237.205 236.944 232.801 236.199C228.398 235.454 223.878 236.487 220.237 239.071C215.671 242.314 210.503 244.615 205.035 245.838C199.568 247.061 193.911 247.181 188.396 246.192C182.882 245.203 177.62 243.125 172.92 240.078C168.219 237.032 164.175 233.08 161.023 228.452C158.481 224.834 154.614 222.361 150.261 221.568C145.908 220.775 141.417 221.726 137.759 224.214C134.102 226.702 131.572 230.528 130.716 234.865C129.86 239.202 130.747 243.702 133.185 247.391C138.858 255.716 146.137 262.827 154.596 268.308C163.054 273.788 172.522 277.527 182.446 279.307C192.369 281.086 202.548 280.87 212.386 278.671C222.225 276.472 231.525 272.334 239.743 266.5C243.384 263.915 245.848 259.992 246.593 255.593C247.339 251.194 246.305 246.68 243.719 243.042ZM156.836 137.106L154.71 136.844C150.425 136.59 146.204 137.98 142.911 140.731C139.617 143.481 137.499 147.384 136.99 151.642C136.48 155.9 137.618 160.191 140.169 163.64C142.721 167.088 146.494 169.433 150.719 170.196L152.845 170.457C157.13 170.711 161.351 169.321 164.644 166.571C167.938 163.82 170.055 159.917 170.565 155.659C171.075 151.401 169.937 147.11 167.386 143.661C164.834 140.213 161.061 137.868 156.836 137.106ZM256.299 154.942L254.173 154.681C249.888 154.427 245.667 155.817 242.374 158.567C239.08 161.318 236.962 165.221 236.453 169.478C235.943 173.736 237.081 178.028 239.632 181.476C242.184 184.925 245.957 187.27 250.182 188.032L252.308 188.294C256.593 188.548 260.814 187.157 264.107 184.407C267.401 181.657 269.518 177.754 270.028 173.496C270.538 169.238 269.4 164.946 266.849 161.498C264.297 158.05 260.523 155.705 256.299 154.942Z" fill="#6F74EC"/>
<path d="M292.608 64.8884C314.114 82.781 330.583 106.012 340.386 132.283C350.188 158.553 352.984 186.951 348.495 214.666C344.007 242.382 332.391 268.452 314.797 290.298C297.203 312.143 274.241 329.006 248.184 339.217C222.127 349.427 193.879 352.632 166.236 348.513C138.593 344.394 112.514 333.095 90.58 315.733C68.6462 298.372 51.6185 275.551 41.1826 249.528C30.7466 223.506 27.2642 195.186 31.0801 167.371L31.8774 162.208L32.8328 157.073C38.3901 129.777 50.8929 104.381 69.1224 83.3588C87.3518 62.337 110.686 46.4073 136.849 37.1229C163.013 27.8384 191.113 25.516 218.411 30.3821C245.708 35.2481 271.271 47.1366 292.608 64.8884ZM234.524 234.007C232.03 230.548 228.268 228.228 224.066 227.558C219.864 226.887 215.565 227.92 212.116 230.43C207.791 233.582 202.884 235.835 197.683 237.06C192.483 238.284 187.093 238.454 181.83 237.561C176.567 236.667 171.537 234.727 167.034 231.854C162.531 228.982 158.645 225.234 155.605 220.832C153.154 217.391 149.45 215.06 145.295 214.342C141.141 213.625 136.869 214.578 133.403 216.997C129.937 219.416 127.556 223.106 126.775 227.269C125.993 231.432 126.874 235.734 129.227 239.244C134.699 247.164 141.692 253.906 149.795 259.073C157.899 264.241 166.951 267.732 176.421 269.34C185.892 270.949 195.59 270.643 204.948 268.441C214.306 266.239 223.136 262.185 230.921 256.516C234.37 254.005 236.687 250.224 237.363 246.002C238.038 241.781 237.017 237.467 234.524 234.007ZM150.893 133.368L148.865 133.138C144.78 132.936 140.769 134.309 137.652 136.976C134.535 139.642 132.548 143.402 132.096 147.485C131.644 151.569 132.762 155.669 135.221 158.948C137.679 162.227 141.294 164.436 145.325 165.126L147.353 165.356C151.439 165.557 155.45 164.185 158.567 161.518C161.683 158.851 163.671 155.092 164.123 151.008C164.575 146.925 163.457 142.825 160.998 139.546C158.539 136.267 154.925 134.058 150.893 133.368ZM245.816 149.491L243.788 149.261C239.702 149.059 235.691 150.432 232.575 153.098C229.458 155.765 227.471 159.524 227.019 163.608C226.567 167.692 227.684 171.792 230.143 175.07C232.602 178.349 236.217 180.559 240.248 181.248L242.276 181.478C246.362 181.68 250.373 180.307 253.489 177.641C256.606 174.974 258.593 171.215 259.045 167.131C259.497 163.047 258.38 158.947 255.921 155.668C253.462 152.39 249.848 150.18 245.816 149.491Z" fill="url(#paint0_linear_2398_2374)"/>
<defs>
<linearGradient id="paint0_linear_2398_2374" x1="217.128" y1="30.1588" x2="163.14" y2="348.021" gradientUnits="userSpaceOnUse">
<stop stop-color="#EBECFF"/>
<stop offset="1" stop-color="#C5C8FF"/>
</linearGradient>
</defs>
</svg>
