<svg width="329" height="96" viewBox="0 0 329 96" fill="none" xmlns="http://www.w3.org/2000/svg">
<g clip-path="url(#clip0_1364_19959)">
<rect width="329" height="96" rx="16" fill="#4B51E7"/>
<path d="M300.044 27.4C306.424 32.8364 311.281 39.866 314.134 47.7931C316.987 55.7201 317.738 64.2696 316.312 72.5952C314.886 80.9209 311.333 88.7339 306.004 95.261C300.675 101.788 293.755 106.803 285.93 109.809C278.104 112.814 269.644 113.707 261.387 112.399C253.13 111.09 245.363 107.625 238.854 102.348C232.345 97.0702 227.319 90.1624 224.276 82.3085C221.232 74.4546 220.276 65.9268 221.501 57.5693L221.755 56.0184L222.056 54.476C223.801 46.2792 227.617 38.6712 233.134 32.3935C238.65 26.1159 245.678 21.3828 253.533 18.6558C261.388 15.9289 269.801 15.301 277.952 16.8335C286.103 18.3659 293.715 22.0064 300.044 27.4ZM282.16 78.1262C281.424 77.0795 280.306 76.3722 279.051 76.1598C277.796 75.9474 276.507 76.2474 275.467 76.9938C274.164 77.9309 272.689 78.5965 271.13 78.9518C269.571 79.307 267.958 79.3446 266.386 79.0625C264.814 78.7803 263.315 78.1841 261.977 77.3087C260.638 76.4332 259.487 75.2963 258.591 73.9643C257.868 72.9231 256.767 72.2125 255.527 71.9862C254.286 71.7599 253.005 72.0361 251.961 72.755C250.917 73.474 250.194 74.5779 249.947 75.8282C249.701 77.0784 249.952 78.3746 250.645 79.4364C252.258 81.8327 254.33 83.8782 256.738 85.4531C259.147 87.0281 261.844 88.1008 264.672 88.6085C267.501 89.1162 270.403 89.0486 273.209 88.4098C276.015 87.771 278.668 86.5737 281.014 84.8881C282.054 84.1415 282.758 83.0097 282.973 81.7417C283.188 80.4736 282.895 79.1731 282.16 78.1262ZM257.445 47.6426L256.839 47.5683C255.617 47.4974 254.413 47.9002 253.473 48.6945C252.532 49.4888 251.927 50.6146 251.779 51.8419C251.632 53.0692 251.954 54.3053 252.679 55.2978C253.405 56.2902 254.48 56.964 255.684 57.1815L256.29 57.2558C257.511 57.3268 258.715 56.924 259.656 56.1297C260.596 55.3354 261.202 54.2096 261.349 52.9823C261.497 51.755 261.175 50.5188 260.449 49.5264C259.723 48.534 258.649 47.8602 257.445 47.6426ZM285.792 52.7313L285.186 52.6571C283.964 52.5861 282.76 52.9889 281.82 53.7832C280.88 54.5775 280.274 55.7033 280.126 56.9306C279.979 58.1579 280.301 59.394 281.027 60.3865C281.752 61.3789 282.827 62.0527 284.031 62.2703L284.637 62.3445C285.858 62.4155 287.062 62.0127 288.003 61.2184C288.943 60.4241 289.549 59.2983 289.696 58.071C289.844 56.8437 289.522 55.6076 288.796 54.6151C288.07 53.6227 286.996 52.9489 285.792 52.7313Z" fill="#6F74EC"/>
<path d="M298.387 27.1921C304.597 32.4358 309.329 39.2104 312.116 46.8452C314.903 54.4801 315.648 62.7104 314.276 70.7214C312.905 78.7325 309.465 86.2464 304.297 92.5195C299.13 98.7926 292.413 103.607 284.813 106.487C277.212 109.366 268.992 110.211 260.964 108.937C252.937 107.663 245.382 104.315 239.047 99.2238C232.711 94.1326 227.815 87.4751 224.843 79.9103C221.872 72.3455 220.927 64.1357 222.103 56.0937L222.348 54.6014L222.638 53.1173C224.319 45.2309 228.015 37.9147 233.366 31.882C238.716 25.8493 245.538 21.3059 253.168 18.6948C260.797 16.0837 268.972 15.494 276.897 16.9832C284.822 18.4724 292.226 21.9897 298.387 27.1921ZM281.094 75.9856C280.377 74.9768 279.289 74.2941 278.068 74.0875C276.848 73.8809 275.596 74.1674 274.587 74.884C273.322 75.7837 271.89 76.4218 270.375 76.761C268.86 77.1002 267.293 77.1336 265.765 76.8593C264.237 76.585 262.779 76.0085 261.476 75.1635C260.174 74.3186 259.053 73.2223 258.18 71.9387C257.475 70.9352 256.404 70.2494 255.198 70.0294C253.992 69.8094 252.747 70.073 251.734 70.7632C250.721 71.4533 250.019 72.5146 249.782 73.7176C249.545 74.9206 249.791 76.1686 250.467 77.1918C252.038 79.501 254.055 81.4735 256.399 82.9936C258.743 84.5137 261.366 85.5509 264.116 86.0444C266.865 86.538 269.686 86.4781 272.412 85.8681C275.138 85.2581 277.715 84.1103 279.992 82.492C281.001 81.7752 281.683 80.6871 281.89 79.4669C282.097 78.2468 281.81 76.9945 281.094 75.9856ZM257.02 46.6017L256.431 46.5292C255.243 46.4588 254.074 46.8444 253.161 47.6073C252.249 48.3701 251.662 49.4527 251.521 50.6337C251.38 51.8147 251.695 53.0051 252.402 53.9616C253.109 54.9181 254.154 55.5685 255.325 55.78L255.914 55.8526C257.101 55.923 258.271 55.5373 259.183 54.7745C260.096 54.0116 260.683 52.929 260.824 51.748C260.965 50.567 260.65 49.3766 259.943 48.4201C259.236 47.4636 258.19 46.8132 257.02 46.6017ZM284.579 51.549L283.99 51.4765C282.803 51.4061 281.633 51.7917 280.721 52.5546C279.808 53.3174 279.221 54.4 279.08 55.581C278.939 56.762 279.254 57.9524 279.961 58.9089C280.668 59.8654 281.714 60.5158 282.884 60.7273L283.473 60.7999C284.661 60.8703 285.83 60.4846 286.743 59.7218C287.655 58.9589 288.242 57.8764 288.383 56.6953C288.525 55.5143 288.209 54.3239 287.502 53.3674C286.795 52.4109 285.75 51.7605 284.579 51.549Z" fill="url(#paint0_linear_1364_19959)"/>
</g>
<defs>
<linearGradient id="paint0_linear_1364_19959" x1="276.525" y1="16.9148" x2="260.034" y2="108.78" gradientUnits="userSpaceOnUse">
<stop stop-color="#EBECFF"/>
<stop offset="1" stop-color="#C5C8FF"/>
</linearGradient>
<clipPath id="clip0_1364_19959">
<rect width="329" height="96" fill="white"/>
</clipPath>
</defs>
</svg>
