<svg width="120" height="22" viewBox="0 0 120 22" fill="none" xmlns="http://www.w3.org/2000/svg">
<path fill-rule="evenodd" clip-rule="evenodd" d="M11.3548 14.8712C7.69055 13.0805 5.71321 9.32241 6.86358 5.94057C8.14617 2.17003 12.8311 0.295059 17.3277 1.75271C20.8953 2.90924 23.2724 5.8162 23.4617 8.85116L23.8239 8.75381C23.8239 8.75381 24.8812 17.0808 20.6597 18.5755C17.9663 19.5292 13.9266 16.8998 11.3548 14.8712ZM18.7601 10.1148L18.5529 10.1705C17.6993 11.3891 15.8532 11.9172 14.0171 11.3896L13.353 11.5681C11.5892 10.7313 10.6316 8.93603 11.1806 7.32206C11.787 5.5393 14.0021 4.65279 16.1281 5.34198C18.2541 6.03118 19.486 8.0351 18.8796 9.81787C18.8449 9.91983 18.805 10.0189 18.7601 10.1148Z" fill="#91C690"/>
<path fill-rule="evenodd" clip-rule="evenodd" d="M9.30992 11.9837C7.03755 10.053 5.95459 7.27461 6.7673 4.69679C7.94422 0.963764 12.6509 -0.934975 17.2799 0.455837C20.9736 1.56562 23.5018 4.43454 23.7747 7.44519C23.7747 7.44519 25.1699 15.8861 21.0162 17.5186C16.8626 19.1511 9.30689 11.9847 9.30689 11.9847L9.30992 11.9837ZM14.2641 10.4293C16.1472 10.9551 18.0386 10.338 18.8532 9.0156C18.9715 8.82342 19.0672 8.61634 19.1367 8.39572C19.6932 6.63069 18.37 4.66677 16.1814 4.00918C13.9927 3.35159 11.7673 4.24933 11.2109 6.01436C10.6544 7.77938 11.9776 9.7433 14.1662 10.4009C14.1989 10.4107 14.2315 10.4202 14.2641 10.4293Z" fill="url(#paint0_linear_1364_20139)"/>
<path fill-rule="evenodd" clip-rule="evenodd" d="M14.5637 7.0941C15.0317 6.89058 15.2807 6.99009 15.7753 7.12081C16.2698 7.25153 16.8998 7.24538 17.1986 7.6516C17.4975 8.05782 17.5771 8.65419 17.546 9.15341C17.5149 9.65262 17.1783 10.3235 16.8313 10.6914C17.1735 10.8845 17.6118 10.8911 17.8073 11.2264C18.0028 11.5617 18.0625 12.1333 18.0578 12.5191C18.0531 12.9049 17.8291 13.3628 17.6255 13.6935C17.4218 14.0241 17.1317 14.2959 16.7849 14.4809L16.3886 14.6878C16.3886 14.6878 17.0358 14.4753 17.4078 15.1391C17.9976 16.1918 17.3468 17.8148 16.2684 18.3907L11.5175 20.9277C11.4966 20.9425 11.4748 20.9559 11.4521 20.9679C9.22665 22.1563 7.06071 22.2479 5.20967 21.6017C3.37313 20.9597 1.89132 19.6077 0.975458 17.9732C-0.884759 14.6534 0.179892 11.2703 1.96107 8.29864C2.3041 7.67114 2.6598 7.05033 3.02796 6.43656C4.32693 4.24704 7.54523 4.34013 8.77824 6.53333L10.9922 5.35106C11.3294 5.17102 11.7086 5.07925 12.0929 5.08469C12.4772 5.09013 12.9343 4.64962 13.266 4.83912C13.5978 5.02862 14.0719 5.34371 14.3046 5.77914C14.4977 6.10355 14.5593 6.71892 14.5637 7.0941Z" fill="url(#paint1_linear_1364_20139)"/>
<path fill-rule="evenodd" clip-rule="evenodd" d="M14.3247 6.66417C14.7927 6.46065 15.3183 6.42089 15.8128 6.55161C16.3073 6.68233 16.7405 6.97551 17.0394 7.38174C17.3382 7.78796 17.4845 8.28236 17.4534 8.78158C17.4223 9.2808 17.2159 9.75429 16.8688 10.1222C17.211 10.3153 17.4944 10.5937 17.6899 10.929C17.8854 11.2644 17.9859 11.6444 17.9812 12.0302C17.9765 12.416 17.8666 12.7936 17.663 13.1243C17.4594 13.4549 17.1692 13.7267 16.8224 13.9117L16.4262 14.1186C16.4262 14.1186 16.9267 14.1783 17.2987 14.8421C17.8885 15.8948 17.3843 17.2456 16.306 17.8215L11.555 20.3585C11.5342 20.3733 11.5123 20.3867 11.4896 20.3987C9.26417 21.5871 7.09822 21.6786 5.24718 21.0325C3.41065 20.3905 1.92884 19.0385 1.01297 17.404C-0.847242 14.0842 0.217407 10.7011 1.99858 7.72944C2.34161 7.10194 2.69732 6.48113 3.06547 5.86735C4.36445 3.67784 7.58274 3.77093 8.81575 5.96413L11.0297 4.78186C11.3669 4.60182 11.7461 4.51005 12.1304 4.51549C12.5147 4.52092 12.8911 4.62338 13.2228 4.81288C13.5545 5.00238 13.8303 5.27248 14.0234 5.59689C14.2165 5.92131 14.3203 6.28899 14.3247 6.66417Z" fill="url(#paint2_linear_1364_20139)"/>
<path d="M42.744 17.012H39.944V12.154H35.8V17.012H33V5.168H35.8V9.914H39.944V5.168H42.744V17.012Z" fill="url(#paint3_linear_1364_20139)"/>
<path d="M49.1826 5C52.3606 5 54.4326 6.694 54.4326 9.34V12.854C54.4326 15.5 52.3606 17.194 49.1826 17.194C46.0046 17.194 43.9326 15.5 43.9326 12.854V9.34C43.9326 6.694 46.0046 5 49.1826 5ZM44.3246 11.09C46.7466 11.09 49.1826 13.764 49.1826 16.858C49.1826 13.764 51.6186 11.076 54.0406 11.076C51.6186 11.076 49.1826 8.388 49.1826 5.294C49.1826 8.388 46.7466 11.09 44.3246 11.09Z" fill="url(#paint4_linear_1364_20139)"/>
<path d="M65.4409 17.012H62.669L59.183 11.174C58.889 10.684 58.665 10.306 58.315 9.83C58.371 10.488 58.399 11.146 58.399 11.734V17.012H55.627V5.168H58.399L61.801 10.726C62.151 11.3 62.487 11.916 62.753 12.602C62.669 11.958 62.669 11.272 62.669 10.614V5.168H65.4409V17.012Z" fill="url(#paint5_linear_1364_20139)"/>
<path d="M66.4879 17.012V15.192L72.0179 7.408H66.6279V5.168H75.3219V6.988L69.7639 15.122C71.6259 15.122 73.9499 14.94 75.3919 14.212V17.012H66.4879Z" fill="url(#paint6_linear_1364_20139)"/>
<path d="M84.3035 17.012L83.5055 14.8H79.5295L78.7315 17.012H75.7355L80.1315 5.168H82.9175L87.2995 17.012H84.3035ZM84.0795 10.292C82.1475 10.292 81.5455 8.514 81.5175 6.442C81.4895 8.514 80.8735 10.292 78.9555 10.292C80.9295 10.292 81.5175 12.308 81.5175 14.31C81.5175 12.308 82.1055 10.292 84.0795 10.292Z" fill="url(#paint7_linear_1364_20139)"/>
<path d="M90.8019 17.012H88.002V5.168H93.252C95.8419 5.168 97.55 6.904 97.55 9.396C97.55 11.874 95.702 13.47 93.252 13.47H90.8019V17.012ZM92.7199 5.616C92.7199 7.674 90.8019 9.242 88.9819 9.312C90.8019 9.396 92.7199 11.09 92.7199 13.008C92.7199 11.09 94.638 9.382 96.458 9.298C94.638 9.228 92.7199 7.674 92.7199 5.616Z" fill="url(#paint8_linear_1364_20139)"/>
<path d="M98.5293 17.012V5.168H103.625C106.663 5.168 108.511 7.52 108.511 11.09C108.511 14.66 106.663 17.012 103.625 17.012H98.5293ZM98.7813 11.02C101.203 11.02 103.499 13.624 103.499 16.718C103.499 13.624 105.795 11.006 108.217 11.006C105.795 11.006 103.499 8.374 103.499 5.28C103.499 8.374 101.203 11.02 98.7813 11.02Z" fill="url(#paint9_linear_1364_20139)"/>
<path d="M116.87 17.012L116.072 14.8H112.096L111.298 17.012H108.302L112.698 5.168H115.484L119.866 17.012H116.87ZM116.646 10.292C114.714 10.292 114.112 8.514 114.084 6.442C114.056 8.514 113.44 10.292 111.522 10.292C113.496 10.292 114.084 12.308 114.084 14.31C114.084 12.308 114.672 10.292 116.646 10.292Z" fill="url(#paint10_linear_1364_20139)"/>
<defs>
<linearGradient id="paint0_linear_1364_20139" x1="78.3951" y1="0.768159" x2="77.3832" y2="20.4557" gradientUnits="userSpaceOnUse">
<stop stop-color="#81FFFF"/>
<stop offset="1" stop-color="#8DDD9F"/>
</linearGradient>
<linearGradient id="paint1_linear_1364_20139" x1="-22.2263" y1="7.32568" x2="9.54519" y2="77.3401" gradientUnits="userSpaceOnUse">
<stop stop-color="#587E9B"/>
<stop offset="1" stop-color="#434595"/>
</linearGradient>
<linearGradient id="paint2_linear_1364_20139" x1="27.6519" y1="4.46877" x2="30.441" y2="23.6277" gradientUnits="userSpaceOnUse">
<stop stop-color="#8DC4EB"/>
<stop offset="1" stop-color="#6363DB"/>
</linearGradient>
<linearGradient id="paint3_linear_1364_20139" x1="72.084" y1="-8.26404" x2="77.4222" y2="13.5158" gradientUnits="userSpaceOnUse">
<stop stop-color="#4B51E7"/>
<stop offset="1" stop-color="#353AA4"/>
</linearGradient>
<linearGradient id="paint4_linear_1364_20139" x1="72.084" y1="-8.26404" x2="77.4222" y2="13.5158" gradientUnits="userSpaceOnUse">
<stop stop-color="#4B51E7"/>
<stop offset="1" stop-color="#353AA4"/>
</linearGradient>
<linearGradient id="paint5_linear_1364_20139" x1="72.084" y1="-8.26404" x2="77.4222" y2="13.5158" gradientUnits="userSpaceOnUse">
<stop stop-color="#4B51E7"/>
<stop offset="1" stop-color="#353AA4"/>
</linearGradient>
<linearGradient id="paint6_linear_1364_20139" x1="72.084" y1="-8.26404" x2="77.4222" y2="13.5158" gradientUnits="userSpaceOnUse">
<stop stop-color="#4B51E7"/>
<stop offset="1" stop-color="#353AA4"/>
</linearGradient>
<linearGradient id="paint7_linear_1364_20139" x1="72.084" y1="-8.26404" x2="77.4222" y2="13.5158" gradientUnits="userSpaceOnUse">
<stop stop-color="#4B51E7"/>
<stop offset="1" stop-color="#353AA4"/>
</linearGradient>
<linearGradient id="paint8_linear_1364_20139" x1="72.084" y1="-8.26404" x2="77.4222" y2="13.5158" gradientUnits="userSpaceOnUse">
<stop stop-color="#4B51E7"/>
<stop offset="1" stop-color="#353AA4"/>
</linearGradient>
<linearGradient id="paint9_linear_1364_20139" x1="72.084" y1="-8.26404" x2="77.4222" y2="13.5158" gradientUnits="userSpaceOnUse">
<stop stop-color="#4B51E7"/>
<stop offset="1" stop-color="#353AA4"/>
</linearGradient>
<linearGradient id="paint10_linear_1364_20139" x1="72.084" y1="-8.26404" x2="77.4222" y2="13.5158" gradientUnits="userSpaceOnUse">
<stop stop-color="#4B51E7"/>
<stop offset="1" stop-color="#353AA4"/>
</linearGradient>
</defs>
</svg>
