<svg width="22" height="26" viewBox="0 0 22 26" fill="none" xmlns="http://www.w3.org/2000/svg">
<path d="M10.6286 12.9776C9.78798 12.8416 9.03356 12.3911 8.53131 11.7254C8.02905 11.0596 7.82012 10.233 7.95047 9.42747C8.08082 8.62195 8.53978 7.90346 9.22637 7.43005C9.91297 6.95665 10.771 6.76712 11.6116 6.90315C12.4522 7.03919 13.2067 7.48964 13.7089 8.15542C14.2112 8.8212 14.4201 9.64777 14.2897 10.4533C14.2252 10.8522 14.0793 11.2338 13.8604 11.5766C13.6415 11.9193 13.3538 12.2163 13.0139 12.4507C12.6739 12.6851 12.2883 12.8523 11.879 12.9427C11.4697 13.0331 11.0449 13.045 10.6286 12.9776ZM12.4963 1.43613C10.1425 1.05524 7.7401 1.58593 5.81764 2.91146C3.89518 4.23698 3.91642 6.51446 3.55144 8.76993C2.90274 12.7787 4.2594 18.2888 6.32747 22.0269C7.44337 24.0439 10.1612 24.4837 11.8563 22.9216C14.9977 20.0265 19.3464 15.3853 19.9951 11.3765C20.3601 9.12107 19.7751 6.80667 18.3688 4.94248C16.9625 3.0783 14.8501 1.81702 12.4963 1.43613Z" fill="#353AA4"/>
<path d="M10.0264 12.5318C9.24807 12.4058 8.55184 11.9745 8.09091 11.3326C7.62998 10.6907 7.44211 9.89082 7.56862 9.10898C7.69514 8.32715 8.12568 7.62738 8.76553 7.1636C9.40539 6.69983 10.2021 6.51004 10.9805 6.636C11.7589 6.76195 12.4551 7.19333 12.916 7.83524C13.377 8.47714 13.5648 9.27699 13.4383 10.0588C13.3757 10.4459 13.2377 10.817 13.0324 11.1508C12.827 11.4846 12.5582 11.7746 12.2414 12.0042C11.9246 12.2338 11.5659 12.3986 11.1859 12.4892C10.8058 12.5797 10.4119 12.5942 10.0264 12.5318ZM11.8392 1.32977C9.65972 0.977094 7.42883 1.50849 5.63724 2.80706C3.84566 4.10563 2.64014 6.065 2.2859 8.25413C1.65628 12.145 4.08435 17.7256 5.97526 21.3349C6.99556 23.2825 9.51208 23.6897 11.0945 22.1633C14.0273 19.3345 18.0914 14.8045 18.7211 10.9137C19.0753 8.72454 18.5493 6.48497 17.2587 4.68764C15.968 2.89031 14.0186 1.68245 11.8392 1.32977Z" fill="url(#paint0_linear_3854_16795)"/>
<defs>
<linearGradient id="paint0_linear_3854_16795" x1="11.8392" y1="1.32977" x2="8.32409" y2="23.0518" gradientUnits="userSpaceOnUse">
<stop stop-color="#8A8DE6"/>
<stop offset="1" stop-color="#4B51E7"/>
</linearGradient>
</defs>
</svg>
