<svg width="13" height="13" viewBox="0 0 13 13" fill="none" xmlns="http://www.w3.org/2000/svg">
<g id="icon_home_phoneNumber_fill">
<path id="Vector" d="M11.7752 8.8908C11.6846 9.5789 11.3467 10.2105 10.8245 10.6677C10.3023 11.1248 9.63154 11.3763 8.9375 11.375C4.90547 11.375 1.625 8.09455 1.625 4.06252C1.62376 3.36849 1.8752 2.69773 2.33235 2.17554C2.78951 1.65334 3.42112 1.31541 4.10922 1.22486C4.28323 1.20362 4.45944 1.23921 4.61154 1.32634C4.76365 1.41347 4.88351 1.54746 4.95321 1.7083L6.02571 4.10264V4.10873C6.07907 4.23185 6.10111 4.36627 6.08986 4.49999C6.0786 4.6337 6.03441 4.76255 5.96122 4.87502C5.95208 4.88873 5.94243 4.90143 5.93227 4.91412L4.875 6.1674C5.25536 6.94029 6.06379 7.74162 6.84684 8.12299L8.08286 7.07131C8.09499 7.0611 8.10771 7.05161 8.12094 7.04287C8.23332 6.96792 8.36261 6.92217 8.49711 6.90975C8.63162 6.89734 8.7671 6.91866 8.89129 6.97178L8.8979 6.97482L11.2902 8.04682C11.4513 8.11627 11.5856 8.23602 11.6731 8.38815C11.7605 8.54028 11.7963 8.71662 11.7752 8.8908Z" fill="white"/>
</g>
</svg>
