<svg width="381" height="70" viewBox="0 0 381 70" fill="none" xmlns="http://www.w3.org/2000/svg">
<g filter="url(#filter0_d_3854_5438)">
<rect x="10" y="6" width="361" height="50" rx="12" fill="#F5F4F3"/>
<path d="M37.936 28.412V26.168H35.224V25.016H39.22V27.368H40.6V24.896H41.848V35.576H40.6V32.228H38.5C37.864 33.62 36.76 34.604 35.104 35.072V33.812C36.88 33.188 37.936 31.388 37.936 28.412ZM39.22 28.508C39.208 29.456 39.112 30.32 38.908 31.088H40.6V28.508H39.22ZM44.152 24.824V35.708H42.88V24.824H44.152ZM46.7315 26.084V24.956H52.3475V26.084H50.1875V26.492C50.1875 28.34 51.1955 29.216 52.5515 29.516V30.668C51.2435 30.44 50.1275 29.756 49.5635 28.832C48.9995 29.768 47.8595 30.596 46.5395 30.812V29.648C47.9195 29.348 48.8915 28.376 48.8915 26.492V26.084H46.7315ZM55.5275 31.028H54.2195V28.244H51.9755V27.128H54.2195V24.824H55.5275V31.028ZM51.5075 35.96C50.2595 35.96 49.0235 35.792 48.1955 35.276C47.6195 34.916 47.2475 34.376 47.2475 33.644C47.2475 32.912 47.6195 32.372 48.1955 32.012C49.0235 31.508 50.2595 31.328 51.5075 31.328C52.7555 31.328 54.0035 31.508 54.8195 32.012C55.3955 32.372 55.7795 32.912 55.7795 33.644C55.7795 34.376 55.3955 34.916 54.8195 35.276C54.0035 35.792 52.7555 35.96 51.5075 35.96ZM51.5075 32.444C50.5235 32.444 49.5635 32.564 49.0115 32.9C48.7235 33.092 48.5435 33.332 48.5435 33.644C48.5435 33.956 48.7235 34.196 49.0115 34.376C49.5635 34.712 50.5235 34.844 51.5075 34.844C52.5035 34.844 53.4635 34.712 54.0035 34.376C54.2915 34.196 54.4715 33.956 54.4715 33.644C54.4715 33.332 54.2915 33.092 54.0035 32.9C53.4635 32.564 52.5035 32.444 51.5075 32.444ZM58.1311 29.972C58.1311 27.356 58.3591 26.024 58.9831 25.34C59.3071 25.004 59.7271 24.824 60.3031 24.824C60.8791 24.824 61.3111 25.004 61.6231 25.34C62.1871 25.952 62.4271 27.068 62.4751 29.144H63.6631V24.896H64.9351V35.576H63.6631V30.284H62.4871C62.4631 32.696 62.2351 33.944 61.6231 34.604C61.3111 34.928 60.8791 35.096 60.3031 35.096C59.7271 35.096 59.3071 34.928 58.9831 34.604C58.3591 33.92 58.1311 32.588 58.1311 29.972ZM59.3791 29.972C59.3791 32.216 59.4751 33.296 59.8111 33.74C59.9311 33.908 60.0991 33.98 60.3031 33.98C60.5191 33.98 60.6751 33.908 60.8071 33.74C61.1431 33.296 61.2271 32.216 61.2271 29.972C61.2271 27.728 61.1431 26.636 60.8071 26.204C60.6751 26.036 60.5191 25.952 60.3031 25.952C60.0991 25.952 59.9311 26.036 59.8111 26.204C59.4751 26.636 59.3791 27.728 59.3791 29.972ZM67.1911 35.708H65.9191V24.824H67.1911V35.708ZM72.5186 32.264C72.0386 33.512 70.7666 34.52 69.3746 34.976V33.776C70.6826 33.176 71.8706 32.072 71.8706 29.036V24.956H73.1666V29.036C73.1666 32.072 74.3546 33.164 75.6506 33.776V34.976C74.2826 34.508 73.0106 33.5 72.5186 32.264ZM78.5426 24.824V35.708H77.2346V29.888H74.7026V28.748H77.2346V24.824H78.5426ZM84.7823 26.084V24.956H90.3983V26.084H88.2383V26.492C88.2383 28.34 89.2463 29.216 90.6023 29.516V30.668C89.2943 30.44 88.1783 29.756 87.6143 28.832C87.0503 29.768 85.9103 30.596 84.5903 30.812V29.648C85.9703 29.348 86.9423 28.376 86.9423 26.492V26.084H84.7823ZM93.5783 31.028H92.2703V28.244H90.0263V27.128H92.2703V24.824H93.5783V31.028ZM89.5583 35.96C88.3103 35.96 87.0743 35.792 86.2463 35.276C85.6703 34.916 85.2983 34.376 85.2983 33.644C85.2983 32.912 85.6703 32.372 86.2463 32.012C87.0743 31.508 88.3103 31.328 89.5583 31.328C90.8063 31.328 92.0543 31.508 92.8703 32.012C93.4463 32.372 93.8303 32.912 93.8303 33.644C93.8303 34.376 93.4463 34.916 92.8703 35.276C92.0543 35.792 90.8063 35.96 89.5583 35.96ZM89.5583 32.444C88.5743 32.444 87.6143 32.564 87.0623 32.9C86.7743 33.092 86.5943 33.332 86.5943 33.644C86.5943 33.956 86.7743 34.196 87.0623 34.376C87.6143 34.712 88.5743 34.844 89.5583 34.844C90.5543 34.844 91.5143 34.712 92.0543 34.376C92.3423 34.196 92.5223 33.956 92.5223 33.644C92.5223 33.332 92.3423 33.092 92.0543 32.9C91.5143 32.564 90.5543 32.444 89.5583 32.444ZM99.5058 24.896V26.24C99.5058 28.124 100.538 29.096 101.93 29.516V30.668C100.562 30.38 99.4218 29.612 98.8578 28.7C98.3418 29.648 97.1898 30.464 95.7738 30.8V29.648C97.2018 29.192 98.2098 28.076 98.2098 26.24V24.896H99.5058ZM104.81 24.824V27.272H106.394V28.412H104.81V31.028H103.502V24.824H104.81ZM96.6378 33.644C96.6378 32.984 96.9498 32.48 97.4418 32.108C98.2218 31.556 99.4458 31.328 100.862 31.328C102.266 31.328 103.502 31.556 104.27 32.108C104.762 32.48 105.074 32.984 105.074 33.644C105.074 34.316 104.762 34.82 104.27 35.192C103.502 35.744 102.266 35.96 100.862 35.96C99.4458 35.96 98.2218 35.744 97.4418 35.192C96.9498 34.82 96.6378 34.316 96.6378 33.644ZM97.9458 33.644C97.9458 33.944 98.1018 34.196 98.3898 34.388C98.8698 34.712 99.7458 34.844 100.862 34.844C101.966 34.844 102.842 34.712 103.346 34.388C103.622 34.196 103.766 33.944 103.766 33.644C103.766 33.344 103.622 33.092 103.346 32.9C102.842 32.588 101.966 32.444 100.862 32.444C99.7458 32.444 98.8698 32.588 98.3898 32.9C98.1018 33.092 97.9458 33.344 97.9458 33.644ZM107.821 26.084V24.956H113.437V26.084H111.277V26.624C111.277 28.472 112.285 29.348 113.641 29.648V30.8C112.333 30.572 111.217 29.888 110.653 28.964C110.089 29.9 108.949 30.716 107.629 30.944V29.768C109.009 29.48 109.981 28.496 109.981 26.624V26.084H107.821ZM116.617 31.112H115.309V28.316H113.065V27.188H115.309V24.824H116.617V31.112ZM115.309 35.888V32.96H108.349V31.82H116.617V35.888H115.309ZM119.377 28.232C119.377 27.164 119.833 26.264 120.601 25.712C121.393 25.136 122.533 24.896 123.889 24.896C125.257 24.896 126.385 25.136 127.189 25.712C127.945 26.264 128.413 27.164 128.413 28.232C128.413 29.288 127.945 30.176 127.189 30.728C126.385 31.316 125.257 31.556 123.889 31.556C122.533 31.556 121.393 31.316 120.601 30.728C119.833 30.176 119.377 29.288 119.377 28.232ZM120.685 28.232C120.685 28.868 120.937 29.408 121.381 29.756C121.933 30.176 122.797 30.416 123.889 30.416C124.993 30.416 125.857 30.176 126.409 29.756C126.853 29.408 127.105 28.868 127.105 28.232C127.105 27.572 126.853 27.032 126.409 26.684C125.857 26.264 124.993 26.036 123.889 26.036C122.797 26.036 121.933 26.264 121.381 26.684C120.937 27.032 120.685 27.572 120.685 28.232ZM119.053 35.228V34.1H128.713V35.228H119.053ZM132.444 29.036V30.812H139.8V31.94H136.08V34.1H140.232V35.228H130.572V34.1H134.784V31.94H131.136V27.908H138.36V26.168H131.136V25.016H139.668V29.036H132.444ZM147.456 29.036V30.812H154.812V31.94H151.092V34.1H155.244V35.228H145.584V34.1H149.796V31.94H146.148V27.908H153.372V26.168H146.148V25.016H154.68V29.036H147.456ZM164.892 28.808V26.168H157.596V25.016H166.2V28.64C166.2 29.984 166.08 31.436 165.852 32.504H164.568C164.796 31.448 164.892 29.996 164.892 28.808ZM157.104 35.228V34.1H166.764V35.228H157.104ZM173.111 29.972C173.111 28.244 172.979 26.984 172.547 26.408C172.319 26.108 171.983 25.952 171.599 25.952C171.203 25.952 170.867 26.108 170.651 26.408C170.195 26.984 170.087 28.244 170.087 29.972C170.087 31.7 170.195 32.96 170.651 33.548C170.867 33.824 171.203 33.98 171.599 33.98C171.983 33.98 172.319 33.824 172.547 33.548C172.979 32.96 173.111 31.7 173.111 29.972ZM168.791 29.972C168.791 28.004 168.983 26.528 169.667 25.676C170.123 25.124 170.783 24.824 171.599 24.824C172.403 24.824 173.075 25.124 173.519 25.676C174.215 26.528 174.407 28.004 174.407 29.972C174.407 31.94 174.215 33.416 173.519 34.268C173.075 34.82 172.403 35.096 171.599 35.096C170.783 35.096 170.123 34.82 169.667 34.268C168.983 33.416 168.791 31.94 168.791 29.972ZM177.419 24.824V29.264H179.123V30.404H177.419V35.708H176.111V24.824H177.419ZM180.587 26.948C180.587 26.348 180.839 25.88 181.307 25.556C182.039 25.028 183.311 24.812 184.991 24.812C186.659 24.812 187.931 25.028 188.663 25.556C189.131 25.88 189.383 26.348 189.383 26.948C189.383 27.548 189.131 28.004 188.663 28.328C187.931 28.856 186.659 29.072 184.991 29.072C183.311 29.072 182.039 28.856 181.307 28.328C180.839 28.004 180.587 27.548 180.587 26.948ZM181.895 26.948C181.895 27.188 182.027 27.392 182.267 27.548C182.783 27.86 183.743 27.968 184.991 27.968C186.227 27.968 187.199 27.86 187.703 27.548C187.943 27.392 188.087 27.188 188.087 26.948C188.087 26.696 187.943 26.492 187.703 26.348C187.199 26.036 186.227 25.904 184.991 25.904C183.743 25.904 182.783 26.036 182.267 26.348C182.027 26.492 181.895 26.696 181.895 26.948ZM180.071 30.944V29.828H189.875V30.944H185.603V32.132H184.319V30.944H180.071ZM184.967 34.328C184.055 35.276 182.183 35.78 180.383 35.828V34.724C182.339 34.652 184.307 33.956 184.307 32.6V32.36H185.603V32.6C185.603 33.956 187.571 34.616 189.551 34.724V35.828C187.655 35.792 185.879 35.264 184.967 34.328ZM197.674 26.168H193.462V30.02H197.806V31.148H195.634V33.968H197.098C198.082 33.968 198.91 33.824 199.414 33.404V24.824H200.722V35.708H199.414V34.472C198.946 34.916 197.962 35.084 196.762 35.084H191.698V33.968H194.338V31.148H192.154V25.016H197.674V26.168ZM203.326 27.632C203.326 26.624 203.65 25.856 204.238 25.364C204.73 24.968 205.402 24.752 206.182 24.752C206.974 24.752 207.634 24.968 208.126 25.364C208.606 25.76 208.906 26.336 209.002 27.08H210.958V24.824H212.266V30.956H210.958V28.208H209.002C208.894 28.928 208.594 29.492 208.126 29.888C207.634 30.296 206.974 30.5 206.182 30.5C205.402 30.5 204.73 30.296 204.238 29.888C203.65 29.396 203.326 28.628 203.326 27.632ZM204.598 27.632C204.598 28.232 204.778 28.7 205.102 29C205.378 29.24 205.738 29.384 206.182 29.384C206.626 29.384 206.998 29.24 207.262 29C207.586 28.7 207.766 28.232 207.766 27.632C207.766 27.032 207.586 26.564 207.262 26.264C206.998 26.012 206.626 25.88 206.182 25.88C205.738 25.88 205.378 26.012 205.102 26.264C204.778 26.564 204.598 27.032 204.598 27.632ZM208.234 35.828C207.466 35.54 206.65 34.868 206.254 34.172C205.798 34.892 204.742 35.576 203.65 35.828V34.688C204.766 34.304 205.582 33.392 205.582 31.928V31.544H206.89V31.928C206.89 33.188 207.478 34.1 208.234 34.604C208.978 34.1 209.602 33.188 209.602 31.928V31.544H210.898V31.928C210.898 33.392 211.69 34.292 212.83 34.688V35.828C211.726 35.576 210.67 34.904 210.214 34.172C209.83 34.868 209.05 35.516 208.234 35.828ZM219.273 29.972C219.273 28.244 219.153 26.984 218.697 26.408C218.481 26.108 218.145 25.952 217.749 25.952C217.365 25.952 217.029 26.108 216.801 26.408C216.369 26.984 216.237 28.244 216.237 29.972C216.237 31.7 216.369 32.96 216.801 33.548C217.029 33.824 217.365 33.98 217.749 33.98C218.145 33.98 218.481 33.824 218.697 33.548C219.153 32.96 219.273 31.7 219.273 29.972ZM214.941 29.972C214.941 28.004 215.133 26.528 215.829 25.676C216.273 25.124 216.945 24.824 217.749 24.824C218.565 24.824 219.225 25.124 219.681 25.676C220.281 26.408 220.509 27.596 220.557 29.156H222.453V24.824H223.761V35.708H222.453V30.284H220.569C220.545 32.096 220.341 33.464 219.681 34.268C219.225 34.82 218.565 35.096 217.749 35.096C216.945 35.096 216.273 34.82 215.829 34.268C215.133 33.416 214.941 31.94 214.941 29.972ZM226.545 28.148C226.545 27.152 226.941 26.384 227.613 25.844C228.417 25.196 229.617 24.896 231.057 24.896C232.509 24.896 233.709 25.196 234.513 25.844C235.173 26.384 235.581 27.152 235.581 28.148C235.581 29.168 235.173 29.924 234.513 30.464C234.285 30.644 234.021 30.8 233.733 30.932V34.1H235.881V35.228H226.221V34.1H228.441V30.956C228.129 30.824 227.853 30.656 227.613 30.464C226.941 29.924 226.545 29.168 226.545 28.148ZM232.425 31.304C232.005 31.376 231.549 31.412 231.057 31.412C230.589 31.412 230.145 31.376 229.737 31.316V34.1H232.425V31.304ZM227.853 28.148C227.853 28.784 228.093 29.252 228.525 29.6C229.089 30.068 229.977 30.272 231.057 30.272C232.137 30.272 233.037 30.068 233.601 29.6C234.033 29.252 234.273 28.784 234.273 28.148C234.273 27.536 234.033 27.056 233.601 26.696C233.037 26.24 232.137 26.036 231.057 26.036C229.977 26.036 229.089 26.24 228.525 26.696C228.093 27.056 227.853 27.536 227.853 28.148ZM239.408 33.392V34.988H237.92V33.392H239.408Z" fill="#3D3D3D"/>
<rect x="327.379" y="22.1055" width="16.0789" height="19.2248" transform="rotate(-10.177 327.379 22.1055)" fill="#ACAFF4"/>
<path d="M346.523 16.2715C349.08 17.7478 351.207 19.8664 352.694 22.4174C354.18 24.9684 354.975 27.8634 354.999 30.8158C355.023 33.7683 354.275 36.6758 352.83 39.2504C351.385 41.8251 349.292 43.9778 346.759 45.4952C344.226 47.0127 341.341 47.8423 338.389 47.9021C335.437 47.9618 332.521 47.2496 329.929 45.8358C327.337 44.4221 325.159 42.3559 323.611 39.8418C322.063 37.3277 321.198 34.4528 321.102 31.5019L321.094 30.9526L321.102 30.4033C321.197 27.4756 322.049 24.6224 323.575 22.1219C325.101 19.6214 327.249 17.559 329.809 16.1357C332.369 14.7124 335.255 13.9768 338.184 14.0006C341.113 14.0244 343.986 14.8068 346.523 16.2715ZM343.472 34.828C343.151 34.5133 342.718 34.339 342.268 34.3435C341.819 34.3479 341.389 34.5307 341.075 34.8517C340.68 35.2546 340.209 35.5747 339.689 35.7932C339.169 36.0117 338.611 36.1243 338.047 36.1243C337.483 36.1243 336.924 36.0117 336.405 35.7932C335.885 35.5747 335.414 35.2546 335.019 34.8517C334.703 34.5381 334.276 34.3617 333.83 34.3604C333.385 34.3592 332.957 34.5333 332.639 34.8451C332.321 35.157 332.138 35.5815 332.13 36.0268C332.123 36.4722 332.291 36.9026 332.598 37.2251C333.308 37.9499 334.156 38.5257 335.092 38.9188C336.027 39.3119 337.032 39.5143 338.047 39.5143C339.062 39.5143 340.066 39.3119 341.002 38.9188C341.937 38.5257 342.785 37.9499 343.495 37.2251C343.81 36.9041 343.984 36.4712 343.98 36.0216C343.975 35.5721 343.793 35.1427 343.472 34.828ZM332.978 25.8668L332.762 25.8786C332.333 25.9297 331.94 26.1426 331.663 26.4739C331.385 26.8053 331.245 27.23 331.27 27.6614C331.296 28.0927 331.485 28.4981 331.799 28.7948C332.113 29.0914 332.529 29.2568 332.961 29.2573L333.176 29.2454C333.605 29.1944 333.999 28.9815 334.276 28.6501C334.553 28.3188 334.694 27.894 334.668 27.4627C334.643 27.0313 334.454 26.6259 334.14 26.3293C333.825 26.0327 333.41 25.8672 332.978 25.8668ZM343.15 25.8668L342.934 25.8786C342.505 25.9297 342.112 26.1426 341.834 26.4739C341.557 26.8053 341.417 27.23 341.442 27.6614C341.467 28.0927 341.657 28.4981 341.971 28.7948C342.285 29.0914 342.701 29.2568 343.133 29.2573L343.348 29.2454C343.777 29.1944 344.17 28.9815 344.448 28.6501C344.725 28.3188 344.865 27.894 344.84 27.4627C344.815 27.0313 344.626 26.6259 344.311 26.3293C343.997 26.0327 343.582 25.8672 343.15 25.8668Z" fill="#6F74EC"/>
<path d="M345.145 16.2893C347.594 17.6813 349.64 19.6924 351.079 22.1235C352.517 24.5546 353.3 27.3213 353.349 30.1498C353.398 32.9783 352.711 35.7705 351.357 38.25C350.002 40.7295 348.028 42.8103 345.628 44.2864C343.228 45.7624 340.486 46.5827 337.674 46.6658C334.862 46.7489 332.077 46.0921 329.595 44.7604C327.113 43.4286 325.02 41.4681 323.523 39.0729C322.025 36.6777 321.176 33.931 321.059 31.1045L321.046 30.5783L321.049 30.052C321.114 27.246 321.9 24.5049 323.332 22.0958C324.764 19.6867 326.792 17.6919 329.219 16.3058C331.646 14.9196 334.389 14.1895 337.18 14.1867C339.971 14.1838 342.715 14.9082 345.145 16.2893ZM342.401 34.095C342.093 33.7963 341.679 33.6331 341.25 33.6413C340.822 33.6495 340.415 33.8284 340.118 34.1387C339.745 34.5282 339.299 34.839 338.806 35.0529C338.312 35.2669 337.781 35.3796 337.244 35.3845C336.707 35.3895 336.174 35.2865 335.677 35.0817C335.179 34.8769 334.728 34.5744 334.348 34.1919C334.044 33.8942 333.635 33.7289 333.211 33.7316C332.787 33.7343 332.38 33.9049 332.08 34.2065C331.78 34.508 331.61 34.9163 331.606 35.3431C331.603 35.7698 331.767 36.1808 332.062 36.487C332.746 37.1752 333.558 37.7195 334.453 38.0879C335.348 38.4563 336.307 38.6414 337.274 38.6325C338.241 38.6236 339.196 38.4208 340.084 38.036C340.972 37.6512 341.775 37.0921 342.445 36.3914C342.742 36.0811 342.904 35.6648 342.896 35.2341C342.888 34.8035 342.71 34.3937 342.401 34.095ZM332.324 25.6013L332.119 25.6146C331.711 25.6672 331.338 25.8747 331.076 26.1946C330.815 26.5145 330.685 26.9227 330.713 27.3357C330.741 27.7488 330.925 28.1355 331.227 28.4169C331.529 28.6984 331.926 28.8533 332.338 28.8499L332.543 28.8367C332.951 28.784 333.324 28.5765 333.585 28.2566C333.847 27.9367 333.977 27.5286 333.949 27.1155C333.921 26.7025 333.737 26.3157 333.435 26.0343C333.133 25.7528 332.736 25.598 332.324 25.6013ZM342.015 25.5121L341.81 25.5253C341.402 25.578 341.029 25.7854 340.768 26.1053C340.507 26.4252 340.377 26.8334 340.404 27.2465C340.432 27.6595 340.616 28.0463 340.918 28.3277C341.22 28.6091 341.618 28.764 342.029 28.7607L342.234 28.7474C342.643 28.6948 343.016 28.4873 343.277 28.1674C343.538 27.8475 343.668 27.4393 343.64 27.0263C343.612 26.6132 343.429 26.2265 343.127 25.945C342.825 25.6636 342.427 25.5087 342.015 25.5121Z" fill="url(#paint0_linear_3854_5438)"/>
</g>
<defs>
<filter id="filter0_d_3854_5438" x="0" y="0" width="381" height="70" filterUnits="userSpaceOnUse" color-interpolation-filters="sRGB">
<feFlood flood-opacity="0" result="BackgroundImageFix"/>
<feColorMatrix in="SourceAlpha" type="matrix" values="0 0 0 0 0 0 0 0 0 0 0 0 0 0 0 0 0 0 127 0" result="hardAlpha"/>
<feOffset dy="4"/>
<feGaussianBlur stdDeviation="5"/>
<feComposite in2="hardAlpha" operator="out"/>
<feColorMatrix type="matrix" values="0 0 0 0 0 0 0 0 0 0 0 0 0 0 0 0 0 0 0.25 0"/>
<feBlend mode="normal" in2="BackgroundImageFix" result="effect1_dropShadow_3854_5438"/>
<feBlend mode="normal" in="SourceGraphic" in2="effect1_dropShadow_3854_5438" result="shape"/>
</filter>
<linearGradient id="paint0_linear_3854_5438" x1="337.049" y1="14.1873" x2="337.348" y2="46.6721" gradientUnits="userSpaceOnUse">
<stop stop-color="#EBECFF"/>
<stop offset="1" stop-color="#C5C8FF"/>
</linearGradient>
</defs>
</svg>
