<svg width="14" height="15" viewBox="0 0 14 15" fill="none" xmlns="http://www.w3.org/2000/svg">
<g id="icon_home_flat_fill">
<path id="Vector" d="M14 1.79795V10.7993C13.9995 10.8848 13.9813 10.9691 13.9466 11.0467C13.9119 11.1244 13.8615 11.1935 13.7987 11.2494C12.6846 12.2418 11.6193 12.5996 10.6035 12.5996C9.22469 12.5996 7.93698 11.944 6.73896 11.3357C4.80302 10.3493 3.1201 9.4949 1.16667 11.0821V14.3999C1.16667 14.5591 1.10521 14.7117 0.995812 14.8242C0.886416 14.9368 0.738043 15 0.583333 15C0.428624 15 0.280251 14.9368 0.170854 14.8242C0.0614583 14.7117 0 14.5591 0 14.3999V1.79795C0.000559313 1.71246 0.0188692 1.62808 0.0537031 1.55046C0.088537 1.47284 0.139091 1.40377 0.201979 1.34788C2.82698 -0.990982 5.18292 0.206954 7.25958 1.26387C9.26042 2.28253 10.9951 3.16316 13.0346 1.34788C13.1189 1.27271 13.2224 1.22398 13.3328 1.20747C13.4432 1.19096 13.5558 1.20736 13.6575 1.25473C13.7591 1.3021 13.8453 1.37846 13.9061 1.47474C13.9668 1.57102 13.9994 1.68319 14 1.79795Z" fill="white"/>
</g>
</svg>
