<svg width="18" height="17" viewBox="0 0 18 17" fill="none" xmlns="http://www.w3.org/2000/svg">
<path d="M17.2208 2.26294C16.4763 0.735166 14.3319 -0.514834 11.8375 0.212943C10.6455 0.557243 9.60552 1.2956 8.88746 2.30739C8.1694 1.2956 7.12943 0.557243 5.93746 0.212943C3.43746 -0.503723 1.29857 0.735166 0.554125 2.26294C-0.490319 4.40183 -0.0569856 6.80739 1.84301 9.41294C3.3319 11.4518 5.45968 13.5185 8.54857 15.9185C8.64619 15.9946 8.76644 16.036 8.89024 16.036C9.01403 16.036 9.13429 15.9946 9.2319 15.9185C12.3152 13.5241 14.4486 11.4741 15.9375 9.41294C17.8319 6.80739 18.2652 4.40183 17.2208 2.26294Z" fill="white"/>
</svg>
