<svg width="8" height="8" viewBox="0 0 8 8" fill="none" xmlns="http://www.w3.org/2000/svg">
<g id="icon_home_info_none">
<g id="Union">
<path d="M3.71924 5.99495H4.27424V3.19495H3.71924V5.99495Z" fill="#A5A5A5"/>
<path d="M3.71924 2.66495H4.27424V2.07495H3.71924V2.66495Z" fill="#A5A5A5"/>
<path fill-rule="evenodd" clip-rule="evenodd" d="M8 4C8 6.20914 6.20914 8 4 8C1.79086 8 0 6.20914 0 4C0 1.79086 1.79086 0 4 0C6.20914 0 8 1.79086 8 4ZM7.5 4C7.5 5.933 5.933 7.5 4 7.5C2.067 7.5 0.5 5.933 0.5 4C0.5 2.067 2.067 0.5 4 0.5C5.933 0.5 7.5 2.067 7.5 4Z" fill="#A5A5A5"/>
</g>
</g>
</svg>
