<svg width="40" height="40" viewBox="0 0 40 40" fill="none" xmlns="http://www.w3.org/2000/svg">
<g id="icon_home_locationButton_none">
<circle id="Ellipse 8" cx="20" cy="20" r="20" fill="white"/>
<path id="Vector" d="M20 23.5714C20.9472 23.5714 21.8556 23.1952 22.5254 22.5254C23.1952 21.8556 23.5714 20.9472 23.5714 20C23.5714 19.0528 23.1952 18.1444 22.5254 17.4746C21.8556 16.8048 20.9472 16.4286 20 16.4286C19.0528 16.4286 18.1444 16.8048 17.4746 17.4746C16.8048 18.1444 16.4286 19.0528 16.4286 20C16.4286 20.9472 16.8048 21.8556 17.4746 22.5254C18.1444 23.1952 19.0528 23.5714 20 23.5714ZM21.0714 11.0714C21.0714 10.7873 20.9585 10.5147 20.7576 10.3138C20.5567 10.1129 20.2842 10 20 10C19.7158 10 19.4433 10.1129 19.2424 10.3138C19.0415 10.5147 18.9286 10.7873 18.9286 11.0714V12.9371C17.4216 13.1665 16.0274 13.8716 14.9495 14.9495C13.8716 16.0274 13.1665 17.4216 12.9371 18.9286H11.0714C10.7873 18.9286 10.5147 19.0415 10.3138 19.2424C10.1129 19.4433 10 19.7158 10 20C10 20.2842 10.1129 20.5567 10.3138 20.7576C10.5147 20.9585 10.7873 21.0714 11.0714 21.0714H12.9371C13.1663 22.5785 13.8714 23.9728 14.9493 25.0507C16.0272 26.1287 17.4215 26.8337 18.9286 27.0629V28.9286C18.9286 29.2127 19.0415 29.4853 19.2424 29.6862C19.4433 29.8871 19.7158 30 20 30C20.2842 30 20.5567 29.8871 20.7576 29.6862C20.9585 29.4853 21.0714 29.2127 21.0714 28.9286V27.0629C22.5785 26.8337 23.9728 26.1287 25.0507 25.0507C26.1287 23.9728 26.8337 22.5785 27.0629 21.0714H28.9286C29.2127 21.0714 29.4853 20.9585 29.6862 20.7576C29.8871 20.5567 30 20.2842 30 20C30 19.7158 29.8871 19.4433 29.6862 19.2424C29.4853 19.0415 29.2127 18.9286 28.9286 18.9286H27.0629C26.8337 17.4215 26.1287 16.0272 25.0507 14.9493C23.9728 13.8714 22.5785 13.1663 21.0714 12.9371V11.0714ZM20 25C18.6739 25 17.4021 24.4732 16.4645 23.5355C15.5268 22.5979 15 21.3261 15 20C15 18.6739 15.5268 17.4021 16.4645 16.4645C17.4021 15.5268 18.6739 15 20 15C21.3261 15 22.5979 15.5268 23.5355 16.4645C24.4732 17.4021 25 18.6739 25 20C25 21.3261 24.4732 22.5979 23.5355 23.5355C22.5979 24.4732 21.3261 25 20 25Z" fill="#3D3D3D"/>
</g>
</svg>
