<svg width="22" height="21" viewBox="0 0 22 21" fill="none" xmlns="http://www.w3.org/2000/svg">
<g id="icon_home_star_fill">
<g id="Vector">
<path d="M8.37149 2.56897C8.37376 2.63883 8.375 2.71105 8.375 2.78571L8.0506 4.49601C7.68311 5.14201 7.49936 5.46502 7.21353 5.67802C6.92669 5.89102 6.57042 5.97002 5.85688 6.12802L5.20764 6.27202C2.69645 6.82802 1.44086 7.10702 1.14176 8.04803C0.843683 8.98903 1.69912 9.97003 3.41102 11.93L3.85405 12.438L3.85514 12.4393C4.34032 12.9945 4.58401 13.2733 4.69213 13.618C4.80238 13.962 4.76563 14.334 4.69213 15.078L3.70833 16.7857C3.41772 19.3479 3.79762 19.6303 4.5749 20.208L4.58333 20.2143C5.36425 20.7943 6.9767 20.3111 9.32763 19.2511L9.93603 18.9771C10.6036 18.6751 10.9374 18.5251 11.2917 18.5251C11.6459 18.5251 11.9797 18.6751 12.6473 18.9771L13.2567 19.2511L13.2608 19.2529C15.608 20.3117 16.7831 20.8417 17.5645 20.2601C18.346 19.6794 18.217 18.3728 17.9591 15.7593L17.8912 15.077C17.8177 14.334 17.781 13.962 17.8902 13.617C17.9991 13.2741 18.2419 12.9957 18.7249 12.4421L18.7293 12.437L19.1723 11.93C20.8842 9.96903 21.7397 8.98803 21.4416 8.04803C21.1426 7.10732 19.8887 6.82919 17.3791 6.27254L16.7275 6.12802C16.0129 5.97002 15.6556 5.89102 15.3698 5.67802C15.084 5.46502 14.9002 5.14202 14.5327 4.49603L14.1959 3.90441C12.9039 1.6348 12.2579 0.5 11.2917 0.5C10.919 0.5 10.59 0.5 10.2999 0.501738V2.56897H8.37149Z" fill="#353AA4"/>
<path d="M7.45454 3.74571C8.68634 1.5819 9.30176 0.5 10.2225 0.5C11.1431 0.5 11.7586 1.5819 12.9904 3.74571L13.3093 4.30571C13.6593 4.92095 13.8343 5.22857 14.1065 5.43143C14.3787 5.63429 14.719 5.70952 15.3995 5.86L16.0179 5.99714C18.4095 6.52762 19.6044 6.79238 19.8893 7.68857C20.1731 8.58381 19.3584 9.5181 17.728 11.3857L17.3061 11.8686C16.8433 12.3991 16.6109 12.6648 16.5069 12.9924C16.4029 13.321 16.4379 13.6752 16.5079 14.3829L16.572 15.0276C16.818 17.52 16.9415 18.7657 16.1968 19.319C15.452 19.8733 14.332 19.3676 12.094 18.3581L11.5136 18.0971C10.8777 17.8095 10.5598 17.6667 10.2225 17.6667C9.88509 17.6667 9.56717 17.8095 8.93134 18.0971L8.3519 18.3581C6.11287 19.3676 4.99287 19.8724 4.24912 19.32C3.50342 18.7657 3.6269 17.52 3.87287 15.0276L3.93703 14.3838C4.00703 13.6752 4.04203 13.321 3.93703 12.9933C3.83398 12.6648 3.60162 12.399 3.13884 11.8695L2.7169 11.3857C1.08648 9.51905 0.271756 8.58476 0.555645 7.68857C0.840506 6.79238 2.03634 6.52667 4.42801 5.99714L5.04634 5.86C5.72592 5.70952 6.06523 5.63429 6.33842 5.43143C6.61065 5.22857 6.78565 4.92095 7.13565 4.30571L7.45454 3.74571Z" fill="url(#paint0_linear_1364_20127)"/>
</g>
</g>
<defs>
<linearGradient id="paint0_linear_1364_20127" x1="10.2225" y1="0.5" x2="10.2225" y2="19.5476" gradientUnits="userSpaceOnUse">
<stop stop-color="#A2A5EB"/>
<stop offset="1" stop-color="#4B51E7"/>
</linearGradient>
</defs>
</svg>
