<svg width="329" height="96" viewBox="0 0 329 96" fill="none" xmlns="http://www.w3.org/2000/svg">
<g clip-path="url(#clip0_1364_19987)">
<rect width="329" height="96" rx="16" fill="white"/>
<g filter="url(#filter0_i_1364_19987)">
<path d="M288.375 94.014C288.055 95.1815 286.983 95.9823 285.772 95.957L268.842 95.6032C268.516 95.5964 268.193 95.5498 267.878 95.4646L241.469 88.3027C241.154 88.2174 240.851 88.0939 240.567 87.935L225.807 79.6982C224.746 79.1059 224.225 77.8659 224.546 76.6936C224.931 75.2884 226.38 74.4596 227.786 74.8409L286.519 90.7685C287.929 91.1509 288.76 92.6051 288.375 94.014ZM303.443 51.4781L297.963 49.992C296.71 49.6521 295.971 48.3593 296.313 47.1068C296.656 45.8543 295.917 44.5615 294.664 44.2216L246.074 31.0445C243.945 30.4673 241.751 31.722 241.169 33.8493L236.012 52.6937C234.255 59.1139 235.962 65.6065 240.126 69.8536C240.589 70.3258 240.797 71.0017 240.623 71.6395C240.368 72.5678 240.916 73.5261 241.845 73.778L274.923 82.7483C275.87 83.0052 276.847 82.4468 277.106 81.5001C277.277 80.8766 277.774 80.4016 278.391 80.2099C282.567 78.9133 286.335 76.0237 288.77 72.3434C288.925 72.1094 289.211 71.9964 289.482 72.0699C299.969 74.9137 305.188 66.5781 307.507 59.8936C308.957 56.3863 307.091 52.4673 303.443 51.4781ZM294.686 67.7848C292.514 68.2074 291.198 65.7983 291.782 63.6641L293.397 57.7642C293.979 55.6368 296.173 54.3822 298.302 54.9594L302.201 56.0169C302.657 56.1405 302.989 56.7176 302.989 56.718C302.989 56.718 302.989 56.718 302.989 56.718C302.989 56.7185 303.32 57.2959 303.072 58.2033C300.594 65.1173 297.313 67.2738 294.686 67.7848Z" fill="#4B51E7"/>
</g>
<path d="M223.688 26C223.453 24.6562 222.5 22.9688 220.687 21.6094C219.797 20.9375 218.891 20.5 218 20.3125V19.6562C219.766 19.2344 221.5 18.0469 222.609 16.4375C223.172 15.625 223.531 14.8281 223.688 14H224.344C224.609 15.5781 225.828 17.3281 227.484 18.5C228.297 19.0781 229.141 19.4687 230 19.6562V20.3125C228.266 20.6719 226.25 22.2187 225.25 23.7969C224.75 24.5937 224.453 25.3281 224.344 26H223.688Z" fill="#ACAFF4"/>
<path d="M205.792 42C205.635 41.1042 205 39.9792 203.792 39.0729C203.198 38.625 202.594 38.3333 202 38.2083V37.7708C203.177 37.4896 204.333 36.6979 205.073 35.625C205.448 35.0833 205.688 34.5521 205.792 34H206.229C206.406 35.0521 207.219 36.2188 208.323 37C208.865 37.3854 209.427 37.6458 210 37.7708V38.2083C208.844 38.4479 207.5 39.4792 206.833 40.5312C206.5 41.0625 206.302 41.5521 206.229 42H205.792Z" fill="#ACAFF4"/>
</g>
<defs>
<filter id="filter0_i_1364_19987" x="224.452" y="30.9041" width="83.5477" height="69.0535" filterUnits="userSpaceOnUse" color-interpolation-filters="sRGB">
<feFlood flood-opacity="0" result="BackgroundImageFix"/>
<feBlend mode="normal" in="SourceGraphic" in2="BackgroundImageFix" result="shape"/>
<feColorMatrix in="SourceAlpha" type="matrix" values="0 0 0 0 0 0 0 0 0 0 0 0 0 0 0 0 0 0 127 0" result="hardAlpha"/>
<feOffset dy="4"/>
<feGaussianBlur stdDeviation="2"/>
<feComposite in2="hardAlpha" operator="arithmetic" k2="-1" k3="1"/>
<feColorMatrix type="matrix" values="0 0 0 0 0.0526743 0 0 0 0 0.165191 0 0 0 0 0.564111 0 0 0 1 0"/>
<feBlend mode="normal" in2="shape" result="effect1_innerShadow_1364_19987"/>
</filter>
<clipPath id="clip0_1364_19987">
<rect width="329" height="96" fill="white"/>
</clipPath>
</defs>
</svg>
