<svg width="381" height="70" viewBox="0 0 381 70" fill="none" xmlns="http://www.w3.org/2000/svg">
<g filter="url(#filter0_d_1170_10016)">
<rect x="10" y="6" width="361" height="50" rx="12" fill="#F5F4F3"/>
<path d="M39.196 27.368V26.168H35.212V25.016H40.492V27.212C40.492 31.364 38.908 34.112 35.152 35.06V33.836C37.168 33.26 38.356 31.952 38.884 30.02C38.404 30.176 37.672 30.26 36.772 30.26H35.152V29.12H36.82C37.828 29.12 38.632 29.036 39.112 28.868C39.172 28.388 39.196 27.896 39.196 27.368ZM43.72 24.824V29.264H45.424V30.404H43.72V35.708H42.412V24.824H43.72ZM46.4915 34.976V33.896H47.3435V26.12H46.6235V25.016H51.4715V26.12H50.8355V30.728C50.8355 31.88 50.7875 33.032 50.6315 33.884C51.0515 33.872 51.4955 33.812 51.8315 33.704V34.724C51.4115 34.904 50.7995 34.976 50.2235 34.976H46.4915ZM48.5555 33.896H49.4555C49.5755 33.188 49.6115 32.3 49.6115 31.412V26.12H48.5555V33.896ZM51.2075 30.248V29.108H52.2515V24.896H53.4875V35.576H52.2515V30.248H51.2075ZM55.6715 35.708H54.4235V24.824H55.6715V35.708ZM67.7553 26.972H65.5353C65.5833 28.412 66.6153 29.084 67.9353 29.372V30.536C66.6513 30.32 65.4993 29.696 64.8993 28.868C64.3353 29.72 63.1833 30.404 61.8273 30.668V29.516C63.1473 29.216 64.1913 28.412 64.2393 26.972H61.9593V25.832H64.2393V24.512H65.5353V25.832H67.7553V26.972ZM66.8672 32.72H65.3673V35.732H64.0592V32.72H61.4913V31.592H67.2033C68.1393 31.592 68.8593 31.424 69.3393 31.076V24.824H70.6473V35.72H69.3393V32.144C68.8713 32.516 68.0673 32.72 66.8672 32.72ZM78.9388 26.624H72.7468V25.556H75.2308V24.512H76.5268V25.556H78.9388V26.624ZM74.3308 29.204C74.3308 29.492 74.4748 29.72 74.7028 29.888C74.9908 30.092 75.3868 30.2 75.8548 30.2C76.3468 30.2 76.7668 30.08 77.0548 29.864C77.2588 29.696 77.3788 29.48 77.3788 29.204C77.3788 28.928 77.2468 28.688 77.0308 28.52C76.7428 28.304 76.3228 28.208 75.8548 28.208C75.3988 28.208 74.9908 28.316 74.7028 28.52C74.4748 28.688 74.3308 28.928 74.3308 29.204ZM73.0708 29.204C73.0708 28.568 73.3708 28.064 73.8508 27.716C74.3548 27.356 75.0628 27.176 75.8548 27.176C76.6708 27.176 77.3668 27.368 77.8468 27.716C78.3388 28.064 78.6268 28.58 78.6268 29.204C78.6268 29.864 78.3388 30.356 77.8228 30.704C77.3308 31.04 76.6468 31.22 75.8548 31.22C75.0388 31.22 74.3188 31.028 73.8148 30.656C73.3588 30.308 73.0708 29.828 73.0708 29.204ZM81.7708 26.432H83.2948V27.572H81.7708V28.88H83.2948V30.032H81.7708V31.52H80.4628V24.824H81.7708V26.432ZM73.5988 33.92C73.5988 33.212 73.9708 32.732 74.5828 32.42C75.3508 32.012 76.5028 31.868 77.8228 31.868C79.1428 31.868 80.2948 32.012 81.0508 32.42C81.6628 32.732 82.0348 33.212 82.0348 33.92C82.0348 34.616 81.6628 35.084 81.0508 35.408C80.2948 35.816 79.1428 35.96 77.8228 35.96C76.5028 35.96 75.3508 35.816 74.5828 35.408C73.9708 35.084 73.5988 34.616 73.5988 33.92ZM74.9068 33.92C74.9068 34.16 75.0508 34.328 75.2908 34.484C75.7828 34.748 76.7188 34.868 77.8228 34.868C78.9268 34.868 79.8508 34.748 80.3428 34.484C80.5948 34.328 80.7268 34.16 80.7268 33.92C80.7268 33.68 80.5948 33.512 80.3428 33.356C79.8508 33.068 78.9268 32.972 77.8228 32.972C76.7188 32.972 75.7828 33.068 75.2908 33.356C75.0508 33.512 74.9068 33.68 74.9068 33.92ZM89.0663 29.972C89.0663 28.244 88.9463 26.984 88.4903 26.408C88.2743 26.108 87.9383 25.952 87.5423 25.952C87.1583 25.952 86.8223 26.108 86.5943 26.408C86.1623 26.984 86.0303 28.244 86.0303 29.972C86.0303 31.7 86.1623 32.96 86.5943 33.548C86.8223 33.824 87.1583 33.98 87.5423 33.98C87.9383 33.98 88.2743 33.824 88.4903 33.548C88.9463 32.96 89.0663 31.7 89.0663 29.972ZM84.7343 29.972C84.7343 28.004 84.9263 26.528 85.6223 25.676C86.0663 25.124 86.7383 24.824 87.5423 24.824C88.3583 24.824 89.0183 25.124 89.4743 25.676C90.1703 26.528 90.3623 28.004 90.3623 29.972C90.3623 31.94 90.1703 33.416 89.4743 34.268C89.0183 34.82 88.3583 35.096 87.5423 35.096C86.7383 35.096 86.0663 34.82 85.6223 34.268C84.9263 33.416 84.7343 31.94 84.7343 29.972ZM93.5543 24.824V35.708H92.2463V24.824H93.5543ZM99.794 26.084V24.956H105.41V26.084H103.25V26.492C103.25 28.34 104.258 29.216 105.614 29.516V30.668C104.306 30.44 103.19 29.756 102.626 28.832C102.062 29.768 100.922 30.596 99.602 30.812V29.648C100.982 29.348 101.954 28.376 101.954 26.492V26.084H99.794ZM108.59 31.028H107.282V28.244H105.038V27.128H107.282V24.824H108.59V31.028ZM104.57 35.96C103.322 35.96 102.086 35.792 101.258 35.276C100.682 34.916 100.31 34.376 100.31 33.644C100.31 32.912 100.682 32.372 101.258 32.012C102.086 31.508 103.322 31.328 104.57 31.328C105.818 31.328 107.066 31.508 107.882 32.012C108.458 32.372 108.842 32.912 108.842 33.644C108.842 34.376 108.458 34.916 107.882 35.276C107.066 35.792 105.818 35.96 104.57 35.96ZM104.57 32.444C103.586 32.444 102.626 32.564 102.074 32.9C101.786 33.092 101.606 33.332 101.606 33.644C101.606 33.956 101.786 34.196 102.074 34.376C102.626 34.712 103.586 34.844 104.57 34.844C105.566 34.844 106.526 34.712 107.066 34.376C107.354 34.196 107.534 33.956 107.534 33.644C107.534 33.332 107.354 33.092 107.066 32.9C106.526 32.564 105.566 32.444 104.57 32.444ZM114.518 24.896V26.24C114.518 28.124 115.55 29.096 116.942 29.516V30.668C115.574 30.38 114.434 29.612 113.87 28.7C113.354 29.648 112.202 30.464 110.786 30.8V29.648C112.214 29.192 113.222 28.076 113.222 26.24V24.896H114.518ZM119.822 24.824V27.272H121.406V28.412H119.822V31.028H118.514V24.824H119.822ZM111.65 33.644C111.65 32.984 111.962 32.48 112.454 32.108C113.234 31.556 114.458 31.328 115.874 31.328C117.278 31.328 118.514 31.556 119.282 32.108C119.774 32.48 120.086 32.984 120.086 33.644C120.086 34.316 119.774 34.82 119.282 35.192C118.514 35.744 117.278 35.96 115.874 35.96C114.458 35.96 113.234 35.744 112.454 35.192C111.962 34.82 111.65 34.316 111.65 33.644ZM112.958 33.644C112.958 33.944 113.114 34.196 113.402 34.388C113.882 34.712 114.758 34.844 115.874 34.844C116.978 34.844 117.854 34.712 118.358 34.388C118.634 34.196 118.778 33.944 118.778 33.644C118.778 33.344 118.634 33.092 118.358 32.9C117.854 32.588 116.978 32.444 115.874 32.444C114.758 32.444 113.882 32.588 113.402 32.9C113.114 33.092 112.958 33.344 112.958 33.644ZM122.833 26.084V24.956H128.449V26.084H126.289V26.624C126.289 28.472 127.297 29.348 128.653 29.648V30.8C127.345 30.572 126.229 29.888 125.665 28.964C125.101 29.9 123.961 30.716 122.641 30.944V29.768C124.021 29.48 124.993 28.496 124.993 26.624V26.084H122.833ZM131.629 31.112H130.321V28.316H128.077V27.188H130.321V24.824H131.629V31.112ZM130.321 35.888V32.96H123.361V31.82H131.629V35.888H130.321ZM134.389 28.232C134.389 27.164 134.845 26.264 135.613 25.712C136.405 25.136 137.545 24.896 138.901 24.896C140.269 24.896 141.397 25.136 142.201 25.712C142.957 26.264 143.425 27.164 143.425 28.232C143.425 29.288 142.957 30.176 142.201 30.728C141.397 31.316 140.269 31.556 138.901 31.556C137.545 31.556 136.405 31.316 135.613 30.728C134.845 30.176 134.389 29.288 134.389 28.232ZM135.697 28.232C135.697 28.868 135.949 29.408 136.393 29.756C136.945 30.176 137.809 30.416 138.901 30.416C140.005 30.416 140.869 30.176 141.421 29.756C141.865 29.408 142.117 28.868 142.117 28.232C142.117 27.572 141.865 27.032 141.421 26.684C140.869 26.264 140.005 26.036 138.901 26.036C137.809 26.036 136.945 26.264 136.393 26.684C135.949 27.032 135.697 27.572 135.697 28.232ZM134.065 35.228V34.1H143.725V35.228H134.065ZM147.456 29.036V30.812H154.812V31.94H151.092V34.1H155.244V35.228H145.584V34.1H149.796V31.94H146.148V27.908H153.372V26.168H146.148V25.016H154.68V29.036H147.456ZM160.74 27.56C160.74 26.576 161.112 25.832 161.712 25.352C162.204 24.968 162.852 24.752 163.596 24.752C164.352 24.752 165 24.968 165.48 25.352C165.972 25.736 166.296 26.288 166.404 26.996H168.372V24.824H169.68V30.572H168.372V28.112H166.416C166.308 28.832 165.972 29.396 165.48 29.768C165 30.164 164.352 30.38 163.596 30.38C162.852 30.38 162.204 30.164 161.712 29.768C161.112 29.3 160.74 28.556 160.74 27.56ZM162.012 27.56C162.012 28.124 162.204 28.592 162.54 28.868C162.804 29.12 163.176 29.252 163.596 29.252C164.016 29.252 164.388 29.12 164.664 28.868C165 28.592 165.18 28.124 165.18 27.56C165.18 26.996 165 26.552 164.664 26.252C164.388 26.012 164.016 25.88 163.596 25.88C163.176 25.88 162.804 26.012 162.54 26.252C162.204 26.552 162.012 26.996 162.012 27.56ZM168.372 32.42V31.148H169.68V35.816H161.544V31.148H162.852V32.42H168.372ZM168.372 33.536H162.852V34.712H168.372V33.536ZM175.127 34.976H172.415V25.016H176.315V26.168H173.687V33.836H175.199C175.823 33.836 176.423 33.8 176.903 33.632V34.712C176.435 34.904 175.799 34.976 175.127 34.976ZM179.075 35.576H177.803V30.308H175.679V29.168H177.803V24.896H179.075V35.576ZM181.343 35.708H180.071V24.824H181.343V35.708ZM188.207 29.972C188.207 28.244 188.087 26.984 187.631 26.408C187.415 26.108 187.079 25.952 186.683 25.952C186.299 25.952 185.963 26.108 185.735 26.408C185.303 26.984 185.171 28.244 185.171 29.972C185.171 31.7 185.303 32.96 185.735 33.548C185.963 33.824 186.299 33.98 186.683 33.98C187.079 33.98 187.415 33.824 187.631 33.548C188.087 32.96 188.207 31.7 188.207 29.972ZM183.875 29.972C183.875 28.004 184.067 26.528 184.763 25.676C185.207 25.124 185.879 24.824 186.683 24.824C187.499 24.824 188.159 25.124 188.615 25.676C189.311 26.528 189.503 28.004 189.503 29.972C189.503 31.94 189.311 33.416 188.615 34.268C188.159 34.82 187.499 35.096 186.683 35.096C185.879 35.096 185.207 34.82 184.763 34.268C184.067 33.416 183.875 31.94 183.875 29.972ZM192.695 24.824V35.708H191.387V24.824H192.695ZM204.25 26.168H197.026V27.968H204.13V29.108H197.026V30.956H204.382V32.084H195.718V25.016H204.25V26.168ZM195.154 35.228V34.1H204.814V35.228H195.154ZM212.686 26.168H208.474V30.02H212.818V31.148H210.646V33.968H212.11C213.094 33.968 213.922 33.824 214.426 33.404V24.824H215.734V35.708H214.426V34.472C213.958 34.916 212.974 35.084 211.774 35.084H206.71V33.968H209.35V31.148H207.166V25.016H212.686V26.168ZM218.338 27.632C218.338 26.624 218.662 25.856 219.25 25.364C219.742 24.968 220.414 24.752 221.194 24.752C221.986 24.752 222.646 24.968 223.138 25.364C223.618 25.76 223.918 26.336 224.014 27.08H225.97V24.824H227.278V30.956H225.97V28.208H224.014C223.906 28.928 223.606 29.492 223.138 29.888C222.646 30.296 221.986 30.5 221.194 30.5C220.414 30.5 219.742 30.296 219.25 29.888C218.662 29.396 218.338 28.628 218.338 27.632ZM219.61 27.632C219.61 28.232 219.79 28.7 220.114 29C220.39 29.24 220.75 29.384 221.194 29.384C221.638 29.384 222.01 29.24 222.274 29C222.598 28.7 222.778 28.232 222.778 27.632C222.778 27.032 222.598 26.564 222.274 26.264C222.01 26.012 221.638 25.88 221.194 25.88C220.75 25.88 220.39 26.012 220.114 26.264C219.79 26.564 219.61 27.032 219.61 27.632ZM223.246 35.828C222.478 35.54 221.662 34.868 221.266 34.172C220.81 34.892 219.754 35.576 218.662 35.828V34.688C219.778 34.304 220.594 33.392 220.594 31.928V31.544H221.902V31.928C221.902 33.188 222.49 34.1 223.246 34.604C223.99 34.1 224.614 33.188 224.614 31.928V31.544H225.91V31.928C225.91 33.392 226.702 34.292 227.842 34.688V35.828C226.738 35.576 225.682 34.904 225.226 34.172C224.842 34.868 224.062 35.516 223.246 35.828ZM234.285 29.972C234.285 28.244 234.165 26.984 233.709 26.408C233.493 26.108 233.157 25.952 232.761 25.952C232.377 25.952 232.041 26.108 231.813 26.408C231.381 26.984 231.249 28.244 231.249 29.972C231.249 31.7 231.381 32.96 231.813 33.548C232.041 33.824 232.377 33.98 232.761 33.98C233.157 33.98 233.493 33.824 233.709 33.548C234.165 32.96 234.285 31.7 234.285 29.972ZM229.953 29.972C229.953 28.004 230.145 26.528 230.841 25.676C231.285 25.124 231.957 24.824 232.761 24.824C233.577 24.824 234.237 25.124 234.693 25.676C235.293 26.408 235.521 27.596 235.569 29.156H237.465V24.824H238.773V35.708H237.465V30.284H235.581C235.557 32.096 235.353 33.464 234.693 34.268C234.237 34.82 233.577 35.096 232.761 35.096C231.957 35.096 231.285 34.82 230.841 34.268C230.145 33.416 229.953 31.94 229.953 29.972ZM241.557 28.148C241.557 27.152 241.953 26.384 242.625 25.844C243.429 25.196 244.629 24.896 246.069 24.896C247.521 24.896 248.721 25.196 249.525 25.844C250.185 26.384 250.593 27.152 250.593 28.148C250.593 29.168 250.185 29.924 249.525 30.464C249.297 30.644 249.033 30.8 248.745 30.932V34.1H250.893V35.228H241.233V34.1H243.453V30.956C243.141 30.824 242.865 30.656 242.625 30.464C241.953 29.924 241.557 29.168 241.557 28.148ZM247.437 31.304C247.017 31.376 246.561 31.412 246.069 31.412C245.601 31.412 245.157 31.376 244.749 31.316V34.1H247.437V31.304ZM242.865 28.148C242.865 28.784 243.105 29.252 243.537 29.6C244.101 30.068 244.989 30.272 246.069 30.272C247.149 30.272 248.049 30.068 248.613 29.6C249.045 29.252 249.285 28.784 249.285 28.148C249.285 27.536 249.045 27.056 248.613 26.696C248.049 26.24 247.149 26.036 246.069 26.036C244.989 26.036 244.101 26.24 243.537 26.696C243.105 27.056 242.865 27.536 242.865 28.148ZM254.42 33.392V34.988H252.932V33.392H254.42Z" fill="#3D3D3D"/>
<rect x="327.379" y="22.1055" width="16.0789" height="19.2248" transform="rotate(-10.177 327.379 22.1055)" fill="#ACAFF4"/>
<path d="M346.523 16.2715C349.08 17.7478 351.207 19.8664 352.694 22.4174C354.18 24.9684 354.975 27.8634 354.999 30.8158C355.023 33.7683 354.275 36.6758 352.83 39.2504C351.385 41.8251 349.292 43.9778 346.759 45.4952C344.226 47.0127 341.341 47.8423 338.389 47.9021C335.437 47.9618 332.521 47.2496 329.929 45.8358C327.337 44.4221 325.159 42.3559 323.611 39.8418C322.063 37.3277 321.198 34.4528 321.102 31.5019L321.094 30.9526L321.102 30.4033C321.197 27.4756 322.049 24.6224 323.575 22.1219C325.101 19.6214 327.249 17.559 329.809 16.1357C332.369 14.7124 335.255 13.9768 338.184 14.0006C341.113 14.0244 343.986 14.8068 346.523 16.2715ZM343.472 34.828C343.151 34.5133 342.718 34.339 342.268 34.3435C341.819 34.3479 341.389 34.5307 341.075 34.8517C340.68 35.2546 340.209 35.5747 339.689 35.7932C339.169 36.0117 338.611 36.1243 338.047 36.1243C337.483 36.1243 336.924 36.0117 336.405 35.7932C335.885 35.5747 335.414 35.2546 335.019 34.8517C334.703 34.5381 334.276 34.3617 333.83 34.3604C333.385 34.3592 332.957 34.5333 332.639 34.8451C332.321 35.157 332.138 35.5815 332.13 36.0268C332.123 36.4722 332.291 36.9026 332.598 37.2251C333.308 37.9499 334.156 38.5257 335.092 38.9188C336.027 39.3119 337.032 39.5143 338.047 39.5143C339.062 39.5143 340.066 39.3119 341.002 38.9188C341.937 38.5257 342.785 37.9499 343.495 37.2251C343.81 36.9041 343.984 36.4712 343.98 36.0216C343.975 35.5721 343.793 35.1427 343.472 34.828ZM332.978 25.8668L332.762 25.8786C332.333 25.9297 331.94 26.1426 331.663 26.4739C331.385 26.8053 331.245 27.23 331.27 27.6614C331.296 28.0927 331.485 28.4981 331.799 28.7948C332.113 29.0914 332.529 29.2568 332.961 29.2573L333.176 29.2454C333.605 29.1944 333.999 28.9815 334.276 28.6501C334.553 28.3188 334.694 27.894 334.668 27.4627C334.643 27.0313 334.454 26.6259 334.14 26.3293C333.825 26.0327 333.41 25.8672 332.978 25.8668ZM343.15 25.8668L342.934 25.8786C342.505 25.9297 342.112 26.1426 341.834 26.4739C341.557 26.8053 341.417 27.23 341.442 27.6614C341.467 28.0927 341.657 28.4981 341.971 28.7948C342.285 29.0914 342.701 29.2568 343.133 29.2573L343.348 29.2454C343.777 29.1944 344.17 28.9815 344.448 28.6501C344.725 28.3188 344.865 27.894 344.84 27.4627C344.815 27.0313 344.626 26.6259 344.311 26.3293C343.997 26.0327 343.582 25.8672 343.15 25.8668Z" fill="#6F74EC"/>
<path d="M345.145 16.2893C347.594 17.6813 349.64 19.6924 351.079 22.1235C352.517 24.5546 353.3 27.3213 353.349 30.1498C353.398 32.9783 352.711 35.7705 351.357 38.25C350.002 40.7295 348.028 42.8103 345.628 44.2864C343.228 45.7624 340.486 46.5827 337.674 46.6658C334.862 46.7489 332.077 46.0921 329.595 44.7604C327.113 43.4286 325.02 41.4681 323.523 39.0729C322.025 36.6777 321.176 33.931 321.059 31.1045L321.046 30.5783L321.049 30.052C321.114 27.246 321.9 24.5049 323.332 22.0958C324.764 19.6867 326.792 17.6919 329.219 16.3058C331.646 14.9196 334.389 14.1895 337.18 14.1867C339.971 14.1838 342.715 14.9082 345.145 16.2893ZM342.401 34.095C342.093 33.7963 341.679 33.6331 341.25 33.6413C340.822 33.6495 340.415 33.8284 340.118 34.1387C339.745 34.5282 339.299 34.839 338.806 35.0529C338.312 35.2669 337.781 35.3796 337.244 35.3845C336.707 35.3895 336.174 35.2865 335.677 35.0817C335.179 34.8769 334.728 34.5744 334.348 34.1919C334.044 33.8942 333.635 33.7289 333.211 33.7316C332.787 33.7343 332.38 33.9049 332.08 34.2065C331.78 34.508 331.61 34.9163 331.606 35.3431C331.603 35.7698 331.767 36.1808 332.062 36.487C332.746 37.1752 333.558 37.7195 334.453 38.0879C335.348 38.4563 336.307 38.6414 337.274 38.6325C338.241 38.6236 339.196 38.4208 340.084 38.036C340.972 37.6512 341.775 37.0921 342.445 36.3914C342.742 36.0811 342.904 35.6648 342.896 35.2341C342.888 34.8035 342.71 34.3937 342.401 34.095ZM332.324 25.6013L332.119 25.6146C331.711 25.6672 331.338 25.8747 331.076 26.1946C330.815 26.5145 330.685 26.9227 330.713 27.3357C330.741 27.7488 330.925 28.1355 331.227 28.4169C331.529 28.6984 331.926 28.8533 332.338 28.8499L332.543 28.8367C332.951 28.784 333.324 28.5765 333.585 28.2566C333.847 27.9367 333.977 27.5286 333.949 27.1155C333.921 26.7025 333.737 26.3157 333.435 26.0343C333.133 25.7528 332.736 25.598 332.324 25.6013ZM342.015 25.5121L341.81 25.5253C341.402 25.578 341.029 25.7854 340.768 26.1053C340.507 26.4252 340.377 26.8334 340.404 27.2465C340.432 27.6595 340.616 28.0463 340.918 28.3277C341.22 28.6091 341.618 28.764 342.029 28.7607L342.234 28.7474C342.643 28.6948 343.016 28.4873 343.277 28.1674C343.538 27.8475 343.668 27.4393 343.64 27.0263C343.612 26.6132 343.429 26.2265 343.127 25.945C342.825 25.6636 342.427 25.5087 342.015 25.5121Z" fill="url(#paint0_linear_1170_10016)"/>
</g>
<defs>
<filter id="filter0_d_1170_10016" x="0" y="0" width="381" height="70" filterUnits="userSpaceOnUse" color-interpolation-filters="sRGB">
<feFlood flood-opacity="0" result="BackgroundImageFix"/>
<feColorMatrix in="SourceAlpha" type="matrix" values="0 0 0 0 0 0 0 0 0 0 0 0 0 0 0 0 0 0 127 0" result="hardAlpha"/>
<feOffset dy="4"/>
<feGaussianBlur stdDeviation="5"/>
<feComposite in2="hardAlpha" operator="out"/>
<feColorMatrix type="matrix" values="0 0 0 0 0 0 0 0 0 0 0 0 0 0 0 0 0 0 0.25 0"/>
<feBlend mode="normal" in2="BackgroundImageFix" result="effect1_dropShadow_1170_10016"/>
<feBlend mode="normal" in="SourceGraphic" in2="effect1_dropShadow_1170_10016" result="shape"/>
</filter>
<linearGradient id="paint0_linear_1170_10016" x1="337.049" y1="14.1873" x2="337.348" y2="46.6721" gradientUnits="userSpaceOnUse">
<stop stop-color="#EBECFF"/>
<stop offset="1" stop-color="#C5C8FF"/>
</linearGradient>
</defs>
</svg>
