<svg width="393" height="2051" viewBox="0 0 393 2051" fill="none" xmlns="http://www.w3.org/2000/svg">
<g clip-path="url(#clip0_1364_11054)">
<rect width="393" height="2051" fill="white"/>
<g opacity="0.5">
<path fill-rule="evenodd" clip-rule="evenodd" d="M331.485 257.894C304.403 253.719 283.93 233.256 284.156 208.842C284.408 181.622 310.294 159.798 341.976 160.097C367.112 160.334 388.344 174.426 395.918 193.834L398.019 192.457C398.019 192.457 422.223 244.604 398.488 262.999C383.345 274.735 352.113 265.858 331.485 257.894ZM368.642 211.705L367.44 212.492C364.564 222.189 353.92 229.414 341.126 229.733L337.273 232.257C324.29 230.411 314.427 220.663 314.534 209.012C314.653 196.142 326.893 185.823 341.872 185.964C356.852 186.105 368.898 196.653 368.779 209.523C368.772 210.259 368.726 210.987 368.642 211.705Z" fill="#91C690"/>
<path fill-rule="evenodd" clip-rule="evenodd" d="M312.409 243.248C293.893 235.309 281.169 219.405 280.933 200.927C280.591 174.168 306.566 152.144 338.95 151.736C364.791 151.409 386.904 164.944 394.96 184.022C394.96 184.022 421.554 236.221 398.54 255.375C375.526 274.53 312.392 243.261 312.392 243.261L312.409 243.248ZM340.683 222.963C353.773 222.537 364.518 214.638 366.927 204.344C367.278 202.848 367.452 201.302 367.432 199.72C367.27 187.069 354.726 176.969 339.414 177.162C324.103 177.355 311.821 187.768 311.983 200.42C312.145 213.072 324.689 223.172 340 222.979C340.229 222.976 340.456 222.971 340.683 222.963Z" fill="url(#paint0_linear_1364_11054)"/>
<path fill-rule="evenodd" clip-rule="evenodd" d="M335.591 200.596C338.143 198.31 339.937 198.449 343.359 198.289C346.781 198.129 350.778 196.799 353.533 198.836C356.288 200.874 358.046 204.601 358.896 207.92C359.746 211.24 359.011 216.305 357.574 219.416C360.157 219.974 362.961 219.12 364.909 220.906C366.857 222.693 368.437 226.299 369.217 228.825C369.996 231.351 369.532 234.796 368.929 237.37C368.327 239.944 367.051 242.311 365.231 244.228L363.143 246.388C363.143 246.388 366.816 243.677 370.577 247.245C376.541 252.903 375.804 264.822 370.148 270.786L345.231 297.064C345.129 297.203 345.018 297.336 344.899 297.46C333.227 309.769 319.632 314.802 306.493 314.379C293.456 313.952 281.186 308.168 271.926 299.383C253.119 281.54 252.796 257.293 257.898 234.263C258.765 229.467 259.726 224.69 260.781 219.932C264.455 202.991 285.136 197.007 297.587 208.787L309.199 196.542C310.968 194.677 313.189 193.302 315.647 192.55C318.104 191.798 320.09 187.989 322.599 188.546C325.108 189.102 328.787 190.187 331.182 192.55C333.092 194.271 334.776 198.158 335.591 200.596Z" fill="url(#paint1_linear_1364_11054)"/>
<path fill-rule="evenodd" clip-rule="evenodd" d="M333.167 198.281C335.719 195.996 338.981 194.66 342.403 194.5C345.825 194.34 349.198 195.365 351.953 197.402C354.708 199.44 356.676 202.365 357.526 205.685C358.376 209.004 358.055 212.516 356.619 215.626C359.202 216.184 361.59 217.42 363.538 219.207C365.486 220.994 366.924 223.267 367.703 225.793C368.483 228.319 368.576 231.007 367.974 233.581C367.371 236.154 366.095 238.521 364.275 240.438L362.187 242.599C362.187 242.599 365.499 241.963 369.259 245.531C375.223 251.189 374.848 261.033 369.193 266.997L344.275 293.274C344.173 293.414 344.062 293.546 343.943 293.671C332.271 305.98 318.676 311.013 305.538 310.589C292.5 310.163 280.23 304.379 270.971 295.594C252.163 277.751 251.84 253.503 256.942 230.473C257.809 225.678 258.77 220.9 259.826 216.143C263.499 199.202 284.181 193.218 296.632 204.998L308.243 192.752C310.012 190.887 312.233 189.512 314.691 188.761C317.149 188.009 319.759 187.907 322.268 188.463C324.778 189.02 327.1 190.217 329.01 191.937C330.92 193.658 332.352 195.843 333.167 198.281Z" fill="url(#paint2_linear_1364_11054)"/>
</g>
<g opacity="0.5">
<path d="M425.836 865.519L343.152 830.232C335.541 826.984 326.708 830.599 323.423 838.306L281.784 935.994C278.499 943.702 282.006 952.583 289.616 955.831L372.3 991.119C379.911 994.367 388.744 990.752 392.029 983.045L433.668 885.356C436.953 877.649 433.447 868.768 425.836 865.519Z" fill="url(#paint3_linear_1364_11054)"/>
<path d="M429.166 852.014L348.217 817.467C340.766 814.287 331.884 818.376 328.378 826.599L283.95 930.833C280.445 939.056 283.643 948.301 291.095 951.481L367.794 983.979C377.556 958.813 393.58 968.27 402.303 952.249L436.311 872.663C439.816 864.439 436.618 855.194 429.166 852.014Z" fill="url(#paint4_linear_1364_11054)"/>
<path d="M283.354 932.232C284.88 928.653 287.764 925.827 291.373 924.376C294.982 922.925 299.019 922.968 302.597 924.495L376.796 956.161C383.083 958.844 386.226 960.186 389.139 960.216C391.066 960.237 392.978 959.878 394.766 959.159C396.554 958.44 398.182 957.376 399.559 956.027C401.64 953.988 402.98 950.844 405.66 944.556L397.032 964.797C391.608 977.522 388.899 983.878 383.261 986.145C377.623 988.412 371.269 985.7 358.547 980.271L291.093 951.484C287.515 949.957 284.69 947.071 283.238 943.46C281.787 939.85 281.829 935.811 283.354 932.232Z" fill="#4E52C0"/>
<path d="M312.575 785.527L225.867 798.527C217.683 799.743 212.046 807.448 213.275 815.737L228.861 920.792C230.091 929.08 237.722 934.813 245.906 933.597L334.818 920.384C343.002 919.168 348.64 911.463 347.41 903.174L331.89 803.603C330.661 795.315 320.759 784.311 312.575 785.527Z" fill="url(#paint5_linear_1364_11054)"/>
<path d="M312.559 785.563L225.513 798.499C217.5 799.69 211.969 807.153 213.158 815.168L228.23 916.759C229.419 924.775 236.879 930.307 244.891 929.116L327.247 916.679C322.781 892.621 335.666 895.361 340.655 875.531L329.22 797.92C328.031 789.905 320.571 784.372 312.559 785.563Z" fill="url(#paint6_linear_1364_11054)"/>
<path d="M228.235 916.76C227.664 912.911 228.644 908.993 230.961 905.867C233.278 902.741 236.741 900.664 240.589 900.092L320.378 888.235C327.138 887.231 330.518 886.728 333.017 885.23C334.67 884.239 336.112 882.931 337.259 881.383C338.407 879.834 339.239 878.074 339.707 876.204C340.414 873.377 339.912 869.996 338.909 863.233L342.139 885.001C344.169 898.686 345.183 905.522 341.563 910.405C337.944 915.289 331.111 916.304 317.43 918.337L244.895 929.117C241.047 929.688 237.13 928.708 234.006 926.391C230.882 924.073 228.806 920.609 228.235 916.76Z" fill="#F29172"/>
</g>
<g opacity="0.5">
<path d="M327.371 1465.97C329.311 1459.38 336.296 1455.59 342.972 1457.5L432.02 1483.05C438.697 1484.97 442.536 1491.87 440.596 1498.46L400.109 1636.04C398.169 1642.63 391.184 1646.42 384.508 1644.5L295.46 1618.95C288.784 1617.04 284.944 1610.14 286.884 1603.55L327.371 1465.97Z" fill="#8AE6B7"/>
<path d="M329.991 1466.44C331.931 1459.84 338.916 1456.05 345.592 1457.97L432.225 1482.83C438.901 1484.74 442.741 1491.64 440.801 1498.23L400.99 1633.51C399.05 1640.1 392.065 1643.89 385.389 1641.98L298.756 1617.12C292.08 1615.2 288.24 1608.31 290.18 1601.72L329.991 1466.44Z" fill="url(#paint7_linear_1364_11054)"/>
<path d="M195.222 1462.2C193.931 1455.43 198.404 1448.91 205.213 1447.63L296.037 1430.51C302.847 1429.23 309.414 1433.68 310.705 1440.44L337.657 1581.62C338.948 1588.38 334.475 1594.91 327.666 1596.19L236.842 1613.31C230.033 1614.59 223.466 1610.14 222.174 1603.38L195.222 1462.2Z" fill="#F18A69"/>
<path d="M197.764 1461.44C196.473 1454.68 200.946 1448.15 207.755 1446.87L296.116 1430.22C302.925 1428.94 309.492 1433.38 310.783 1440.15L337.285 1578.97C338.577 1585.73 334.103 1592.26 327.294 1593.54L238.933 1610.19C232.124 1611.47 225.557 1607.03 224.266 1600.26L197.764 1461.44Z" fill="url(#paint8_linear_1364_11054)"/>
<g filter="url(#filter0_i_1364_11054)">
<path d="M378.597 1572.26C378.388 1573.03 377.686 1573.55 376.892 1573.54L366.041 1573.31C365.714 1573.3 365.389 1573.25 365.073 1573.17L348.198 1568.57C347.882 1568.49 347.578 1568.36 347.293 1568.2L337.825 1562.89C337.133 1562.51 336.794 1561.7 337.003 1560.93C337.254 1560.01 338.204 1559.47 339.126 1559.72L377.383 1570.14C378.304 1570.39 378.848 1571.34 378.597 1572.26ZM388.415 1544.42L384.85 1543.45C384.03 1543.23 383.546 1542.38 383.769 1541.56C383.993 1540.74 383.509 1539.89 382.689 1539.67L352.381 1531.41C350.25 1530.83 348.051 1532.09 347.47 1534.22L344.475 1545.22C343.33 1549.42 344.443 1553.67 347.156 1556.45C347.458 1556.76 347.593 1557.2 347.48 1557.62C347.314 1558.23 347.673 1558.85 348.281 1559.02L369.825 1564.89C370.445 1565.06 371.085 1564.69 371.253 1564.07C371.364 1563.66 371.689 1563.35 372.092 1563.23C374.813 1562.38 377.268 1560.49 378.855 1558.08C378.955 1557.93 379.142 1557.85 379.318 1557.9C386.151 1559.76 389.553 1554.31 391.064 1549.93C392.008 1547.63 390.792 1545.07 388.415 1544.42ZM384.012 1554.64C382.054 1555.66 380.598 1553.2 381.179 1551.07L381.504 1549.88C382.085 1547.74 384.283 1546.49 386.415 1547.07L387.606 1547.39C387.903 1547.47 388.119 1547.85 388.119 1547.85C388.119 1547.85 388.119 1547.85 388.119 1547.85C388.119 1547.85 388.335 1548.23 388.174 1548.82C386.949 1552.26 385.424 1553.9 384.012 1554.64Z" fill="#8AE6B7"/>
</g>
<g filter="url(#filter1_i_1364_11054)">
<path fill-rule="evenodd" clip-rule="evenodd" d="M250.364 1496.82C250.018 1496.88 249.698 1497.04 249.446 1497.29C249.194 1497.53 249.021 1497.85 248.949 1498.19L247.631 1504.54C247.487 1505.23 248.088 1505.85 248.785 1505.72L279.168 1500.33C279.864 1500.2 280.216 1499.42 279.842 1498.82L276.419 1493.31C276.234 1493.01 275.963 1492.78 275.642 1492.63C275.321 1492.49 274.964 1492.45 274.618 1492.51L250.364 1496.82ZM257.006 1544.16L251.756 1528.76C251.558 1528.18 251.924 1527.56 252.527 1527.45L283.135 1522.01C283.739 1521.91 284.296 1522.36 284.31 1522.97L284.685 1539.24C284.694 1539.66 284.553 1540.07 284.287 1540.4C284.021 1540.72 283.647 1540.94 283.234 1541.02L258.979 1545.33C258.565 1545.4 258.139 1545.32 257.777 1545.11C257.415 1544.89 257.142 1544.56 257.006 1544.16ZM247.822 1510.36L281.671 1504.35C283.75 1503.98 285.691 1505.14 286.011 1506.94L287.169 1513.47C287.489 1515.27 286.063 1517.02 283.988 1517.39L250.135 1523.4C248.056 1523.77 246.117 1522.61 245.797 1520.81L244.639 1514.29C244.319 1512.49 245.747 1510.73 247.822 1510.36Z" fill="#F18A69"/>
</g>
</g>
<path d="M127.583 159C127.271 157.208 126 154.958 123.583 153.146C122.396 152.25 121.187 151.667 120 151.417V150.542C122.354 149.979 124.667 148.396 126.146 146.25C126.896 145.167 127.375 144.104 127.583 143H128.458C128.812 145.104 130.438 147.438 132.646 149C133.729 149.771 134.854 150.292 136 150.542V151.417C133.688 151.896 131 153.958 129.667 156.062C129 157.125 128.604 158.104 128.458 159H127.583Z" fill="#DBDDFF"/>
<path d="M188.583 271C188.271 269.208 187 266.958 184.583 265.146C183.396 264.25 182.187 263.667 181 263.417V262.542C183.354 261.979 185.667 260.396 187.146 258.25C187.896 257.167 188.375 256.104 188.583 255H189.458C189.812 257.104 191.438 259.438 193.646 261C194.729 261.771 195.854 262.292 197 262.542V263.417C194.688 263.896 192 265.958 190.667 268.062C190 269.125 189.604 270.104 189.458 271H188.583Z" fill="#DBDDFF"/>
<path d="M138.792 170C138.635 169.104 138 167.979 136.792 167.073C136.198 166.625 135.594 166.333 135 166.208V165.771C136.177 165.49 137.333 164.698 138.073 163.625C138.448 163.083 138.688 162.552 138.792 162H139.229C139.406 163.052 140.219 164.219 141.323 165C141.865 165.385 142.427 165.646 143 165.771V166.208C141.844 166.448 140.5 167.479 139.833 168.531C139.5 169.062 139.302 169.552 139.229 170H138.792Z" fill="#ACAFF4"/>
<path d="M213.583 776C213.271 774.208 212 771.958 209.583 770.146C208.396 769.25 207.187 768.667 206 768.417V767.542C208.354 766.979 210.667 765.396 212.146 763.25C212.896 762.167 213.375 761.104 213.583 760H214.458C214.812 762.104 216.438 764.438 218.646 766C219.729 766.771 220.854 767.292 222 767.542V768.417C219.688 768.896 217 770.958 215.667 773.062C215 774.125 214.604 775.104 214.458 776H213.583Z" fill="#DBDDFF"/>
<path d="M197.583 850C197.271 848.208 196 845.958 193.583 844.146C192.396 843.25 191.187 842.667 190 842.417V841.542C192.354 840.979 194.667 839.396 196.146 837.25C196.896 836.167 197.375 835.104 197.583 834H198.458C198.812 836.104 200.438 838.438 202.646 840C203.729 840.771 204.854 841.292 206 841.542V842.417C203.688 842.896 201 844.958 199.667 847.062C199 848.125 198.604 849.104 198.458 850H197.583Z" fill="#DBDDFF"/>
<path d="M225.792 784C225.635 783.104 225 781.979 223.792 781.073C223.198 780.625 222.594 780.333 222 780.208V779.771C223.177 779.49 224.333 778.698 225.073 777.625C225.448 777.083 225.688 776.552 225.792 776H226.229C226.406 777.052 227.219 778.219 228.323 779C228.865 779.385 229.427 779.646 230 779.771V780.208C228.844 780.448 227.5 781.479 226.833 782.531C226.5 783.062 226.302 783.552 226.229 784H225.792Z" fill="#ACAFF4"/>
<path d="M149.583 1433C149.271 1431.21 148 1428.96 145.583 1427.15C144.396 1426.25 143.187 1425.67 142 1425.42V1424.54C144.354 1423.98 146.667 1422.4 148.146 1420.25C148.896 1419.17 149.375 1418.1 149.583 1417H150.458C150.812 1419.1 152.438 1421.44 154.646 1423C155.729 1423.77 156.854 1424.29 158 1424.54V1425.42C155.688 1425.9 153 1427.96 151.667 1430.06C151 1431.12 150.604 1432.1 150.458 1433H149.583Z" fill="#DBDDFF"/>
<path d="M328.583 1441C328.271 1439.21 327 1436.96 324.583 1435.15C323.396 1434.25 322.187 1433.67 321 1433.42V1432.54C323.354 1431.98 325.667 1430.4 327.146 1428.25C327.896 1427.17 328.375 1426.1 328.583 1425H329.458C329.812 1427.1 331.438 1429.44 333.646 1431C334.729 1431.77 335.854 1432.29 337 1432.54V1433.42C334.688 1433.9 332 1435.96 330.667 1438.06C330 1439.12 329.604 1440.1 329.458 1441H328.583Z" fill="#ACAFF4"/>
<path d="M160.792 1444C160.635 1443.1 160 1441.98 158.792 1441.07C158.198 1440.62 157.594 1440.33 157 1440.21V1439.77C158.177 1439.49 159.333 1438.7 160.073 1437.62C160.448 1437.08 160.688 1436.55 160.792 1436H161.229C161.406 1437.05 162.219 1438.22 163.323 1439C163.865 1439.39 164.427 1439.65 165 1439.77V1440.21C163.844 1440.45 162.5 1441.48 161.833 1442.53C161.5 1443.06 161.302 1443.55 161.229 1444H160.792Z" fill="#ACAFF4"/>
<path d="M99.636 427.108C97.836 427.108 96.624 426.124 96.624 424.456C96.624 423.208 97.32 422.332 98.46 422.032C97.524 421.732 96.9 420.94 96.9 419.872C96.9 418.456 97.944 417.472 99.636 417.472C101.328 417.472 102.372 418.456 102.372 419.872C102.372 420.94 101.748 421.732 100.812 422.032C101.952 422.332 102.66 423.208 102.66 424.456C102.66 426.124 101.436 427.108 99.636 427.108ZM99.636 421.696C100.812 421.696 101.628 421.012 101.628 419.92C101.628 418.828 100.812 418.132 99.636 418.132C98.46 418.132 97.644 418.828 97.644 419.92C97.644 421.012 98.46 421.696 99.636 421.696ZM101.904 424.408C101.904 423.112 100.968 422.344 99.636 422.344C98.316 422.344 97.368 423.112 97.368 424.408C97.368 425.704 98.316 426.46 99.636 426.46C100.968 426.46 101.904 425.704 101.904 424.408ZM112.361 418.852V417.736H104.897V417.088H113.093V418.84C113.093 419.524 112.997 420.304 112.829 420.844H112.109C112.277 420.28 112.361 419.524 112.361 418.852ZM104.237 422.704V422.056H107.741V419.548H108.473V422.056H113.825V422.704H104.237ZM109.025 425.752C108.281 426.856 106.433 427.612 104.549 427.708V427.06C106.421 426.94 108.653 425.98 108.653 424.588V424.108H109.385V424.588C109.385 425.98 111.617 426.94 113.501 427.06V427.708C111.593 427.612 109.757 426.82 109.025 425.752Z" fill="white"/>
</g>
<defs>
<filter id="filter0_i_1364_11054" x="336.942" y="1531.27" width="54.4431" height="46.2654" filterUnits="userSpaceOnUse" color-interpolation-filters="sRGB">
<feFlood flood-opacity="0" result="BackgroundImageFix"/>
<feBlend mode="normal" in="SourceGraphic" in2="BackgroundImageFix" result="shape"/>
<feColorMatrix in="SourceAlpha" type="matrix" values="0 0 0 0 0 0 0 0 0 0 0 0 0 0 0 0 0 0 127 0" result="hardAlpha"/>
<feOffset dy="4"/>
<feGaussianBlur stdDeviation="2"/>
<feComposite in2="hardAlpha" operator="arithmetic" k2="-1" k3="1"/>
<feColorMatrix type="matrix" values="0 0 0 0 0.368627 0 0 0 0 0.686275 0 0 0 0 0.643137 0 0 0 1 0"/>
<feBlend mode="normal" in2="shape" result="effect1_innerShadow_1364_11054"/>
</filter>
<filter id="filter1_i_1364_11054" x="244.594" y="1492.48" width="42.6196" height="56.8713" filterUnits="userSpaceOnUse" color-interpolation-filters="sRGB">
<feFlood flood-opacity="0" result="BackgroundImageFix"/>
<feBlend mode="normal" in="SourceGraphic" in2="BackgroundImageFix" result="shape"/>
<feColorMatrix in="SourceAlpha" type="matrix" values="0 0 0 0 0 0 0 0 0 0 0 0 0 0 0 0 0 0 127 0" result="hardAlpha"/>
<feOffset dy="4"/>
<feGaussianBlur stdDeviation="2"/>
<feComposite in2="hardAlpha" operator="arithmetic" k2="-1" k3="1"/>
<feColorMatrix type="matrix" values="0 0 0 0 0 0 0 0 0 0 0 0 0 0 0 0 0 0 0.25 0"/>
<feBlend mode="normal" in2="shape" result="effect1_innerShadow_1364_11054"/>
</filter>
<linearGradient id="paint0_linear_1364_11054" x1="329.527" y1="157.015" x2="336.595" y2="287.625" gradientUnits="userSpaceOnUse">
<stop stop-color="#81FFFF"/>
<stop offset="1" stop-color="#8DDD9F"/>
</linearGradient>
<linearGradient id="paint1_linear_1364_11054" x1="215.046" y1="241.047" x2="442.803" y2="262.825" gradientUnits="userSpaceOnUse">
<stop stop-color="#587E9B"/>
<stop offset="1" stop-color="#434595"/>
</linearGradient>
<linearGradient id="paint2_linear_1364_11054" x1="272.62" y1="201.96" x2="360.161" y2="264.354" gradientUnits="userSpaceOnUse">
<stop stop-color="#8DC4EB"/>
<stop offset="1" stop-color="#6363DB"/>
</linearGradient>
<linearGradient id="paint3_linear_1364_11054" x1="296.987" y1="910.285" x2="376.166" y2="991.926" gradientUnits="userSpaceOnUse">
<stop stop-color="#353AA4"/>
<stop offset="1" stop-color="#686DCC"/>
</linearGradient>
<linearGradient id="paint4_linear_1364_11054" x1="342.694" y1="829.135" x2="389.341" y2="944.842" gradientUnits="userSpaceOnUse">
<stop stop-color="#4B51E7"/>
<stop offset="1" stop-color="#BDBFFF"/>
</linearGradient>
<linearGradient id="paint5_linear_1364_11054" x1="227.202" y1="873.381" x2="349.801" y2="866.686" gradientUnits="userSpaceOnUse">
<stop stop-color="#B75738"/>
<stop offset="1" stop-color="#E97753"/>
</linearGradient>
<linearGradient id="paint6_linear_1364_11054" x1="226.728" y1="810.139" x2="318.386" y2="885.172" gradientUnits="userSpaceOnUse">
<stop stop-color="#FEA98D"/>
<stop offset="0.661458" stop-color="#FFD3C5"/>
</linearGradient>
<linearGradient id="paint7_linear_1364_11054" x1="358.003" y1="1445.32" x2="318.927" y2="1634.63" gradientUnits="userSpaceOnUse">
<stop stop-color="#A1EBC5"/>
<stop offset="1" stop-color="#DBF7E9"/>
</linearGradient>
<linearGradient id="paint8_linear_1364_11054" x1="251.935" y1="1438.55" x2="282.722" y2="1601.94" gradientUnits="userSpaceOnUse">
<stop stop-color="#F4A187"/>
<stop offset="1" stop-color="#FBDBD1"/>
</linearGradient>
<clipPath id="clip0_1364_11054">
<rect width="393" height="2051" fill="white"/>
</clipPath>
</defs>
</svg>
